SplineFontDB: 3.0
FontName: Jost-HeavyItalic
FullName: Jost* 800 Heavy Italic
FamilyName: Jost* Heavy
Weight: Heavy
Copyright: This typeface is licensed under the SIL open font license.
UComments: "2018-6-8: Created with FontForge (http://fontforge.org)"
Version: 003.300
ItalicAngle: -10
UnderlinePosition: -100
UnderlineWidth: 50
Ascent: 800
Descent: 200
InvalidEm: 0
LayerCount: 2
Layer: 0 0 "Back" 1
Layer: 1 0 "Fore" 0
XUID: [1021 69 1495626776 760146]
FSType: 0
OS2Version: 0
OS2_WeightWidthSlopeOnly: 0
OS2_UseTypoMetrics: 0
CreationTime: 1528480336
ModificationTime: 1536029719
PfmFamily: 17
TTFWeight: 800
TTFWidth: 5
LineGap: 100
VLineGap: 0
OS2TypoAscent: 825
OS2TypoAOffset: 0
OS2TypoDescent: -225
OS2TypoDOffset: 0
OS2TypoLinegap: 100
OS2WinAscent: 900
OS2WinAOffset: 0
OS2WinDescent: 300
OS2WinDOffset: 0
HheadAscent: 1030
HheadAOffset: 0
HheadDescent: -350
HheadDOffset: 0
OS2CapHeight: 700
OS2XHeight: 460
OS2Vendor: 'PfEd'
Lookup: 1 0 0 "alt a" { "alt a"  } ['ss01' ('DFLT' <'dflt' > 'latn' <'dflt' > ) ]
Lookup: 1 0 0 "Tabular Numbers lookup" { "Tabular Numbers lookup"  } ['tnum' ('DFLT' <'dflt' > 'grek' <'dflt' > 'latn' <'dflt' > ) ]
Lookup: 258 0 0 "Lets get our kern on" { "kernin like nobodys business" [150,0,4] } ['kern' ('DFLT' <'dflt' > 'latn' <'dflt' > ) ]
MarkAttachClasses: 1
DEI: 91125
KernClass2: 16 14 "kernin like nobodys business"
 15 slash seven V W
 175 quotedbl quotesingle asterisk grave dieresis ordfeminine macron degree acute ordmasculine circumflex breve dotaccent ring tilde quoteleft quoteright quotedblleft quotedblright
 17 nine question F P
 107 A L backslash Agrave Aacute Acircumflex Atilde Adieresis Aring Amacron Abreve Aogonek Lacute uni013B Lslash
 26 three eight B C germandbls
 5 K X Z
 125 at D G O Ograve Oacute Ocircumflex Otilde Odieresis Oslash Dcaron Dcroat Gcircumflex Gbreve Gdotaccent uni0122 Omacron Obreve

StartChar: H
Encoding: 72 72 0
Width: 785
VWidth: 0
Flags: HMW
LayerCount: 2
Fore
SplineSet
133 278 m 1
 164 453 l 1
 697.5 453 l 1
 667 278 l 1
 133 278 l 1
616.5 700 m 1
 811 700 l 1
 690.5 0 l 1
 497 0 l 1
 616.5 700 l 1
160.5 700 m 1
 355 700 l 1
 234 0 l 1
 41 0 l 1
 160.5 700 l 1
EndSplineSet
EndChar

StartChar: O
Encoding: 79 79 1
Width: 806
VWidth: 0
Flags: HMW
LayerCount: 2
Fore
SplineSet
266.5 350 m 0
 251.5 252.5 291.5 162.5 398.5 161 c 0
 506.5 159.5 587 246 605 350 c 0
 620.5 448 583 538 473.5 539 c 0
 365.5 540 284.5 454 266.5 350 c 0
62 350 m 0
 94 561 277 718 493 718 c 0
 707 718 840 555 810.5 350 c 0
 778.5 138 598.5 -27 377 -26.5 c 0
 159 -26 32.5 145 62 350 c 0
EndSplineSet
EndChar

StartChar: I
Encoding: 73 73 2
Width: 333
VWidth: 0
Flags: HMW
LayerCount: 2
Fore
SplineSet
160.5 700 m 1
 358.5 700 l 1
 238.5 0 l 1
 41 0 l 1
 160.5 700 l 1
EndSplineSet
EndChar

StartChar: C
Encoding: 67 67 3
Width: 684
VWidth: 0
Flags: HMW
LayerCount: 2
Fore
SplineSet
274 350 m 0
 256.5 245.5 320 170 424.5 168.5 c 0
 516 167.5 584 211.5 640.5 256 c 1
 609.5 50 l 1
 547.5 10 481 -18 390 -18 c 0
 167.5 -18 31 141 62 350 c 0
 94.5 565 277 718 504.5 718 c 0
 592 718 652 692 708.5 649.5 c 1
 677 443 l 1
 635.5 493.5 581 531.5 496.5 531.5 c 0
 389.5 531 293 459 274 350 c 0
EndSplineSet
EndChar

StartChar: E
Encoding: 69 69 4
Width: 601
VWidth: 0
Flags: HMW
LayerCount: 2
Fore
SplineSet
170.5 0 m 1
 198.5 159 l 1
 545 159 l 1
 516.5 0 l 1
 170.5 0 l 1
263 541 m 1
 291 700 l 1
 637 700 l 1
 609 541 l 1
 263 541 l 1
219 286.5 m 1
 246.5 440.5 l 1
 573.5 440.5 l 1
 546 286.5 l 1
 219 286.5 l 1
160.5 700 m 1
 346.5 700 l 1
 226.5 0 l 1
 41 0 l 1
 160.5 700 l 1
EndSplineSet
EndChar

StartChar: F
Encoding: 70 70 6
Width: 553
VWidth: 0
Flags: HMW
LayerCount: 2
Fore
SplineSet
261.5 532.5 m 1
 291 700 l 1
 598 700 l 1
 568.5 532.5 l 1
 261.5 532.5 l 1
215 261 m 1
 242.5 416 l 1
 540 416 l 1
 512.5 261 l 1
 215 261 l 1
160.5 700 m 1
 346.5 700 l 1
 226.5 0 l 1
 41 0 l 1
 160.5 700 l 1
EndSplineSet
EndChar

StartChar: G
Encoding: 71 71 7
Width: 802
VWidth: 0
Flags: HMW
LayerCount: 2
Fore
SplineSet
425.5 245.5 m 1
 451.5 392 l 1
 804.5 392 l 1
 783.5 168.5 641 -26.5 390 -26.5 c 0
 169 -26.5 31.5 140 62 350 c 0
 95 567.5 285 718 509.5 718 c 0
 648 718 741 648 801.5 545.5 c 1
 615 461.5 l 1
 593 512 557.5 550 491.5 550 c 0
 379.5 550 284 465.5 264.5 350 c 0
 247 239.5 295 142 411.5 142 c 0
 498.5585 142 550.448 181.802 585.0165 245.5 c 1
 425.5 245.5 l 1
EndSplineSet
EndChar

StartChar: T
Encoding: 84 84 8
Width: 575
VWidth: 0
Flags: HMW
LayerCount: 2
Fore
SplineSet
62 524.5 m 1
 93 700 l 1
 668.5 700 l 1
 637.5 524.5 l 1
 447.5 524.5 l 1
 357.5 0 l 1
 163.5 0 l 1
 253 524.5 l 1
 62 524.5 l 1
EndSplineSet
EndChar

StartChar: L
Encoding: 76 76 9
Width: 536
VWidth: 0
Flags: HMW
LayerCount: 2
Fore
SplineSet
161 700 m 1
 355 700 l 1
 263.5 167.5 l 1
 539 167.5 l 1
 509.5 0 l 1
 41 0 l 1
 161 700 l 1
EndSplineSet
EndChar

StartChar: D
Encoding: 68 68 10
Width: 727
VWidth: 0
Flags: HMW
LayerCount: 2
Fore
SplineSet
160.5 700 m 1
 362 700 l 1
 242 0 l 1
 41 0 l 1
 160.5 700 l 1
303.5 0 m 2
 170.5 0 l 1
 201 172 l 1
 314.5 172 l 2
 417 172 509.5 224.5 529.5 350 c 0
 548 471 485 528.5 385 528.5 c 2
 260 528.5 l 1
 290.5 700 l 1
 412 700 l 2
 632 700 763 558 732 350 c 0
 699.5 137 529.5 0 303.5 0 c 2
EndSplineSet
EndChar

StartChar: Q
Encoding: 81 81 11
Width: 860
VWidth: 0
Flags: HMW
LayerCount: 2
Fore
SplineSet
266.5 350 m 0
 249.5 240.5 305 145 416 144 c 0
 523.5 143 606.5 221.5 625 325.5 c 0
 642.5 427 600.5 537.5 477.5 539 c 0
 369.5 540 284.5 454.5 266.5 350 c 0
62 350 m 0
 94 561.5 281.5 718.5 497.5 718 c 0
 711.5 717.5 839.5 554 810.5 350 c 0
 778.5 138.5 603.5 -27 382 -26.5 c 0
 164 -26 32.5 145 62 350 c 0
366.5 300 m 1
 551 300 l 1
 836.5 -16.5 l 1
 643 -16.5 l 1
 366.5 300 l 1
EndSplineSet
EndChar

StartChar: A
Encoding: 65 65 12
Width: 736
VWidth: 0
Flags: HMW
LayerCount: 2
Fore
SplineSet
180.5 110.5 m 1
 211.5 255 l 1
 563.5 255 l 1
 543 110.5 l 1
 180.5 110.5 l 1
410.5 409.5 m 1
 289 201.5 l 1
 294 156.5 l 1
 190 0 l 1
 -35 0 l 1
 468 749.5 l 1
 711.5 0 l 1
 497.5 0 l 1
 449 151 l 1
 465 201 l 1
 410.5 409.5 l 1
EndSplineSet
EndChar

StartChar: R
Encoding: 82 82 13
Width: 655
VWidth: 0
Flags: HMW
LayerCount: 2
Fore
SplineSet
282 307.5 m 1
 475 307.5 l 1
 625 0 l 1
 406 0 l 1
 282 307.5 l 1
160.5 700 m 1
 355 700 l 1
 234 0 l 1
 41 0 l 1
 160.5 700 l 1
254.5 533.5 m 1
 283 700 l 1
 425.5 700 l 2
 591 700 685 608.5 667.5 465 c 0
 649.5 319.5 527 230 356 230 c 2
 201.5 230 l 1
 228.5 380 l 1
 355 380 l 2
 410.5 380 455.5 407.5 464.5 457.5 c 0
 472.5 505 442.5 533 390 533.5 c 2
 254.5 533.5 l 1
EndSplineSet
EndChar

StartChar: V
Encoding: 86 86 14
Width: 736
VWidth: 0
Flags: HMW
LayerCount: 2
Fore
SplineSet
400.5 327 m 1
 603.5 699.5 l 1
 834 699.5 l 1
 345.5 -49.5 l 1
 88 700 l 1
 311.5 700 l 1
 400.5 327 l 1
EndSplineSet
EndChar

StartChar: M
Encoding: 77 77 15
Width: 890
VWidth: 0
Flags: HMW
LayerCount: 2
Fore
SplineSet
300.3215 315.572 m 1
 208 0 l 1
 1 0 l 1
 246.5 735 l 1
 472.5 336 l 1
 841.5 740.5 l 1
 833 0 l 1
 628 0 l 1
 643.8885 308.666 l 1
 432 63.5 l 1
 300.3215 315.572 l 1
EndSplineSet
EndChar

StartChar: W
Encoding: 87 87 16
Width: 1056
VWidth: 0
Flags: HMW
LayerCount: 2
Fore
SplineSet
748.5555 323.908 m 1
 914.5 700 l 1
 1150 699.5 l 1
 730 -45.5 l 1
 565.5 336.5 l 1
 281.5 -46.5 l 1
 93 700 l 1
 321.5 700 l 1
 371.334 326.781 l 1
 624 738 l 1
 748.5555 323.908 l 1
EndSplineSet
EndChar

StartChar: N
Encoding: 78 78 17
Width: 775
VWidth: 0
Flags: HMW
LayerCount: 2
Fore
SplineSet
615 700 m 1
 801 700 l 1
 676 -33 l 1
 287 350.83 l 1
 226.5 0 l 1
 41 0 l 1
 166 733 l 1
 554 348.9885 l 1
 615 700 l 1
EndSplineSet
EndChar

StartChar: a
Encoding: 97 97 18
Width: 612
VWidth: 0
Flags: HMW
LayerCount: 2
Fore
SplineSet
442.5 460 m 1
 615 460 l 1
 535.5 0 l 1
 363.5 0 l 1
 442.5 460 l 1
40.5 230.5 m 0
 58.5 368 166.5 470 287 470 c 0
 410.5 470 462.5 355 447 229.5 c 0
 429.5 97.5 338.5 -9.5 216 -9.5 c 0
 95.5 -9.5 24 98 40.5 230.5 c 0
221 229.5 m 0
 213.5 178.5 240 129 292 127.5 c 0
 342.5 126 393 174 402 230.5 c 0
 409.5 283 384 331 335 332.5 c 0
 281.5 334 230 284 221 229.5 c 0
EndSplineSet
Substitution2: "alt a" a.alt
EndChar

StartChar: X
Encoding: 88 88 19
Width: 706
VWidth: 0
Flags: HMW
LayerCount: 2
Fore
SplineSet
540.5 699.5 m 1
 786 699.5 l 1
 511.5 352 l 1
 687 0 l 1
 452 0 l 1
 372.5 210 l 1
 225.5 0 l 1
 -19.5 0 l 1
 277 360 l 1
 117.5 700 l 1
 353.5 700 l 1
 417.5 518.5 l 1
 540.5 699.5 l 1
EndSplineSet
EndChar

StartChar: K
Encoding: 75 75 20
Width: 721
VWidth: 0
Flags: HMW
LayerCount: 2
Fore
SplineSet
160.5 700 m 1
 363 700 l 1
 243 0 l 1
 41 0 l 1
 160.5 700 l 1
575.5 699.5 m 1
 807.5 699.5 l 1
 476.5 368 l 1
 696 0 l 1
 469 0 l 1
 249 370.5 l 1
 575.5 699.5 l 1
EndSplineSet
EndChar

StartChar: Y
Encoding: 89 89 21
Width: 671
VWidth: 0
Flags: HMW
LayerCount: 2
Fore
SplineSet
543.5 699.5 m 1
 772.5 699.5 l 1
 454.5 274.04 l 1
 408 0 l 1
 210 0 l 1
 260 283.04 l 1
 90 700 l 1
 309 700 l 1
 385 460.5 l 1
 543.5 699.5 l 1
EndSplineSet
EndChar

StartChar: B
Encoding: 66 66 22
Width: 677
VWidth: 0
Flags: HMW
LayerCount: 2
Fore
SplineSet
248 341.5 m 1
 263 424 l 1
 361 424 l 2
 408.5 424 448.5 447.5 456 490 c 0
 463 530.5 435.5 550 391 550.5 c 2
 330 550.5 l 1
 259 149 l 1
 332.5 149 l 2
 386 150 441.5 166.5 450 224.5 c 0
 457.5 275.5 414.5 289.5 365.5 290.5 c 2
 239 291 l 1
 258.5 398 l 1
 398 398 l 2
 525 398 664.5 336.5 644.5 193.5 c 0
 624 52 497 0 341.5 0 c 2
 41 0 l 1
 161 700 l 1
 431.5 700 l 2
 559 700 681 645 662 520.5 c 0
 643.5 398.5 516.5 341.5 381.5 341.5 c 2
 248 341.5 l 1
EndSplineSet
EndChar

StartChar: Z
Encoding: 90 90 23
Width: 624
VWidth: 0
Flags: HMW
LayerCount: 2
Fore
SplineSet
122.5 524.5 m 1
 153.5 700 l 1
 710 699.5 l 1
 310 168 l 1
 578 167.5 l 1
 548 0 l 1
 -25.5 0 l 1
 368.5 524 l 1
 122.5 524.5 l 1
EndSplineSet
EndChar

StartChar: o
Encoding: 111 111 24
Width: 585
VWidth: 0
Flags: HMW
LayerCount: 2
Fore
SplineSet
47 230.5 m 0
 66 374.5 194.5 470.5 343.5 470.5 c 0
 489.5 470.5 594.5 371.5 576 229.5 c 0
 557 85.5 429 -10 280 -10 c 0
 134.5 -10 28.5 88.5 47 230.5 c 0
224 229.5 m 0
 217 177.5 242 133.5 292.5 132 c 0
 344 130.5 391.5 175 399.5 230.5 c 0
 406.5 282.5 381 327.5 330.5 329 c 0
 279 330.5 232 285 224 229.5 c 0
EndSplineSet
EndChar

StartChar: J
Encoding: 74 74 25
Width: 348
VWidth: 0
Flags: HMW
LayerCount: 2
Fore
SplineSet
-112 -49 m 1
 -91.5 -64.5 -65.5 -81.5 -38.5 -81 c 0
 -2 -80.5 33 -50 39.5 -2.5 c 2
 161 700 l 1
 374 700 l 1
 246.5 -52.5 l 2
 224 -188 100.5 -244.5 -32.5 -244.5 c 0
 -111.5 -244.5 -182 -217 -236 -184.5 c 1
 -112 -49 l 1
EndSplineSet
EndChar

StartChar: t
Encoding: 116 116 26
Width: 332
VWidth: 0
Flags: HMW
LayerCount: 2
Fore
SplineSet
55.5 460 m 1
 382 460 l 1
 356.5 318.5 l 1
 30 318.5 l 1
 55.5 460 l 1
163 620 m 1
 328.5 620 l 1
 222 0 l 1
 56.5 0 l 1
 163 620 l 1
EndSplineSet
EndChar

StartChar: d
Encoding: 100 100 27
Width: 612
VWidth: 0
Flags: HMW
LayerCount: 2
Fore
SplineSet
496.5 780 m 1
 670 780 l 1
 536 0 l 1
 363 0 l 1
 496.5 780 l 1
40.5 230.5 m 0
 58.5 368.5 166.5 470 286.5 470 c 0
 410 470 462.5 355 447 229.5 c 0
 429.5 97.5 338 -9.5 215.5 -9.5 c 0
 95.5 -9.5 24 97.5 40.5 230.5 c 0
221.5 229.5 m 0
 214 178.5 240 129 292 127.5 c 0
 342.5 126 393 174 402 230.5 c 0
 409.5 283 384 331 335 332.5 c 0
 281.5 334 230.5 284 221.5 229.5 c 0
EndSplineSet
EndChar

StartChar: l
Encoding: 108 108 28
Width: 274
VWidth: 0
Flags: HMW
LayerCount: 2
Fore
SplineSet
157.5 780 m 1
 331 780 l 1
 196.5 0 l 1
 24 0 l 1
 157.5 780 l 1
EndSplineSet
EndChar

StartChar: i
Encoding: 105 105 29
Width: 273
VWidth: 0
Flags: HMW
LayerCount: 2
Fore
SplineSet
117.5 626 m 0
 117.5 680.5 162 717 216.5 717 c 0
 271 717 315 680.5 315 626 c 0
 315 571.5 271 535.5 216.5 535.5 c 0
 162 535.5 117.5 571.5 117.5 626 c 0
104 460 m 1
 271.5 460 l 1
 192.5 0 l 1
 25.5 0 l 1
 104 460 l 1
EndSplineSet
EndChar

StartChar: r
Encoding: 114 114 30
Width: 425
VWidth: 0
Flags: HMW
LayerCount: 2
Fore
SplineSet
272 460 m 1
 192.5 0 l 1
 24 0 l 1
 103 460 l 1
 272 460 l 1
375 281 m 1
 362 295.5 346.5 307.5 323.5 308 c 0
 276.5 309 235.5 262 228.5 209.5 c 1
 211.5 281 l 1
 228.5 376.5 311 472 390.5 472 c 0
 424 472 451.5 452.5 468.5 429.5 c 1
 375 281 l 1
EndSplineSet
EndChar

StartChar: c
Encoding: 99 99 31
Width: 483
VWidth: 0
Flags: HMW
LayerCount: 2
Fore
SplineSet
222.5 229.5 m 0
 213.5 169.5 251.5 128 310.5 126.5 c 0
 362.5 125 410.5 151 446 188 c 1
 425 25.5 l 1
 386.5 4 343.5 -10 282.5 -10 c 0
 134 -10 27.5 87 46 230.5 c 0
 65.5 376 194 470 346.5 470 c 0
 406.5 470 448 455.5 485 436 c 1
 463 272 l 1
 436.5 312 394.5 334.5 350.5 334.5 c 0
 285.5 334.5 232.5 287.5 222.5 229.5 c 0
EndSplineSet
EndChar

StartChar: b
Encoding: 98 98 32
Width: 612
VWidth: 0
Flags: HMW
LayerCount: 2
Fore
SplineSet
330.5 780 m 1
 196.5 0 l 1
 23 0 l 1
 156.5 780 l 1
 330.5 780 l 1
597 229.5 m 0
 579 91.5 471 -10 351 -10 c 0
 227.5 -10 175 105 190.5 230.5 c 0
 208 362.5 299.5 469.5 422 469.5 c 0
 542 469.5 613.5 362.5 597 229.5 c 0
417 230.5 m 0
 424.5 281.5 398 331 346 332.5 c 0
 295.5 334 245 286 236 229.5 c 0
 228.5 177 254.5 129 303.5 127.5 c 0
 357 126 408 176 417 230.5 c 0
EndSplineSet
EndChar

StartChar: p
Encoding: 112 112 33
Width: 612
VWidth: 0
Flags: HMW
LayerCount: 2
Fore
SplineSet
159 -220 m 1
 -14.5 -220 l 1
 102 460 l 1
 275 460 l 1
 159 -220 l 1
597 229.5 m 0
 579 87 471 -18.5 349.5 -18 c 0
 218.5 -17.5 184 105 199.5 230 c 0
 217 362 295 477 423.5 477.5 c 0
 546 478 613.5 366.5 597 229.5 c 0
417 231 m 0
 424.5 283.5 396 322.5 345 324 c 0
 296 325.5 244 285 236 229 c 0
 228.5 175 257.5 138 305 136 c 0
 357.5 134 409 176.5 417 231 c 0
EndSplineSet
EndChar

StartChar: q
Encoding: 113 113 34
Width: 612
VWidth: 0
Flags: HMW
LayerCount: 2
Fore
SplineSet
325 -220 m 1
 441.5 460 l 1
 615.5 460 l 1
 498.5 -220 l 1
 325 -220 l 1
40.5 230.5 m 0
 58.5 373 166 478.5 287.5 478 c 0
 418.5 477.5 454.5 355 439 230 c 0
 421.5 98 342.5 -17 214 -17.5 c 0
 91.5 -18 24 93.5 40.5 230.5 c 0
221.5 229 m 0
 214 176.5 242.5 137.5 293.5 136 c 0
 342.5 134.5 394 175 402 231 c 0
 409.5 285 381 322 333.5 324 c 0
 281 326 229.5 283.5 221.5 229 c 0
EndSplineSet
EndChar

StartChar: h
Encoding: 104 104 35
Width: 564
VWidth: 0
Flags: HMW
LayerCount: 2
Fore
SplineSet
331 780 m 1
 197 0 l 1
 24 0 l 1
 157.5 780 l 1
 331 780 l 1
364.5 280 m 2
 369 316.5 366.5 350 325.5 353.5 c 0
 284 357 254 319 245 280 c 1
 217.5 281 l 1
 235.5 383.5 292 478 409.5 479 c 0
 523.5 480 554 406 539.5 306.5 c 1
 487.5 0 l 1
 314.5 0 l 1
 364.5 280 l 2
EndSplineSet
EndChar

StartChar: n
Encoding: 110 110 36
Width: 573
VWidth: 0
Flags: HMW
LayerCount: 2
Fore
SplineSet
276 460 m 1
 197 0 l 1
 24 0 l 1
 103 460 l 1
 276 460 l 1
364.5 280 m 2
 369 316.5 366 350 325 353.5 c 0
 283.5 357 254 319.5 245 280.5 c 1
 216.5 273 l 1
 234 375.5 290.5 469.5 408 470.5 c 0
 522 471.5 561 398 546 298 c 1
 495.5 0 l 1
 314.5 0 l 1
 364.5 280 l 2
EndSplineSet
EndChar

StartChar: m
Encoding: 109 109 37
Width: 808
VWidth: 0
Flags: HMW
LayerCount: 2
Fore
SplineSet
337 280.5 m 2
 340 315 339.5 350 305 353.5 c 0
 270 357.5 243.5 317.5 236.5 280.5 c 1
 208.5 273 l 1
 226 374.5 282.5 469.5 394.5 470.5 c 0
 502.5 471.5 523.5 403 511.5 306.5 c 2
 459.5 0 l 1
 286.5 0 l 1
 337 280.5 l 2
268 460 m 1
 189 0 l 1
 24 0 l 1
 103 460 l 1
 268 460 l 1
781 298 m 2
 731 0 l 1
 557.5 0 l 1
 608 280 l 2
 611.5 314.5 610 350 575.5 353.5 c 0
 540.5 357.5 514 317.5 507 280.5 c 1
 453 273 l 1
 473 376.5 551 470 665 470.5 c 0
 774.5 471 793.5 394.5 781 298 c 2
EndSplineSet
EndChar

StartChar: k
Encoding: 107 107 38
Width: 602
VWidth: 0
Flags: HMW
LayerCount: 2
Fore
SplineSet
156.5 780 m 1
 322 780 l 1
 188 0 l 1
 23.5 0 l 1
 156.5 780 l 1
422.5 459.5 m 1
 633 459.5 l 1
 403.5 265.5 l 1
 566 0 l 1
 373.5 0 l 1
 204.5 274.5 l 1
 422.5 459.5 l 1
EndSplineSet
EndChar

StartChar: u
Encoding: 117 117 39
Width: 573
VWidth: 0
Flags: HMW
LayerCount: 2
Fore
SplineSet
322 0 m 1
 401.5 460 l 1
 575 460 l 1
 495.5 0 l 1
 322 0 l 1
234 180 m 1
 230.5 143 232 110 273 106.5 c 0
 314.5 103 344.5 140.5 353.5 179.5 c 1
 381.5 187 l 1
 364 84.5 307.5 -9.5 190 -10.5 c 0
 76 -11.5 39.5 61 52.5 162 c 1
 103 460 l 1
 284 460 l 1
 234 180 l 1
EndSplineSet
EndChar

StartChar: e
Encoding: 101 101 40
Width: 572
VWidth: 0
Flags: HMW
LayerCount: 2
Fore
SplineSet
141.5 194 m 1
 154.5 284 l 1
 392 284 l 1
 389.5 323.5 373 355.5 328.5 355.5 c 0
 269.5 355.5 233 308 222.5 251.5 c 1
 217 229.5 l 1
 209 164.5 231.5 115.5 289 112.5 c 0
 333.5 110.5 368.5 132.5 392 162 c 1
 544 127.5 l 1
 488.5 45.5 405.5 -10 284.5 -10 c 0
 128 -10 30 89 48.5 230 c 0
 50.5 247 54 263.5 59 279.5 c 0
 95 395.5 202 470 341.5 470 c 0
 489.5 470 576.5 379 560 238 c 0
 558 226.5 556 210.5 552.5 194 c 1
 141.5 194 l 1
EndSplineSet
EndChar

StartChar: g
Encoding: 103 103 41
Width: 604
VWidth: 0
Flags: HMW
LayerCount: 2
Fore
SplineSet
4 -33.5 m 1
 167 -34.5 l 1
 171 -81.5 192.5 -104 241 -104.5 c 0
 305.5 -105.5 353.5 -56 363.5 10.5 c 2
 441.5 460 l 1
 606.5 460 l 1
 530 9.5 l 2
 504.5 -154.5 391.5 -241.5 237.5 -242 c 0
 77.5 -242.5 5.5 -162.5 4 -33.5 c 1
42 238.5 m 0
 60 376.5 167.5 470 286.5 470 c 0
 409 470 464.5 364.5 448.5 238 c 0
 431.5 106.5 340 6.5 218.5 6.5 c 0
 99.5 6.5 25.5 105.5 42 238.5 c 0
223 237.5 m 0
 215.5 185 244 145.5 295 144 c 0
 344 142.5 396 183 404 239 c 0
 411.5 293 382.5 332 335 332.5 c 0
 278.5 333 231 292 223 237.5 c 0
EndSplineSet
EndChar

StartChar: f
Encoding: 102 102 42
Width: 351
VWidth: 0
Flags: HMW
LayerCount: 2
Fore
SplineSet
61 460 m 1
 395.5 460 l 1
 370.5 318.5 l 1
 36 318.5 l 1
 61 460 l 1
406 619 m 1
 395 632.5 383 643.5 366 644 c 0
 335 644.5 312.5 616.5 307.5 582.5 c 2
 206.5 0 l 1
 41.5 0 l 1
 148.5 630.5 l 2
 166.5 729 240 798 355.5 797.5 c 0
 419.5 797.5 458 769.5 488.5 742.5 c 1
 406 619 l 1
EndSplineSet
EndChar

StartChar: s
Encoding: 115 115 43
Width: 457
VWidth: 0
Flags: HMW
LayerCount: 2
Fore
SplineSet
84.5 178.5 m 1
 142.75 132.25 192 100.5 231.75 103.5 c 0
 251.25 104.5 270.5 116.25 272.5 132.5 c 0
 276.5 164 228.25 175 191.5 189 c 0
 127 213.75 74.75 257.5 84.25 337 c 0
 96.25 421 179 469 275.25 469.5 c 0
 350.75 470 415.25 442.5 471.75 407.25 c 1
 406.5 293.75 l 1
 369.5 327 326.25 354 285.25 354 c 0
 262.25 354 242.75 344.5 239.75 329.75 c 0
 233.25 297.25 295 287 335.25 271.25 c 0
 397.75 246.5 449.25 206.75 441.25 129 c 0
 429.25 29.5 353 -21 247.25 -22 c 0
 153.5 -23 75 12.5 7.5 61.75 c 1
 84.5 178.5 l 1
EndSplineSet
EndChar

StartChar: y
Encoding: 121 121 44
Width: 530
VWidth: 0
Flags: HMW
LayerCount: 2
Fore
SplineSet
599 459.5 m 1
 191 -219.5 l 1
 16 -219.5 l 1
 167 32.5 l 1
 40.5 460 l 1
 222.5 460 l 1
 304.5 87.5 l 1
 211.5 88.5 l 1
 420 459.5 l 1
 599 459.5 l 1
EndSplineSet
EndChar

StartChar: w
Encoding: 119 119 45
Width: 763
VWidth: 0
Flags: HMW
LayerCount: 2
Fore
SplineSet
41.5 460 m 1
 215.5 460 l 1
 264.428 249.3405 l 1
 437.5 497.5 l 1
 525.989 247.6395 l 1
 648.5 459.5 l 1
 831 459.5 l 1
 503.5 -28.5 l 1
 395.581 224.3515 l 1
 200.5 -28.5 l 1
 41.5 460 l 1
EndSplineSet
EndChar

StartChar: v
Encoding: 118 118 46
Width: 538
VWidth: 0
Flags: HMW
LayerCount: 2
Fore
SplineSet
50.5 460 m 1
 231 460 l 1
 288 231.5 l 1
 416.5 459.5 l 1
 601 459.5 l 1
 245 -62.5 l 1
 50.5 460 l 1
EndSplineSet
EndChar

StartChar: x
Encoding: 120 120 47
Width: 551
VWidth: 0
Flags: HMW
LayerCount: 2
Fore
SplineSet
404.5 460 m 1
 600.5 460 l 1
 384 232 l 1
 533 0 l 1
 349 0 l 1
 279 123.5 l 1
 182.5 0 l 1
 -21.5 0 l 1
 206 244.5 l 1
 65.5 460 l 1
 257.5 460 l 1
 314 354 l 1
 404.5 460 l 1
EndSplineSet
EndChar

StartChar: z
Encoding: 122 122 48
Width: 526
VWidth: 0
Flags: HMW
LayerCount: 2
Fore
SplineSet
254.5 302.5 m 1
 82.5 302.5 l 1
 110 459.5 l 1
 568 459.5 l 1
 311.5 157.5 l 1
 479 157.5 l 1
 451 0 l 1
 -17 0 l 1
 254.5 302.5 l 1
EndSplineSet
EndChar

StartChar: j
Encoding: 106 106 49
Width: 270
VWidth: 0
Flags: HMW
LayerCount: 2
Fore
SplineSet
115.5 626 m 0
 115.5 680.5 160 717 214.5 717 c 0
 269 717 313.5 680.5 313.5 626 c 0
 313.5 571.5 269 535.5 214.5 535.5 c 0
 160 535.5 115.5 571.5 115.5 626 c 0
-79.5 -65.5 m 1
 -68.5 -79 -54.5 -90.5 -36 -90.5 c 0
 -5.5 -91 15.5 -62 19.5 -29 c 2
 104 460 l 1
 269 460 l 1
 178 -77 l 2
 160 -175.5 87.5 -244.5 -28 -244 c 0
 -92 -244 -131.5 -216 -162 -189 c 1
 -79.5 -65.5 l 1
EndSplineSet
EndChar

StartChar: P
Encoding: 80 80 50
Width: 627
VWidth: 0
Flags: HMW
LayerCount: 2
Fore
SplineSet
160.5 700 m 1
 355 700 l 1
 234 0 l 1
 41 0 l 1
 160.5 700 l 1
255.5 541.5 m 1
 283 700 l 1
 409 700 l 2
 576 698.5 665.5 613.5 651 465 c 0
 636 314 512 231.5 340 230 c 2
 201.5 230 l 1
 230 389 l 1
 356.5 389 l 2
 411.5 389.5 457 415.5 466 465.5 c 0
 474 513 444 540.5 391.5 541 c 2
 255.5 541.5 l 1
EndSplineSet
EndChar

StartChar: U
Encoding: 85 85 51
Width: 703
VWidth: 0
Flags: HMW
LayerCount: 2
Fore
SplineSet
155.5 700 m 1
 350.5 700 l 1
 271 246.5 l 2
 264 191.5 280.5 142.5 344.5 141 c 0
 411 139.5 450.5 188.5 461 247 c 1
 539.5 700 l 1
 733 700 l 1
 653.5 230 l 2
 625.5 57.5 492.5 -34.5 324.5 -34.5 c 0
 164 -34.5 53 59 76 230 c 1
 155.5 700 l 1
EndSplineSet
EndChar

StartChar: S
Encoding: 83 83 52
Width: 630
VWidth: 0
Flags: HMW
LayerCount: 2
Fore
SplineSet
175 259 m 1
 209.5 190.5 246 143 315.5 143.5 c 0
 357 143.5 392.5 160.5 400 197 c 0
 411 248 343.5 265.5 286.5 290 c 0
 208 325.5 116 392.5 131 514.5 c 0
 150.5 641.5 277 718.5 419 718 c 0
 553 717.5 626.5 646.5 656.5 562 c 1
 503.5 481.5 l 1
 480.5 525.5 452 554 405 554 c 0
 369.5 554 333.5 536 327 507.5 c 0
 316 461.5 406.5 440 462.5 418.5 c 0
 560.5 380.5 618.5 305 604 197.5 c 0
 583 52 454 -27 296.5 -26.5 c 0
 170 -26 65.5 49 30 164 c 1
 175 259 l 1
EndSplineSet
EndChar

StartChar: at
Encoding: 64 64 53
Width: 747
VWidth: 0
Flags: HMW
LayerCount: 2
Fore
SplineSet
349.5 319.5 m 0
 346.5 292.5 349 263 369 259.5 c 0
 402 252.5 442.5 320.5 447.5 362 c 0
 450 391 449 419.5 427.5 423 c 0
 391.5 430 354.5 359.5 349.5 319.5 c 0
216 311.5 m 0
 229 425.5 310 531.5 401.5 530 c 0
 477 529 505.5 445.5 497 370.5 c 0
 485 256.5 413.5 152.5 322 152.5 c 0
 235.5 152.5 206 227.5 216 311.5 c 0
37.5 320 m 0
 71 540 262.5 727 494 727 c 0
 696.5 727 802 556.5 776.5 390 c 0
 759 244.5 661.5 136.5 545 139.5 c 0
 471 141 438 196 445 261.5 c 1
 437 303.5 l 1
 493 520 l 1
 619.5 520 l 1
 563.5 313 l 2
 561 305 559 295 557 286 c 0
 555.5 269.5 555 252.5 569.5 249.5 c 0
 603 239 646.5 318.5 651.5 390.5 c 0
 670 504 626.5 616 486 616 c 0
 315 616 190.5 481.5 163 320 c 0
 140.5 186 195.5 80 350 78.5 c 0
 417.5 78 478.5 95.5 536.5 119.5 c 1
 563.5 19 l 1
 497.5 -13.5 416 -32 327 -31.5 c 0
 111.5 -30 9 130.5 37.5 320 c 0
EndSplineSet
EndChar

StartChar: period
Encoding: 46 46 54
Width: 319
VWidth: 0
Flags: HMW
LayerCount: 2
Fore
SplineSet
43 77 m 0
 43 134 87 182 150 182 c 0
 213 182 257.5 134 257.5 77 c 0
 257.5 20 213 -27.5 150 -27.5 c 0
 87 -27.5 43 20 43 77 c 0
EndSplineSet
EndChar

StartChar: comma
Encoding: 44 44 55
Width: 318
VWidth: 0
Flags: HMW
LayerCount: 2
Fore
SplineSet
96.5 109 m 1
 266.5 75 l 1
 97.5 -172 l 1
 -33 -147 l 1
 96.5 109 l 1
EndSplineSet
EndChar

StartChar: colon
Encoding: 58 58 56
Width: 319
VWidth: 0
Flags: HMW
LayerCount: 2
Fore
SplineSet
39 77 m 0
 39 134 83 182 146 182 c 0
 209 182 253.5 134 253.5 77 c 0
 253.5 20 209 -27.5 146 -27.5 c 0
 83 -27.5 39 20 39 77 c 0
102 448.5 m 0
 102 505.5 146.5 553 209.5 553 c 0
 272.5 553 317 505.5 317 448.5 c 0
 317 391.5 272.5 344 209.5 344 c 0
 146.5 344 102 391.5 102 448.5 c 0
EndSplineSet
EndChar

StartChar: semicolon
Encoding: 59 59 57
Width: 401
VWidth: 0
Flags: HMW
LayerCount: 2
Fore
SplineSet
158 440 m 0
 158 497 202.5 545 265.5 545 c 0
 328.5 545 373 497 373 440 c 0
 373 383 328.5 335.5 265.5 335.5 c 0
 202.5 335.5 158 383 158 440 c 0
124.5 109 m 1
 295 75 l 1
 126 -172 l 1
 -5 -147 l 1
 124.5 109 l 1
EndSplineSet
EndChar

StartChar: quotedbl
Encoding: 34 34 58
Width: 519
VWidth: 0
Flags: HMW
LayerCount: 2
Fore
SplineSet
183 700 m 1
 364.5 699.5 l 1
 206.5 376 l 1
 92 375.5 l 1
 183 700 l 1
398 700 m 1
 579.5 699.5 l 1
 421 376 l 1
 306.5 375.5 l 1
 398 700 l 1
EndSplineSet
EndChar

StartChar: exclam
Encoding: 33 33 59
Width: 346
VWidth: 0
Flags: HMW
LayerCount: 2
Fore
SplineSet
161 700 m 1
 373 700 l 1
 259.5 241 l 1
 116.5 241 l 1
 161 700 l 1
52 69 m 0
 52 126 96.5 165.5 159.5 165.5 c 0
 222.5 165.5 266.5 126 266.5 69 c 0
 266.5 12 222.5 -27.5 159.5 -27.5 c 0
 96.5 -27.5 52 12 52 69 c 0
EndSplineSet
EndChar

StartChar: quotesingle
Encoding: 39 39 60
Width: 304
VWidth: 0
Flags: HMW
LayerCount: 2
Fore
SplineSet
183 700 m 1
 364.5 699.5 l 1
 206.5 376 l 1
 92 375.5 l 1
 183 700 l 1
EndSplineSet
EndChar

StartChar: numbersign
Encoding: 35 35 61
Width: 667
VWidth: 0
Flags: HMW
LayerCount: 2
Fore
SplineSet
115.5 403.5 m 1
 137.5 542.5 l 1
 700.5 542.5 l 1
 676.5 403 l 1
 525 403 l 1
 493.5 411 l 1
 291.5 411 l 1
 260.5 403 l 1
 115.5 403.5 l 1
32.5 163 m 1
 57.5 302.5 l 1
 193 302.5 l 1
 228 294.5 l 1
 460.5 294.5 l 1
 494 302.5 l 1
 621 302.5 l 1
 596.5 163 l 1
 32.5 163 l 1
554 699.5 m 1
 707 699.5 l 1
 421.5 0 l 1
 270.5 0 l 1
 361.5 223 l 1
 380.5 250.5 l 1
 463.5 454 l 1
 469.5 490.5 l 1
 554 699.5 l 1
311 700 m 1
 462.5 699.5 l 1
 376.5 490 l 1
 353 452.5 l 1
 272 253.5 l 1
 269 225.5 l 1
 177 0 l 1
 26.5 0 l 1
 311 700 l 1
EndSplineSet
EndChar

StartChar: hyphen
Encoding: 45 45 62
Width: 219
VWidth: 0
Flags: HMW
LayerCount: 2
Fore
SplineSet
3.5 163 m 1
 30 312.5 l 1
 244 312.5 l 1
 217.5 163 l 1
 3.5 163 l 1
EndSplineSet
EndChar

StartChar: dollar
Encoding: 36 36 63
Width: 616
VWidth: 0
Flags: HMW
LayerCount: 2
Fore
SplineSet
363 818 m 1
 502.5 818 l 1
 463.5 627 l 1
 341 627 l 1
 363 818 l 1
255.5 66 m 1
 378 66 l 1
 357.5 -112 l 1
 219 -112 l 1
 255.5 66 l 1
499 481.5 m 1
 477.5 530.5 448.5 570.5 401.5 570.5 c 0
 361.5 570.5 331 545.5 325 516.5 c 0
 313 459.5 400 443.5 461 419.5 c 0
 557.5 381.5 618 305 604.5 197.5 c 0
 585 58.5 453.5 -11 299 -10 c 0
 175.5 -9 73 66.5 32 164 c 1
 175 259 l 1
 210.5 190.5 247.5 143 317.5 143.5 c 0
 361 143.5 395 161.5 401.5 199 c 0
 410.5 248 343.5 267 285.5 291 c 0
 206 325.5 113 396 127 516 c 0
 144 630.5 270 709.5 407.5 710 c 0
 538 710.5 607.5 649 651.5 562 c 1
 499 481.5 l 1
EndSplineSet
EndChar

StartChar: bar
Encoding: 124 124 64
Width: 366
VWidth: 0
Flags: HMW
LayerCount: 2
Fore
SplineSet
199.5 785 m 1
 375 785 l 1
 221 -215 l 1
 45 -215 l 1
 199.5 785 l 1
EndSplineSet
EndChar

StartChar: zero
Encoding: 48 48 65
Width: 662
VWidth: 0
Flags: HMW
LayerCount: 2
Fore
SplineSet
255.5 350 m 0
 246.5 264.5 246.5 156 325 153.5 c 0
 405 151 459.5 253.5 472.5 350 c 0
 481.5 435.5 480.5 544 402 546.5 c 0
 322 549 268.5 446.5 255.5 350 c 0
70 350 m 0
 98 555 230 714 420 714 c 0
 616.5 714 682.5 545 658 350 c 0
 630 144 502 -14.5 307 -14 c 0
 116 -13.5 45.5 155.5 70 350 c 0
EndSplineSet
Substitution2: "Tabular Numbers lookup" uniFF10
EndChar

StartChar: one
Encoding: 49 49 66
Width: 512
VWidth: 0
Flags: HMW
LayerCount: 2
Fore
SplineSet
113 475 m 1
 143.5 644.5 l 1
 516.5 715.5 l 1
 393.5 0 l 1
 207.5 0 l 1
 295.5 516.5 l 1
 113 475 l 1
EndSplineSet
Substitution2: "Tabular Numbers lookup" uniFF11
EndChar

StartChar: two
Encoding: 50 50 67
Width: 664
VWidth: 0
Flags: HMW
LayerCount: 2
Fore
SplineSet
-2 0 m 1
 342.5 313 l 2
 397.5 366 455.5 410 464.5 472 c 0
 469.5 510.5 450.5 547 401 548 c 0
 340.5 550 301.5 492.5 290 435.5 c 1
 100.5 436 l 1
 126 588 241.5 715.5 424 715 c 0
 578 715 684.5 609.5 666 484 c 0
 655.5 406.5 603 346.5 539.5 298.5 c 2
 383.5 180 l 1
 640 179.5 l 1
 612 0 l 1
 -2 0 l 1
EndSplineSet
Substitution2: "Tabular Numbers lookup" uniFF12
EndChar

StartChar: four
Encoding: 52 52 68
Width: 714
VWidth: 0
Flags: HMW
LayerCount: 2
Fore
SplineSet
0.5 120 m 1
 500 699.5 l 1
 656.5 700 l 1
 537 0 l 1
 334 0 l 1
 364 176.5 l 1
 389.5 188 l 1
 430.5 427.5 l 1
 276.5 257 l 1
 516.5 257 l 1
 538.5 285.5 l 1
 693 285.5 l 1
 663.5 119.5 l 1
 0.5 120 l 1
EndSplineSet
Substitution2: "Tabular Numbers lookup" uniFF14
EndChar

StartChar: slash
Encoding: 47 47 69
Width: 619
VWidth: 0
Flags: HMW
LayerCount: 2
Fore
SplineSet
532 699.5 m 1
 702.5 699.5 l 1
 135 -149.5 l 1
 -42 -149.5 l 1
 532 699.5 l 1
EndSplineSet
EndChar

StartChar: backslash
Encoding: 92 92 70
Width: 539
VWidth: 0
Flags: HMW
LayerCount: 2
Fore
SplineSet
107.5 700 m 1
 269 700 l 1
 497 0 l 1
 336.5 0 l 1
 107.5 700 l 1
EndSplineSet
EndChar

StartChar: eight
Encoding: 56 56 71
Width: 633
VWidth: 0
Flags: HMW
LayerCount: 2
Fore
SplineSet
136 531.5 m 0
 154 655 280 718 407 718 c 0
 528.5 718 643.5 654.5 625.5 530.5 c 0
 608 402 471 338 353.5 338 c 0
 241 338 118.5 403.5 136 531.5 c 0
313 511.5 m 0
 308 477 325.5 443.5 362.5 443.5 c 0
 404.5 443.5 437 476.5 442.5 513 c 0
 447.5 548 429.5 580.5 392.5 580.5 c 0
 350 580.5 318.5 548.5 313 511.5 c 0
53.5 190.5 m 0
 73 335 229 398 352.5 398 c 0
 469.5 398 611.5 334 592 189.5 c 0
 572.5 55.5 429 -18 292.5 -18 c 0
 162.5 -18 34 56.5 53.5 190.5 c 0
251.5 219.5 m 0
 245 175.5 266.5 140 310.5 140 c 0
 359.5 140 397.5 174.5 404.5 221.5 c 0
 410 260 387 297 344.5 297 c 0
 296.5 297 259 260 251.5 219.5 c 0
EndSplineSet
Substitution2: "Tabular Numbers lookup" uniFF18
EndChar

StartChar: nine
Encoding: 57 57 72
Width: 678
VWidth: 0
Flags: HMW
LayerCount: 2
Fore
SplineSet
493 450 m 0
 501.5 506 468.5 550.5 411 551.5 c 0
 352 552.5 300 507.5 291 449 c 0
 282.5 393.5 314.5 346.5 372 345.5 c 0
 431 344.5 484 391.5 493 450 c 0
343 4.5 m 1
 92 4.5 l 1
 352.5 244 l 1
 402 265 l 1
 363.5 235 326 224.5 278 224.5 c 0
 165.5 224.5 85 317.5 99 449.5 c 0
 119.5 619 265 718 428 718 c 0
 587.5 718 706 616.5 684.5 449.5 c 0
 673 366 621 298.5 563.5 238 c 2
 343 4.5 l 1
EndSplineSet
Substitution2: "Tabular Numbers lookup" uniFF19
EndChar

StartChar: three
Encoding: 51 51 73
Width: 625
VWidth: 0
Flags: HMW
LayerCount: 2
Fore
SplineSet
308.5 337 m 1
 320 419.5 l 1
 381.5 423.5 450 452 456 504.5 c 0
 459 536.5 439 559.5 400 560 c 0
 352 561.5 318.5 525 307 485 c 1
 129 486 l 1
 153 617 262.5 713.5 415 714 c 0
 556.5 714.5 665 638 647.5 517 c 0
 627 376 462.5 338.5 308.5 337 c 1
304 -18 m 0
 139 -17 48 99 59 235 c 1
 247.5 234.5 l 1
 245 175.5 271.5 139 326.5 137 c 0
 376 135.5 422 162.5 429.5 213 c 0
 442 274 382 297.5 303.5 300 c 1
 316.5 395.5 l 1
 477.5 393.5 638 347 616.5 193 c 0
 598 60 465 -19 304 -18 c 0
EndSplineSet
Substitution2: "Tabular Numbers lookup" uniFF13
EndChar

StartChar: five
Encoding: 53 53 74
Width: 651
VWidth: 0
Flags: HMW
LayerCount: 2
Fore
SplineSet
631.5 221.5 m 0
 611 63 454 -13 313 -14 c 0
 200 -14.5 111 17.5 36.5 59.5 c 1
 121 226.5 l 1
 174.5 188 233 166 283.5 165.5 c 0
 351 165.5 415 186.5 424 247 c 0
 432.5 305.5 369 322 316 323 c 0
 255.5 324 178.5 312 109 286.5 c 1
 266.5 700 l 1
 688 700 l 1
 660.5 530 l 1
 384.5 530.5 l 1
 326.5 424 l 1
 365.5 441 407.5 448.5 452.5 448 c 0
 568.5 446 646.5 350.5 631.5 221.5 c 0
EndSplineSet
Substitution2: "Tabular Numbers lookup" uniFF15
EndChar

StartChar: six
Encoding: 54 54 75
Width: 678
VWidth: 0
Flags: HMW
LayerCount: 2
Fore
SplineSet
260.5 250 m 0
 252 194 284.5 149.5 342 148.5 c 0
 401 147.5 453.5 192.5 462.5 251 c 0
 471 306.5 438.5 353.5 381 354.5 c 0
 322 355.5 269.5 308.5 260.5 250 c 0
410 695.5 m 1
 661.5 695.5 l 1
 401 456 l 1
 351 435 l 1
 389.5 465 427 475.5 475 475.5 c 0
 587.5 475.5 668 382.5 654 250.5 c 0
 633.5 81 488 -18 325 -18 c 0
 165.5 -18 47 83.5 68.5 250.5 c 0
 80 334 132 401.5 189.5 462 c 2
 410 695.5 l 1
EndSplineSet
Substitution2: "Tabular Numbers lookup" uniFF16
EndChar

StartChar: seven
Encoding: 55 55 76
Width: 609
VWidth: 0
Flags: HMW
LayerCount: 2
Fore
SplineSet
89 516 m 1
 118.5 699.5 l 1
 703.5 699.5 l 1
 265.5 0 l 1
 52 0 l 1
 388.5 516 l 1
 89 516 l 1
EndSplineSet
Substitution2: "Tabular Numbers lookup" uniFF17
EndChar

StartChar: plus
Encoding: 43 43 77
Width: 673
VWidth: 0
Flags: HMW
LayerCount: 2
Fore
SplineSet
66.5 190 m 1
 96 357 l 1
 646.5 357 l 1
 617 190 l 1
 66.5 190 l 1
315 553.5 m 1
 494 553.5 l 1
 397 -6.5 l 1
 218.5 -6.5 l 1
 315 553.5 l 1
EndSplineSet
EndChar

StartChar: equal
Encoding: 61 61 78
Width: 610
VWidth: 0
Flags: HMW
LayerCount: 2
Fore
SplineSet
33.5 65.5 m 1
 59.5 215 l 1
 571.5 215 l 1
 545 65.5 l 1
 33.5 65.5 l 1
71.5 290 m 1
 98.5 439.5 l 1
 610 439.5 l 1
 583.5 290 l 1
 71.5 290 l 1
EndSplineSet
EndChar

StartChar: percent
Encoding: 37 37 79
Width: 945
VWidth: 0
Flags: HMW
LayerCount: 2
Fore
SplineSet
79 530 m 0
 93.5 634 192 722 302.5 722 c 0
 411.5 722 483.5 630.5 469.5 529 c 0
 455 425 357.5 337 247 337 c 0
 138 337 65 428.5 79 530 c 0
219 528 m 0
 216 501.5 233 473 266.5 473 c 0
 297 473 326 501.5 330 530.5 c 0
 333 557 317 585.5 283.5 585.5 c 0
 253 585.5 223 557 219 528 c 0
541.5 172 m 0
 556 276 653.5 364.5 764 364.5 c 0
 873 364.5 945.5 272.5 931.5 171 c 0
 917 67 819.5 -21.5 709 -21.5 c 0
 600 -21.5 527.5 70.5 541.5 172 c 0
681 170 m 0
 677.5 143.5 697.5 115.5 726.5 115.5 c 0
 757 115.5 786 140 792 173 c 0
 795.5 199.5 776.5 227.5 747.5 227.5 c 0
 717 227.5 687 203 681 170 c 0
746.5 699.5 m 1
 933.5 699.5 l 1
 264 0 l 1
 78 0 l 1
 746.5 699.5 l 1
EndSplineSet
EndChar

StartChar: ampersand
Encoding: 38 38 80
Width: 754
VWidth: 0
Flags: HMW
LayerCount: 2
Fore
SplineSet
258 367.5 m 2
 217.5 422 181.5 474.5 190 540 c 0
 204.5 638.5 311 719 437.5 719 c 0
 555.5 719 636.5 639.5 623.5 545.5 c 0
 610.5 443 523 398 419.5 335.5 c 0
 352.5 296 243 282.5 231 205 c 0
 224 163.5 253.5 133.5 305.5 131.5 c 0
 427.5 125 545 244.5 624.5 348.5 c 1
 726 257.5 l 1
 623.5 129 465 -15 267.5 -14 c 0
 139.5 -13.5 32.5 62.5 49.5 189.5 c 0
 69 343.5 242 380 338 421 c 0
 398 447.5 462.5 483.5 468 528.5 c 0
 470.5 553 452.5 581.5 417.5 581.5 c 0
 381 581.5 357 557 351.5 527 c 0
 344 483.5 381.5 441 421.5 391.5 c 2
 720 0 l 1
 532 0 l 1
 258 367.5 l 2
EndSplineSet
EndChar

StartChar: question
Encoding: 63 63 81
Width: 630
VWidth: 0
Flags: HMW
LayerCount: 2
Fore
SplineSet
467.5 500.5 m 0
 475 548.5 442 575.5 387 576.5 c 0
 323.5 578.5 259 539 214 489 c 1
 114 590 l 1
 197 668.5 294 723 411.5 722.5 c 0
 541 722 659.5 637.5 640 499.5 c 0
 622 375.7425 506.3065 309.908 397.541 283.239 c 1
 380.5 211 l 1
 237 211 l 1
 246.5 390.5 l 1
 278.5 390.5 l 1
 373.5 392 455 440.5 467.5 500.5 c 0
173.5 65.5 m 0
 173.5 115.5 219.5 156.5 278.5 156.5 c 0
 338 156.5 384 116 384 65.5 c 0
 384 14.5 337.5 -27 278.5 -27 c 0
 219 -27 173.5 14 173.5 65.5 c 0
EndSplineSet
EndChar

StartChar: parenleft
Encoding: 40 40 82
Width: 340
VWidth: 0
Flags: HMW
LayerCount: 2
Fore
SplineSet
278 779.5 m 1
 435 779 l 1
 348.5 628 280 463.5 252 290 c 0
 226.5 126 238.5 -43 286.5 -200.5 c 1
 133.5 -200.5 l 1
 77.5 -43.5 62 125 85.5 290 c 0
 112 464.5 180.5 631.5 278 779.5 c 1
EndSplineSet
EndChar

StartChar: parenright
Encoding: 41 41 83
Width: 340
VWidth: 0
Flags: HMW
LayerCount: 2
Fore
SplineSet
118 -199.5 m 1
 -38.5 -199 l 1
 48 -48 116.5 116.5 144.5 290 c 0
 170 454 158 623 110 780.5 c 1
 263 780.5 l 1
 319 623.5 334 455 310.5 290 c 0
 284 115.5 215.5 -51.5 118 -199.5 c 1
EndSplineSet
EndChar

StartChar: asterisk
Encoding: 42 42 84
Width: 574
VWidth: 0
Flags: HMW
LayerCount: 2
Fore
SplineSet
565.5 605 m 1
 590 451 l 1
 342 410.5 l 1
 329.5 492 l 1
 565.5 605 l 1
517 295.5 m 1
 374 201 l 1
 301 431 l 1
 369 475 l 1
 517 295.5 l 1
220 203.5 m 1
 104.5 301.5 l 1
 305.5 474.5 l 1
 366 425.5 l 1
 220 203.5 l 1
83 453 m 1
 155.5 604 l 1
 358 487.5 l 1
 321.5 412 l 1
 83 453 l 1
298.5 700 m 1
 461 699.5 l 1
 378.5 451.5 l 1
 297.5 451 l 1
 298.5 700 l 1
EndSplineSet
EndChar

StartChar: less
Encoding: 60 60 85
Width: 621
VWidth: 0
Flags: HMW
LayerCount: 2
Fore
SplineSet
317.5 265.5 m 1
 560.5 160.5 l 1
 531.5 -4 l 1
 70 208.5 l 1
 91 327 l 1
 626 539.5 l 1
 594 363 l 1
 317.5 265.5 l 1
EndSplineSet
EndChar

StartChar: greater
Encoding: 62 62 86
Width: 621
VWidth: 0
Flags: HMW
LayerCount: 2
Fore
SplineSet
340.5 266.5 m 1
 97.5 371.5 l 1
 126 535.5 l 1
 587.5 322.5 l 1
 566.5 204 l 1
 32 -8.5 l 1
 63.5 169 l 1
 340.5 266.5 l 1
EndSplineSet
EndChar

StartChar: bracketleft
Encoding: 91 91 87
Width: 371
VWidth: 0
Flags: HMW
LayerCount: 2
Fore
SplineSet
335.5 630.5 m 1
 228 -70.5 l 1
 326 -70.5 l 1
 302 -220 l 1
 32 -220 l 1
 186.5 780 l 1
 456.5 780 l 1
 433 630.5 l 1
 335.5 630.5 l 1
EndSplineSet
EndChar

StartChar: bracketright
Encoding: 93 93 88
Width: 371
VWidth: 0
Flags: HMW
LayerCount: 2
Fore
SplineSet
88.5 -70.5 m 1
 195.5 630.5 l 1
 97.5 630.5 l 1
 121 780 l 1
 391.5 780 l 1
 237 -220 l 1
 -33.5 -220 l 1
 -9.5 -70.5 l 1
 88.5 -70.5 l 1
EndSplineSet
EndChar

StartChar: asciicircum
Encoding: 94 94 89
Width: 494
VWidth: 0
Flags: HMW
LayerCount: 2
Fore
SplineSet
319.5 564 m 1
 233 444 l 1
 74.5 444 l 1
 286 709.5 l 1
 391.5 710 l 1
 511.5 443.5 l 1
 363.5 443.5 l 1
 319.5 564 l 1
EndSplineSet
EndChar

StartChar: underscore
Encoding: 95 95 90
Width: 524
VWidth: 0
Flags: HMW
LayerCount: 2
Fore
SplineSet
-56.5 -160.5 m 1
 -37 -51 l 1
 491 -51 l 1
 471.5 -160.5 l 1
 -56.5 -160.5 l 1
EndSplineSet
EndChar

StartChar: grave
Encoding: 96 96 91
Width: 363
VWidth: 0
Flags: HMW
LayerCount: 2
Fore
SplineSet
128 654.5 m 1
 258.5 708.5 l 1
 382 545.5 l 1
 283 502 l 1
 128 654.5 l 1
EndSplineSet
EndChar

StartChar: braceleft
Encoding: 123 123 92
Width: 413
VWidth: 0
Flags: HMW
LayerCount: 2
Fore
SplineSet
362 593.5 m 2
 346 489.5 l 2
 327.5 387.5 298 289.5 161 280.5 c 1
 163.5 300.5 l 1
 297 289 297.5 183.5 282.5 89.5 c 2
 266 -14 l 2
 261.5 -41 273.5 -62.5 303 -63 c 2
 339 -63.5 l 1
 319 -199.5 l 1
 224.5 -200 l 2
 136.5 -199 54.5 -155 68.5 -60 c 2
 95.5 117 l 2
 103 180.5 95.5 207.5 49.5 227 c 1
 67.5 352.5 l 1
 116.5 369.5 137.5 398.5 147 463.5 c 2
 174 640.5 l 2
 188.5 735.5 273.5 778.5 365.5 780 c 2
 470 780 l 1
 450 644 l 1
 417.5 644 l 2
 387.5 644 366.5 621.5 362 593.5 c 2
EndSplineSet
EndChar

StartChar: braceright
Encoding: 125 125 93
Width: 413
VWidth: 0
Flags: HMW
LayerCount: 2
Fore
SplineSet
109 -13.5 m 2
 125 90.5 l 2
 143.5 192.5 172.5 290.5 309.5 299.5 c 1
 307.5 279.5 l 1
 174 291 173 396.5 188 490.5 c 2
 204.5 594 l 2
 209 620.5 196.5 642.5 167.5 643 c 2
 132 643.5 l 1
 152 780 l 1
 246.5 780 l 2
 334.5 778.5 416 735 402 640 c 2
 375 463 l 2
 367.5 399.5 375 372.5 421 353 c 1
 403 227.5 l 1
 354 210.5 332.5 181.5 323 116.5 c 2
 296.5 -60.5 l 2
 282.5 -156 197 -198.5 105 -200 c 2
 0.5 -200 l 1
 20.5 -64 l 1
 53 -64 l 2
 83 -64 104.5 -41.5 109 -13.5 c 2
EndSplineSet
EndChar

StartChar: asciitilde
Encoding: 126 126 94
Width: 558
VWidth: 0
Flags: HMW
LayerCount: 2
Fore
SplineSet
166 158.5 m 1
 35 164 l 1
 34 171.5 33 180 34 188.5 c 0
 38 227 53.5 262.5 80 292 c 0
 112.5 327.5 156.5 353 220.5 352 c 0
 265 351.5 296.5 331.5 336.5 302.5 c 0
 359 287 379 267.5 398 267.5 c 0
 417 267.5 430.5 287.5 434 304 c 0
 436.5 315.5 434.5 330 432.5 341 c 1
 564.5 334.5 l 1
 565.5 325.5 566.5 315.5 565.5 306 c 0
 561.5 268.5 549 231.5 522.5 201.5 c 0
 493.5 168 453.5 147 400.5 147.5 c 0
 359 148 325 169 283.5 198 c 0
 259 215 235.5 233.5 211 232.5 c 0
 184 231.5 169 209 164.5 190 c 0
 162 177 164.5 167.5 166 158.5 c 1
EndSplineSet
EndChar

StartChar: exclamdown
Encoding: 161 161 95
Width: 346
VWidth: 0
Flags: HMW
LayerCount: 2
Fore
SplineSet
214 -224.5 m 1
 1.5 -224.5 l 1
 115.5 234.5 l 1
 257.5 234.5 l 1
 214 -224.5 l 1
320.5 406 m 0
 313.5 351 261.5 311 203 311 c 0
 144.5 311 103.5 352 111 408 c 0
 118 463 170 502.5 228.5 502.5 c 0
 287 502.5 328 462 320.5 406 c 0
EndSplineSet
EndChar

StartChar: cent
Encoding: 162 162 96
Width: 562
VWidth: 0
Flags: HMW
LayerCount: 2
Fore
SplineSet
194 38 m 1
 319 38 l 1
 304 -112 l 1
 154.5 -112 l 1
 194 38 l 1
225.5 229.5 m 0
 216 168 254.5 128 312 126.5 c 0
 368 125 413.5 156.5 449 189.5 c 1
 425 23.5 l 1
 386.5 2.5 338.5 -10 282 -10 c 0
 133.5 -9.5 28.5 88 49 230.5 c 0
 70.5 375.5 200.5 469.5 353.5 470 c 0
 409 470 454.5 457 491.5 435.5 c 1
 467 269.5 l 1
 441.5 306.5 408 334.5 356 334.5 c 0
 297 334.5 236 289.5 225.5 229.5 c 0
274.5 578 m 1
 423.5 578 l 1
 385.5 428 l 1
 260.5 428 l 1
 274.5 578 l 1
EndSplineSet
EndChar

StartChar: sterling
Encoding: 163 163 97
Width: 602
VWidth: 0
Flags: HMW
LayerCount: 2
Fore
SplineSet
100 370 m 1
 476.5 370 l 1
 457.5 261.5 l 1
 80 261.5 l 1
 100 370 l 1
471 463 m 1
 472 508.5 463.5 558 400.5 559 c 0
 356 560 315 532.5 306.5 486.5 c 0
 291 413.5 368.5 363.5 358 271.5 c 0
 341.5 159.5 204.5 77.5 113.5 52 c 1
 194 158 l 1
 532.5 158.5 l 1
 504.5 0 l 1
 19 0 l 1
 110.5 95.5 180 185 197.5 299 c 0
 209 385.5 122.5 427 133 522.5 c 0
 149.5 643 282 709.5 408 709.5 c 0
 545 709.5 635.5 623.5 633.5 520 c 1
 471 463 l 1
EndSplineSet
EndChar

StartChar: currency
Encoding: 164 164 98
Width: 558
VWidth: 0
Flags: HMW
LayerCount: 2
Fore
SplineSet
75.5 505 m 1
 151 570 l 1
 233.5 462.5 l 1
 163.5 402.5 l 1
 75.5 505 l 1
65 30.5 m 1
 8 102 l 1
 122.5 198.5 l 1
 177.5 130.5 l 1
 65 30.5 l 1
487.5 402 m 1
 430.5 472 l 1
 545 570 l 1
 600 500.5 l 1
 487.5 402 l 1
372 134.5 m 1
 446.5 198.5 l 1
 529.5 92 l 1
 459.5 31 l 1
 372 134.5 l 1
71 300.5 m 0
 89.5 433 203.5 540 339 540 c 0
 473 540 553.5 428 536 299.5 c 0
 517.5 167 403.5 60 268 60 c 0
 134 60 53.5 172 71 300.5 c 0
223.5 299 m 0
 217 255 239.5 219 286 218 c 0
 334 216.5 376 254.5 383.5 301 c 0
 390 345 367.5 381 321 382 c 0
 273 383.5 231 345.5 223.5 299 c 0
EndSplineSet
EndChar

StartChar: yen
Encoding: 165 165 99
Width: 677
VWidth: 0
Flags: HMW
LayerCount: 2
Fore
SplineSet
58.5 257 m 1
 77.5 365 l 1
 668.5 365 l 1
 649 257 l 1
 58.5 257 l 1
33 107 m 1
 52 215 l 1
 643 215 l 1
 623.5 107 l 1
 33 107 l 1
546 699.5 m 1
 773 699.5 l 1
 457.5 276.5 l 1
 411 0 l 1
 211.5 0 l 1
 262 283.5 l 1
 92.5 700 l 1
 311 700 l 1
 386.5 460.5 l 1
 546 699.5 l 1
EndSplineSet
EndChar

StartChar: brokenbar
Encoding: 166 166 100
Width: 366
VWidth: 0
Flags: HMW
LayerCount: 2
Fore
SplineSet
187.5 695 m 1
 363.5 695 l 1
 316 421.5 l 1
 140 421.5 l 1
 187.5 695 l 1
292.5 278.5 m 1
 244.5 5 l 1
 68.5 5 l 1
 116.5 278.5 l 1
 292.5 278.5 l 1
EndSplineSet
EndChar

StartChar: section
Encoding: 167 167 101
Width: 612
VWidth: 0
Flags: HMW
LayerCount: 2
Fore
SplineSet
486.5 540 m 1
 459.5 565.5 422 587.5 389.5 587 c 0
 366 587 339 576 337.5 560.5 c 0
 335.5 537 387.5 533.5 422 524 c 0
 495 504.5 547.5 452 537.5 379.5 c 0
 521 270 397.5 229.5 290 226.5 c 1
 297.5 269.5 l 1
 332 280 373 298 379.5 338 c 0
 389.5 393 318.5 410 274 429 c 0
 217 454.5 169.5 500.5 178.5 575.5 c 0
 192.5 675 298 727.5 392.5 728 c 0
 467.5 728.5 537 699 575 655 c 1
 486.5 540 l 1
133.5 176.5 m 1
 181.5 136.5 235.5 114 278.5 115 c 0
 304 115.5 329 125 332 142.5 c 0
 336 170 287 177 250.5 187 c 0
 179 206.5 107.5 250 117.5 326.5 c 0
 133 434.5 265 476 373 479 c 1
 366 437.5 l 1
 331 424.5 289.5 408.5 283 368.5 c 0
 273.5 311 355 302 398.5 283 c 0
 461 255 510.5 204.5 500.5 129.5 c 0
 486 25.5 373 -26 274.5 -26.5 c 0
 172.5 -27 100 8.5 44 62 c 1
 133.5 176.5 l 1
EndSplineSet
EndChar

StartChar: dieresis
Encoding: 168 168 102
Width: 508
VWidth: 0
Flags: HMW
LayerCount: 2
Fore
SplineSet
361 624 m 0
 367 675.5 417 713 469 713 c 0
 521.5 713 561.5 674.5 555 622 c 0
 549 570.5 499.5 533 447.5 533 c 0
 395 533 354.5 571.5 361 624 c 0
111 624 m 0
 117 675.5 167 713 219 713 c 0
 271.5 713 312 674.5 305.5 622 c 0
 299.5 570.5 250 533 198 533 c 0
 145.5 533 104.5 571.5 111 624 c 0
EndSplineSet
EndChar

StartChar: copyright
Encoding: 169 169 103
Width: 776
VWidth: 0
Flags: HMW
LayerCount: 2
Fore
SplineSet
333.5 349.5 m 0
 324 286 363.5 243 425.5 241.5 c 0
 480 240.5 521 267 554.5 293.5 c 1
 538.5 170 l 1
 501.5 146.5 463 130 408.5 129.5 c 0
 276 129 189.5 224.5 206 350.5 c 0
 223 479.5 332 571 467 571 c 0
 520 571 556 554.5 591.5 529.5 c 1
 575.5 406 l 1
 550 435.5 518 459 467 459 c 0
 403 459 344 415.5 333.5 349.5 c 0
130.5 350 m 0
 106.5 189.5 201 41.5 372.5 40.5 c 0
 547 39.5 692.5 181 719.5 350 c 0
 743.5 510.5 649 658.5 477.5 659.5 c 0
 303 660.5 157.5 519 130.5 350 c 0
74 350 m 0
 100.5 550 271 710.5 475 710 c 0
 676 709.5 800.5 543.5 776 350 c 0
 749.5 150 578.5 -10.5 374.5 -10 c 0
 173.5 -9.5 49.5 156.5 74 350 c 0
EndSplineSet
EndChar

StartChar: registered
Encoding: 174 174 104
Width: 776
VWidth: 0
Flags: HMW
LayerCount: 2
Fore
SplineSet
407 318 m 1
 507 318 l 1
 587 150 l 1
 455.5 150 l 1
 407 318 l 1
309.5 570 m 1
 426.5 570 l 1
 361 150 l 1
 244 150 l 1
 309.5 570 l 1
367.5 471 m 1
 382.5 569.5 l 1
 467 570 l 1
 563.5 568.5 628 518.5 617 437 c 0
 606 351 534.5 299 433.5 297 c 1
 339 296.5 l 1
 353.5 386 l 1
 430 386.5 l 1
 461 387.5 490.5 401 494.5 430 c 0
 498 457.5 477 470 448.5 471 c 1
 367.5 471 l 1
130.5 350 m 0
 106.5 189.5 201 41.5 372.5 40.5 c 0
 547 39.5 692.5 181 719.5 350 c 0
 743.5 510.5 649 658.5 477.5 659.5 c 0
 303 660.5 157.5 519 130.5 350 c 0
74 350 m 0
 100.5 550 271 710.5 475 710 c 0
 676 709.5 800.5 543.5 776 350 c 0
 749.5 150 578.5 -10.5 374.5 -10 c 0
 173.5 -9.5 49.5 156.5 74 350 c 0
EndSplineSet
EndChar

StartChar: ordfeminine
Encoding: 170 170 105
Width: 272
VWidth: 0
Flags: HMW
LayerCount: 2
Fore
SplineSet
165 529 m 0
 164 517.5 173.5 509.5 186 509.5 c 0
 211.5 509.5 232 526.5 240 553.5 c 1
 243 523.5 l 1
 231.5 483.5 199.5 455.5 152.5 455.5 c 0
 107 455.5 72 483.5 78 527.5 c 0
 84.5 573 134 599 184.5 599.5 c 0
 215 600 243.5 589.5 261 577 c 1
 254.5 538 l 1
 240 548.5 226 556 205 555.5 c 0
 188 555.5 167 544 165 529 c 0
143 617 m 1
 124.5 681 l 1
 156 692.5 193.5 705 233 705 c 0
 289 705 338 681.5 333.5 629 c 1
 305.5 460 l 1
 222 460.5 l 1
 249 603 l 1
 248 620.5 242.5 633.5 220.5 636 c 0
 191.5 639 160 624 143 617 c 1
EndSplineSet
EndChar

StartChar: ordmasculine
Encoding: 186 186 106
Width: 269
VWidth: 0
Flags: HMW
LayerCount: 2
Fore
SplineSet
88 581 m 0
 97.5 651.5 162.5 699.5 236 699.5 c 0
 309.5 699.5 364 650 354 579 c 0
 344.5 508 278.5 460.5 205 460.5 c 0
 131.5 460.5 78 510 88 581 c 0
176.5 579 m 0
 173.5 555 186 532.5 209.5 531.5 c 0
 234 530.5 261.5 554.5 265 581 c 0
 268 605 255 628 231.5 629 c 0
 207 630 180 605.5 176.5 579 c 0
EndSplineSet
EndChar

StartChar: guillemotleft
Encoding: 171 171 107
Width: 534
VWidth: 0
Flags: HMW
LayerCount: 2
Fore
SplineSet
378 255 m 1
 490.5 61.5 l 1
 376.5 -6 l 1
 250.5 260 l 1
 459.5 514 l 1
 557 441 l 1
 378 255 l 1
166.5 255 m 1
 279 61.5 l 1
 165.5 -6 l 1
 39.5 260 l 1
 248.5 514 l 1
 345.5 441 l 1
 166.5 255 l 1
EndSplineSet
EndChar

StartChar: guillemotright
Encoding: 187 187 108
Width: 534
VWidth: 0
Flags: HMW
LayerCount: 2
Fore
SplineSet
190 255 m 1
 77.5 448.5 l 1
 191.5 516 l 1
 317 250 l 1
 108.5 -4 l 1
 11 69 l 1
 190 255 l 1
402 255 m 1
 288.5 448.5 l 1
 402.5 516 l 1
 528.5 250 l 1
 320 -4 l 1
 222 69 l 1
 402 255 l 1
EndSplineSet
EndChar

StartChar: uni00AD
Encoding: 173 173 109
Width: 203
VWidth: 0
Flags: HMW
LayerCount: 2
Fore
SplineSet
13 200.5 m 1
 24.5 275 l 1
 221.5 275 l 1
 209 200.5 l 1
 13 200.5 l 1
EndSplineSet
EndChar

StartChar: logicalnot
Encoding: 172 172 110
Width: 640
VWidth: 0
Flags: HMW
LayerCount: 2
Fore
SplineSet
81.5 263.5 m 1
 105.5 412.5 l 1
 623 412.5 l 1
 581.5 175 l 1
 466 175 l 1
 484.5 263.5 l 1
 81.5 263.5 l 1
EndSplineSet
EndChar

StartChar: macron
Encoding: 175 175 111
Width: 522
VWidth: 0
Flags: HMW
LayerCount: 2
Fore
SplineSet
145.5 563 m 1
 169 712.5 l 1
 540 712.5 l 1
 516 563 l 1
 145.5 563 l 1
EndSplineSet
EndChar

StartChar: degree
Encoding: 176 176 112
Width: 293
VWidth: 0
Flags: HMW
LayerCount: 2
Fore
SplineSet
88.5 597 m 0
 98 667.5 163 719.5 237 719.5 c 0
 311 719.5 364 666 354 595 c 0
 344.5 524 278.5 472.5 204 472.5 c 0
 130 472.5 78.5 526.5 88.5 597 c 0
172.5 595 m 0
 169.5 570 183 546.5 209 545.5 c 0
 236.5 544.5 265 569.5 269 596.5 c 0
 272 621.5 258 646 232 647 c 0
 204.5 648 176.5 622 172.5 595 c 0
EndSplineSet
EndChar

StartChar: plusminus
Encoding: 177 177 113
Width: 620
VWidth: 0
Flags: HMW
LayerCount: 2
Fore
SplineSet
45.5 8 m 1
 69 154.5 l 1
 566.5 154.5 l 1
 543 8 l 1
 45.5 8 l 1
95 328.5 m 1
 119.5 483 l 1
 617 483 l 1
 592.5 328.5 l 1
 95 328.5 l 1
302 620 m 1
 476 620 l 1
 409 191 l 1
 235.5 191 l 1
 302 620 l 1
EndSplineSet
EndChar

StartChar: uni00B2
Encoding: 178 178 114
Width: 415
VWidth: 0
Flags: HMW
LayerCount: 2
Fore
SplineSet
41 282.5 m 1
 251.5 469.5 l 2
 285.5 500.5 322 529 327.5 566 c 0
 330 587.5 320 609.5 291.5 610.5 c 0
 256 612.5 231.5 576.5 223.5 543.5 c 1
 108.5 544.5 l 1
 127 634 193.5 711.5 303.5 711.5 c 0
 396.5 711.5 459.5 648 448 572.5 c 0
 441.5 526 409.5 490.5 372 461.5 c 2
 277.5 390 l 1
 430 389 l 1
 411 282 l 1
 41 282.5 l 1
EndSplineSet
EndChar

StartChar: uni00B3
Encoding: 179 179 115
Width: 370
VWidth: 0
Flags: HMW
LayerCount: 2
Fore
SplineSet
209 482.5 m 1
 216.5 531.5 l 1
 253.5 535 295.5 552 300.5 584 c 0
 302.5 602 290 615.5 267.5 615.5 c 0
 238.5 615.5 219 595.5 211 572 c 1
 102.5 573 l 1
 120 649.5 183 707.5 275 708 c 0
 359.5 708.5 425.5 662.5 414 590 c 0
 401 506.5 301.5 484.5 209 482.5 c 1
205 269 m 0
 104.5 270 52.5 338.5 57.5 420.5 c 1
 170 420.5 l 1
 170 386.5 183 364.5 215.5 362.5 c 0
 243.5 361 275.5 379 279.5 408 c 0
 286.5 444 249 458 203 460.5 c 1
 212.5 516.5 l 1
 309 514.5 406.5 488 393 395 c 0
 381.5 316 301 268 205 269 c 0
EndSplineSet
EndChar

StartChar: acute
Encoding: 180 180 116
Width: 363
VWidth: 0
Flags: HMW
LayerCount: 2
Fore
SplineSet
399.5 649 m 1
 204.5 502.5 l 1
 110 551.5 l 1
 277.5 707.5 l 1
 399.5 649 l 1
EndSplineSet
EndChar

StartChar: mu
Encoding: 181 181 117
Width: 573
VWidth: 0
Flags: HMW
LayerCount: 2
Fore
SplineSet
322 0 m 1
 401.5 460 l 1
 574.5 460 l 1
 495 0 l 1
 322 0 l 1
234 180 m 1
 230.5 143 232 109.5 273 106 c 0
 314.5 102.5 344.5 140.5 353.5 179.5 c 1
 383.5 187 l 1
 365.5 84 307.5 -10 190 -11 c 0
 76 -12 39.5 60.5 52.5 162 c 1
 103 460 l 1
 284 460 l 1
 234 180 l 1
103 460 m 1
 268 460 l 1
 134 -320 l 1
 -30.5 -320 l 1
 103 460 l 1
EndSplineSet
EndChar

StartChar: paragraph
Encoding: 182 182 118
Width: 680
VWidth: 0
Flags: HMW
LayerCount: 2
Fore
SplineSet
352.5 597.5 m 1
 370.5 700 l 1
 607.5 700 l 1
 589.5 597.5 l 1
 352.5 597.5 l 1
566 700 m 1
 717.5 700 l 1
 560 -220 l 1
 408 -220 l 1
 566 700 l 1
370.5 700 m 1
 522 700 l 1
 364 -220 l 1
 213 -220 l 1
 370.5 700 l 1
301.5 270.5 m 1
 179.5 277 94 355.5 112.5 485.5 c 0
 132.5 621 242.5 700 370.5 700 c 1
 301.5 270.5 l 1
EndSplineSet
EndChar

StartChar: periodcentered
Encoding: 183 183 119
Width: 319
VWidth: 0
Flags: HMW
LayerCount: 2
Fore
SplineSet
74.5 278 m 0
 82 333 134.5 381.5 194 381.5 c 0
 254 381.5 293 331 285.5 276 c 0
 278 221 225.5 173 166 173 c 0
 106 173 67 223 74.5 278 c 0
EndSplineSet
EndChar

StartChar: uni00B9
Encoding: 185 185 120
Width: 472
VWidth: 0
Flags: HMW
LayerCount: 2
Fore
SplineSet
190 558.5 m 1
 208 660.5 l 1
 433 703.5 l 1
 359 274 l 1
 246 274 l 1
 299 583 l 1
 190 558.5 l 1
EndSplineSet
EndChar

StartChar: cedilla
Encoding: 184 184 121
Width: 395
VWidth: 0
Flags: HMW
LayerCount: 2
Fore
SplineSet
156 74 m 1
 286 69.5 l 1
 168.5 -55.5 l 1
 181 -52 195.5 -50 209.5 -50.5 c 0
 258.5 -52.5 300 -95 292.5 -156.5 c 0
 282.5 -229 208 -267.5 141.5 -269 c 0
 83 -270.5 34.5 -256 -15 -228 c 1
 43.5 -153 l 1
 68 -169 100.5 -179 123 -178.5 c 0
 149 -178 184 -166 185.5 -142.5 c 0
 187 -118.5 154 -113.5 132.5 -113 c 0
 111.5 -112 75.5 -117 40 -127 c 1
 156 74 l 1
EndSplineSet
EndChar

StartChar: questiondown
Encoding: 191 191 122
Width: 629
VWidth: 0
Flags: HMW
LayerCount: 2
Fore
SplineSet
228.5 199.5 m 0
 221 151.5 254 124.5 309 123.5 c 0
 373 121.5 437 161 481.5 211 c 1
 581.5 110 l 1
 498.5 31.5 402 -23 284.5 -22.5 c 0
 155.5 -22 36.5 62.5 56 200.5 c 0
 74 323.5 188 390.5 298 416.5 c 1
 315 489 l 1
 459 489 l 1
 449 309.5 l 1
 417.5 309.5 l 1
 322.5 308 241 259.5 228.5 199.5 c 0
518 634.5 m 0
 511 585 457.5 543.5 401 543.5 c 0
 344 543.5 301 586 308 636.5 c 0
 315 686 368 727 424.5 727 c 0
 481.5 727 525 685 518 634.5 c 0
EndSplineSet
EndChar

StartChar: multiply
Encoding: 215 215 123
Width: 578
VWidth: 0
Flags: HMW
LayerCount: 2
Fore
SplineSet
117.5 -3 m 1
 29.5 107.5 l 1
 208 258.5 l 1
 81 411.5 l 1
 199 513.5 l 1
 319.5 358 l 1
 493.5 513 l 1
 582 402.5 l 1
 403 251.5 l 1
 530 98.5 l 1
 412 -3.5 l 1
 292 152 l 1
 117.5 -3 l 1
EndSplineSet
EndChar

StartChar: Oslash
Encoding: 216 216 124
Width: 766
VWidth: 0
Flags: HMW
LayerCount: 2
Fore
SplineSet
266.5 350 m 0
 251 250 291 161.5 398.5 160.5 c 0
 507 159 587.5 243.5 605.5 350 c 0
 621 450 581 538.5 473.5 539.5 c 0
 365 541 284.5 456.5 266.5 350 c 0
62 350 m 0
 94 561.5 274.5 718.5 493 718 c 0
 706.5 717.5 839.5 555 810 350 c 0
 778 138.5 596.5 -27 377 -26.5 c 0
 161.5 -26 32.5 145.5 62 350 c 0
777 757.5 m 1
 846.5 697.5 l 1
 89 -58 l 1
 22 -1.5 l 1
 777 757.5 l 1
EndSplineSet
EndChar

StartChar: Thorn
Encoding: 222 222 125
Width: 613
VWidth: 0
Flags: HMW
LayerCount: 2
Fore
SplineSet
168.5 700 m 1
 334.5 700 l 1
 214.5 0 l 1
 49 0 l 1
 168.5 700 l 1
228 435 m 1
 255.5 584.5 l 1
 381 584.5 l 1
 547 582.5 647 501.5 624 353.5 c 0
 601 205 485 125.5 313.5 123.5 c 1
 175 123.5 l 1
 202.5 273.5 l 1
 328.5 273.5 l 2
 393.5 274.5 444.5 294.5 455.5 354.5 c 0
 466 413.5 426.5 433 365.5 434.5 c 1
 228 435 l 1
EndSplineSet
EndChar

StartChar: divide
Encoding: 247 247 126
Width: 625
VWidth: 0
Flags: HMW
LayerCount: 2
Fore
SplineSet
281 587.5 m 0
 288.5 642.5 340.5 690.5 400 690.5 c 0
 460 690.5 499 640.5 491.5 585.5 c 0
 484 530.5 432 482.5 372.5 482.5 c 0
 312.5 482.5 273.5 532.5 281 587.5 c 0
199 108 m 0
 206.5 163 258.5 211.5 318 211.5 c 0
 378 211.5 416.5 161 409 106 c 0
 401.5 51 350 3 290.5 3 c 0
 230.5 3 191.5 53 199 108 c 0
32 271 m 1
 59.5 425 l 1
 660 425 l 1
 632.5 270.5 l 1
 32 271 l 1
EndSplineSet
EndChar

StartChar: oslash
Encoding: 248 248 127
Width: 529
VWidth: 0
Flags: HMW
LayerCount: 2
Fore
SplineSet
40.5 230.5 m 0
 62 378.5 192.5 470 341 470 c 0
 486 470 590.5 375.5 570 229.5 c 0
 548.5 81.5 418.5 -10 270 -10 c 0
 125 -10 20 84.5 40.5 230.5 c 0
201.5 229.5 m 0
 192 169.5 225 124.5 283 123.5 c 0
 342.5 122 399.5 167 409.5 230.5 c 0
 418 285.5 385 335 328 336.5 c 0
 269.5 338 212 288 201.5 229.5 c 0
501.5 507.5 m 1
 561.5 467.5 l 1
 96 -51.5 l 1
 38 -14 l 1
 501.5 507.5 l 1
EndSplineSet
EndChar

StartChar: circumflex
Encoding: 710 710 128
Width: 465
VWidth: 0
Flags: HMW
LayerCount: 2
Fore
SplineSet
316 623 m 1
 219.5 542 l 1
 109 626 l 1
 331.5 763 l 1
 515 620 l 1
 384.5 541 l 1
 316 623 l 1
EndSplineSet
EndChar

StartChar: ogonek
Encoding: 731 731 129
Width: 252
VWidth: 0
Flags: HMW
LayerCount: 2
Fore
SplineSet
154 -105 m 1
 176.5 -181.5 l 1
 153.5 -202.5 120.5 -220.5 71.5 -220 c 0
 13 -219.5 -36 -182 -29 -119 c 0
 -20.5 -47.5 60.5 -8 127 25 c 1
 167 0 l 1
 124 -27 84 -56 78 -92 c 0
 76.5 -109.5 82 -123 101 -124.5 c 0
 118.5 -126 140 -115 154 -105 c 1
EndSplineSet
EndChar

StartChar: tilde
Encoding: 732 732 130
Width: 514
VWidth: 0
Flags: HMW
LayerCount: 2
Fore
SplineSet
145.5 643 m 1
 166 691 212 741.5 278 740 c 0
 333.5 739 355.5 686 406.5 687.5 c 0
 437 688.5 460.5 714.5 482 741 c 1
 550.5 655.5 l 1
 524 616 464.5 565.5 401 568 c 0
 351 570 316.5 625 268.5 621.5 c 0
 235.5 619 223 589.5 215 571.5 c 1
 145.5 643 l 1
EndSplineSet
EndChar

StartChar: ring
Encoding: 730 730 131
Width: 333
VWidth: 0
Flags: HMW
LayerCount: 2
Fore
SplineSet
140.5 765.5 m 0
 149.5 834.5 214 884.5 285 884.5 c 0
 356 884.5 410 833.5 400.5 763.5 c 0
 391.5 694 324.5 644 253 644 c 0
 182 644 131 696 140.5 765.5 c 0
226 763.5 m 0
 223.5 741 236 720 258.5 719 c 0
 282 718 310 741.5 313.5 765.5 c 0
 316 788 302.5 809.5 280 810.5 c 0
 256.5 811.5 229.5 787.5 226 763.5 c 0
EndSplineSet
EndChar

StartChar: dotaccent
Encoding: 729 729 132
Width: 291
VWidth: 0
Flags: HMW
LayerCount: 2
Fore
SplineSet
161.5 822 m 0
 168.5 873.5 218.5 911 270.5 911 c 0
 323 911 362.5 871.5 355.5 819 c 0
 348.5 767.5 298.5 730.5 246.5 730.5 c 0
 194 730.5 154.5 769.5 161.5 822 c 0
EndSplineSet
EndChar

StartChar: uni2010
Encoding: 8208 8208 133
Width: 219
VWidth: 0
Flags: HMW
LayerCount: 2
Fore
SplineSet
3.5 163 m 1
 30 312.5 l 1
 243.5 312.5 l 1
 217 163 l 1
 3.5 163 l 1
EndSplineSet
EndChar

StartChar: endash
Encoding: 8211 8211 134
Width: 773
VWidth: 0
Flags: HMW
LayerCount: 2
Fore
SplineSet
66.5 163 m 1
 93 312.5 l 1
 726.5 312.5 l 1
 700 163 l 1
 66.5 163 l 1
EndSplineSet
EndChar

StartChar: figuredash
Encoding: 8210 8210 135
Width: 620
VWidth: 0
Flags: HMW
LayerCount: 2
Fore
SplineSet
66.5 163 m 1
 93 312.5 l 1
 569 312.5 l 1
 542.5 163 l 1
 66.5 163 l 1
EndSplineSet
EndChar

StartChar: emdash
Encoding: 8212 8212 136
Width: 927
VWidth: 0
Flags: HMW
LayerCount: 2
Fore
SplineSet
66.5 163 m 1
 93 312.5 l 1
 884 312.5 l 1
 857.5 163 l 1
 66.5 163 l 1
EndSplineSet
EndChar

StartChar: minus
Encoding: 8722 8722 137
Width: 576
VWidth: 0
Flags: HMW
LayerCount: 2
Fore
SplineSet
50.5 163 m 1
 77 312.5 l 1
 553 312.5 l 1
 526.5 163 l 1
 50.5 163 l 1
EndSplineSet
EndChar

StartChar: quoteright
Encoding: 8217 8217 138
Width: 338
VWidth: 0
Flags: HMW
LayerCount: 2
Fore
SplineSet
189 700 m 1
 367.5 699.5 l 1
 220.5 437.5 l 1
 93 437.5 l 1
 189 700 l 1
EndSplineSet
EndChar

StartChar: quoteleft
Encoding: 8216 8216 139
Width: 338
VWidth: 0
Flags: HMW
LayerCount: 2
Fore
SplineSet
289.5 437 m 1
 111 437.5 l 1
 258.5 699.5 l 1
 386 699.5 l 1
 289.5 437 l 1
EndSplineSet
EndChar

StartChar: quotesinglbase
Encoding: 8218 8218 140
Width: 338
VWidth: 0
Flags: HMW
LayerCount: 2
Fore
SplineSet
93 80 m 1
 271.5 79.5 l 1
 124 -182.5 l 1
 -3 -182.5 l 1
 93 80 l 1
EndSplineSet
EndChar

StartChar: quotedblleft
Encoding: 8220 8220 141
Width: 572
VWidth: 0
Flags: HMW
LayerCount: 2
Fore
SplineSet
289.5 437 m 1
 111 437.5 l 1
 258.5 699.5 l 1
 386 699.5 l 1
 289.5 437 l 1
523.5 437 m 1
 345 437.5 l 1
 492.5 699.5 l 1
 620 699.5 l 1
 523.5 437 l 1
EndSplineSet
EndChar

StartChar: quotedblright
Encoding: 8221 8221 142
Width: 572
VWidth: 0
Flags: HMW
LayerCount: 2
Fore
SplineSet
189 700 m 1
 367.5 699.5 l 1
 220.5 437.5 l 1
 93 437.5 l 1
 189 700 l 1
423 700 m 1
 601.5 699.5 l 1
 454.5 437.5 l 1
 327 437.5 l 1
 423 700 l 1
EndSplineSet
EndChar

StartChar: perthousand
Encoding: 8240 8240 143
Width: 1410
VWidth: 0
Flags: HMW
LayerCount: 2
Fore
SplineSet
1006.5 172 m 0
 1021 276 1119.5 364.5 1229.5 364.5 c 0
 1338 364.5 1410.5 272.5 1396.5 171 c 0
 1382 67 1284 -21.5 1174 -21.5 c 0
 1065.5 -21.5 992.5 70.5 1006.5 172 c 0
1146 170 m 0
 1143 143.5 1160 117 1189 115.5 c 0
 1219.5 114 1253 144 1257 173 c 0
 1260 199.5 1243 226.5 1214 228 c 0
 1183.5 229.5 1150 199 1146 170 c 0
79.5 530 m 0
 94 634 192.5 722 302.5 722 c 0
 411 722 483.5 630.5 469.5 529 c 0
 455 425 357 337 247 337 c 0
 138.5 337 65.5 428.5 79.5 530 c 0
219 528 m 0
 216 501.5 233.5 474.5 262.5 473 c 0
 293 471.5 326 501.5 330 530.5 c 0
 333 557 316.5 584.5 287.5 586 c 0
 257 587.5 223 557 219 528 c 0
541.5 172 m 0
 556 276 653.5 364.5 763.5 364.5 c 0
 872 364.5 945 272.5 931 171 c 0
 916.5 67 818.5 -21.5 708.5 -21.5 c 0
 600 -21.5 527.5 70.5 541.5 172 c 0
680 170 m 0
 677 143.5 694.5 117 723.5 115.5 c 0
 754 114 788 144 792 173 c 0
 795 199.5 778 226.5 749 228 c 0
 718.5 229.5 684 199 680 170 c 0
746.5 699.5 m 1
 932.5 699.5 l 1
 264 0 l 1
 78 0 l 1
 746.5 699.5 l 1
EndSplineSet
EndChar

StartChar: guilsinglleft
Encoding: 8249 8249 144
Width: 339
VWidth: 0
Flags: HMW
LayerCount: 2
Fore
SplineSet
166.5 255 m 1
 279 61.5 l 1
 165.5 -6 l 1
 39.5 260 l 1
 248.5 514 l 1
 345.5 441 l 1
 166.5 255 l 1
EndSplineSet
EndChar

StartChar: guilsinglright
Encoding: 8250 8250 145
Width: 339
VWidth: 0
Flags: HMW
LayerCount: 2
Fore
SplineSet
206 255 m 1
 93.5 448.5 l 1
 207 516 l 1
 333 250 l 1
 124 -4 l 1
 27 69 l 1
 206 255 l 1
EndSplineSet
EndChar

StartChar: uni2031
Encoding: 8241 8241 146
Width: 1875
VWidth: 0
Flags: HMW
LayerCount: 2
Fore
SplineSet
1471.5 172 m 0
 1486 276 1584 364.5 1694 364.5 c 0
 1802.5 364.5 1875.5 272.5 1861.5 171 c 0
 1847 67 1749 -21.5 1639 -21.5 c 0
 1530.5 -21.5 1457.5 70.5 1471.5 172 c 0
1610.5 170 m 0
 1607.5 143.5 1625 117 1654 115.5 c 0
 1684.5 114 1718 144 1722 173 c 0
 1725 199.5 1708.5 226.5 1679.5 228 c 0
 1649 229.5 1614.5 199 1610.5 170 c 0
1006.5 172 m 0
 1021 276 1119.5 364.5 1229.5 364.5 c 0
 1338 364.5 1410.5 272.5 1396.5 171 c 0
 1382 67 1284 -21.5 1174 -21.5 c 0
 1065.5 -21.5 992.5 70.5 1006.5 172 c 0
1146 170 m 0
 1143 143.5 1160 117 1189 115.5 c 0
 1219.5 114 1253 144 1257 173 c 0
 1260 199.5 1243 226.5 1214 228 c 0
 1183.5 229.5 1150 199 1146 170 c 0
79.5 530 m 0
 94 634 192.5 722 302.5 722 c 0
 411 722 483.5 630.5 469.5 529 c 0
 455 425 357 337 247 337 c 0
 138.5 337 65.5 428.5 79.5 530 c 0
219 528 m 0
 216 501.5 233.5 474.5 262.5 473 c 0
 293 471.5 326 501.5 330 530.5 c 0
 333 557 316.5 584.5 287.5 586 c 0
 257 587.5 223 557 219 528 c 0
541.5 172 m 0
 556 276 653.5 364.5 763.5 364.5 c 0
 872 364.5 945 272.5 931 171 c 0
 916.5 67 818.5 -21.5 708.5 -21.5 c 0
 600 -21.5 527.5 70.5 541.5 172 c 0
680 170 m 0
 677 143.5 694.5 117 723.5 115.5 c 0
 754 114 788 144 792 173 c 0
 795 199.5 778 226.5 749 228 c 0
 718.5 229.5 684 199 680 170 c 0
746.5 699.5 m 1
 932.5 699.5 l 1
 264 0 l 1
 78 0 l 1
 746.5 699.5 l 1
EndSplineSet
EndChar

StartChar: uni203D
Encoding: 8253 8253 147
Width: 629
VWidth: 0
Flags: HMW
LayerCount: 2
Fore
SplineSet
480.5 475.5 m 0
 492.5 541.5 447 576 378 576.5 c 0
 313.5 577.5 253.5 546 214 489.5 c 1
 114 590 l 1
 177.5 663.5 288.5 721 409.5 720.5 c 0
 538 720 659.5 637.5 640 499.5 c 0
 617 343 442 278.5 312 274 c 1
 313.5 349 l 1
 386.5 355.5 466.5 399.5 480.5 475.5 c 0
272 502 m 1
 430 501.5 l 1
 351 211 l 1
 250.5 211 l 1
 272 502 l 1
177 70 m 0
 184 124 237.5 165 295.5 165 c 0
 353.5 165 397 122.5 390 68 c 0
 383 14 328.5 -27 270.5 -27 c 0
 212.5 -27 170 15.5 177 70 c 0
EndSplineSet
EndChar

StartChar: Euro
Encoding: 8364 8364 148
Width: 658
VWidth: 0
Flags: HMW
LayerCount: 2
Fore
SplineSet
99 373.5 m 1
 116 469 l 1
 593.5 469 l 1
 576 373.5 l 1
 99 373.5 l 1
58.5 238 m 1
 75.5 334 l 1
 553 334 l 1
 536 238 l 1
 58.5 238 l 1
304.5 350 m 0
 291.5 241.5 307 139.5 406.5 137 c 0
 465 135 520.5 163.5 566 197.5 c 1
 539.5 18.5 l 1
 493.5 -5.5 443 -22.5 389.5 -22.5 c 0
 187.5 -23 114 167 139 350 c 0
 167.5 544.5 304.5 723.5 506 723 c 0
 558.5 723 605 707 649.5 682 c 1
 622 501.5 l 1
 586 540 542.5 564 489 563.5 c 0
 388.5 562.5 322 470 304.5 350 c 0
EndSplineSet
EndChar

StartChar: fraction
Encoding: 8260 8260 149
Width: 715
VWidth: 0
Flags: HMW
LayerCount: 2
Fore
SplineSet
651 699.5 m 1
 794.5 699.5 l 1
 170.5 0 l 1
 26.5 0 l 1
 651 699.5 l 1
EndSplineSet
EndChar

StartChar: onequarter
Encoding: 188 188 150
Width: 819
VWidth: 0
Flags: HMW
LayerCount: 2
Fore
SplineSet
704 699.5 m 1
 816 699.5 l 1
 191.5 0 l 1
 79.5 0 l 1
 704 699.5 l 1
87.5 558.5 m 1
 105.5 660.5 l 1
 330.5 703.5 l 1
 256.5 274 l 1
 143.5 274 l 1
 196.5 583 l 1
 87.5 558.5 l 1
378 72 m 1
 486 153.5 l 1
 666.5 154 l 1
 680 171 l 1
 796 171 l 1
 778 71.5 l 1
 378 72 l 1
507.5 110.5 m 1
 373.5 68 l 1
 678.5 419.5 l 1
 774.5 420 l 1
 702 0 l 1
 579.5 0 l 1
 595.5 93 l 1
 611 99 l 1
 637 254 l 1
 507.5 110.5 l 1
EndSplineSet
EndChar

StartChar: onehalf
Encoding: 189 189 151
Width: 890
VWidth: 0
Flags: HMW
LayerCount: 2
Fore
SplineSet
704 699.5 m 1
 816 699.5 l 1
 191.5 0 l 1
 79.5 0 l 1
 704 699.5 l 1
87.5 558.5 m 1
 105.5 660.5 l 1
 330.5 703.5 l 1
 256.5 274 l 1
 143.5 274 l 1
 196.5 583 l 1
 87.5 558.5 l 1
463 2.5 m 1
 674.5 189.5 l 2
 708.5 220.5 744.5 249 750 286 c 0
 752.5 307.5 742 329.5 713.5 330.5 c 0
 678 332.5 654 296.5 646 263.5 c 1
 530.5 264.5 l 1
 549 354 616 431.5 726 431.5 c 0
 819 431.5 881.5 368 870 292.5 c 0
 863.5 246 832.5 210.5 795 181.5 c 2
 700 110 l 1
 852.5 109 l 1
 833.5 2 l 1
 463 2.5 l 1
EndSplineSet
EndChar

StartChar: threequarters
Encoding: 190 190 152
Width: 871
VWidth: 0
Flags: HMW
LayerCount: 2
Fore
SplineSet
765 699.5 m 1
 876.5 699.5 l 1
 252 0 l 1
 140.5 0 l 1
 765 699.5 l 1
218 482.5 m 1
 225.5 531.5 l 1
 262.5 535 303.5 552 308.5 584 c 0
 310.5 602 299 615.5 276.5 615.5 c 0
 247.5 615.5 228 595.5 220 572 c 1
 110.5 573 l 1
 128 649.5 192 707.5 284 708 c 0
 368.5 708.5 435 662.5 423.5 590 c 0
 410.5 506.5 310.5 484.5 218 482.5 c 1
213.5 269 m 0
 113 270 61.5 338.5 66.5 420.5 c 1
 179 420.5 l 1
 179 386.5 192.5 364.5 225 362.5 c 0
 253 361 284 379 288 408 c 0
 295 444 258.5 458 212.5 460.5 c 1
 221 516.5 l 1
 317.5 514.5 415.5 488 402 395 c 0
 390.5 316 309.5 268 213.5 269 c 0
430.5 72 m 1
 539 153.5 l 1
 719 154 l 1
 732.5 171 l 1
 849.5 171 l 1
 831 71.5 l 1
 430.5 72 l 1
561 110.5 m 1
 426 68 l 1
 731.5 419.5 l 1
 827.5 420 l 1
 755 0 l 1
 632.5 0 l 1
 648.5 93 l 1
 663.5 99 l 1
 690 254 l 1
 561 110.5 l 1
EndSplineSet
EndChar

StartChar: uni2150
Encoding: 8528 8528 153
Width: 944
VWidth: 0
Flags: HMW
LayerCount: 2
Fore
SplineSet
687.5 699.5 m 1
 831.5 699.5 l 1
 206.5 0 l 1
 63 0 l 1
 687.5 699.5 l 1
87.5 558.5 m 1
 105.5 660.5 l 1
 330.5 703.5 l 1
 256.5 274 l 1
 143.5 274 l 1
 196.5 583 l 1
 87.5 558.5 l 1
603 310.5 m 1
 622 420 l 1
 975 419.5 l 1
 705.5 0 l 1
 575 0 l 1
 781 310 l 1
 603 310.5 l 1
EndSplineSet
EndChar

StartChar: uni2151
Encoding: 8529 8529 154
Width: 888
VWidth: 0
Flags: HMW
LayerCount: 2
Fore
SplineSet
679 699.5 m 1
 823 699.5 l 1
 199 0 l 1
 55 0 l 1
 679 699.5 l 1
87.5 558.5 m 1
 105.5 660.5 l 1
 330.5 703.5 l 1
 256.5 274 l 1
 143.5 274 l 1
 196.5 583 l 1
 87.5 558.5 l 1
771.5 272.5 m 0
 775.5 304.5 757 331 724 332.5 c 0
 689.5 334.5 653.5 304.5 649 271 c 0
 645 239 663.5 211 696.5 209.5 c 0
 731 207.5 767 239 771.5 272.5 c 0
679 5 m 1
 524 5 l 1
 683 147 l 1
 713.5 160 l 1
 691 143 672 135.5 644 135.5 c 0
 576.5 135.5 526 196.5 534.5 272 c 0
 547.5 373 636 432.5 732.5 432.5 c 0
 828.5 432.5 900.5 371.5 886.5 271 c 0
 879 221.5 846 181.5 812.5 145 c 1
 679 5 l 1
EndSplineSet
EndChar

StartChar: uni2152
Encoding: 8530 8530 155
Width: 1216
VWidth: 0
Flags: HMW
LayerCount: 2
Fore
SplineSet
679 699.5 m 1
 823 699.5 l 1
 199 0 l 1
 55 0 l 1
 679 699.5 l 1
87.5 558.5 m 1
 105.5 660.5 l 1
 330.5 703.5 l 1
 256.5 274 l 1
 143.5 274 l 1
 196.5 583 l 1
 87.5 558.5 l 1
573.5 285.5 m 1
 592 387.5 l 1
 816.5 431 l 1
 742.5 1 l 1
 629 1 l 1
 682 310.5 l 1
 573.5 285.5 l 1
951.5 209.5 m 0
 946 158 947.5 95 993 92 c 0
 1039.5 89 1074 154 1082 210.5 c 0
 1087.5 262 1086.5 325 1041 328 c 0
 994.5 331 959.5 266 951.5 209.5 c 0
840 210.5 m 0
 856 333 936 428 1048.5 428 c 0
 1166.5 428 1208 327.5 1193.5 209.5 c 0
 1177.5 87 1101.5 -8 985 -8 c 0
 871 -8 825.5 93 840 210.5 c 0
EndSplineSet
EndChar

StartChar: onethird
Encoding: 8531 8531 156
Width: 884
VWidth: 0
Flags: HMW
LayerCount: 2
Fore
SplineSet
679 699.5 m 1
 822.5 699.5 l 1
 198.5 0 l 1
 54.5 0 l 1
 679 699.5 l 1
87.5 558.5 m 1
 105.5 660.5 l 1
 330.5 703.5 l 1
 256.5 274 l 1
 143.5 274 l 1
 196.5 583 l 1
 87.5 558.5 l 1
671.5 202.5 m 1
 679.5 251.5 l 1
 716.5 255 758 272 763 304 c 0
 765 322 753 335.5 730.5 335.5 c 0
 701.5 335.5 682.5 315.5 674.5 292 c 1
 565.5 293 l 1
 583 369.5 646 427.5 738 428 c 0
 822.5 428.5 889 382.5 877.5 310 c 0
 864.5 226.5 764 204.5 671.5 202.5 c 1
667.5 -11 m 0
 567 -10 516 58.5 521 140.5 c 1
 633 140.5 l 1
 633 106.5 647 84.5 679.5 82.5 c 0
 707.5 81 738.5 99 742.5 128 c 0
 749.5 164 712 178 666 180.5 c 1
 675 236.5 l 1
 771.5 234.5 869.5 208 856 115 c 0
 844.5 36 763.5 -12 667.5 -11 c 0
EndSplineSet
EndChar

StartChar: twothirds
Encoding: 8532 8532 157
Width: 1016
VWidth: 0
Flags: HMW
LayerCount: 2
Fore
SplineSet
827 699.5 m 1
 971 699.5 l 1
 346 0 l 1
 202.5 0 l 1
 827 699.5 l 1
45.5 282.5 m 1
 256.5 469.5 l 2
 290.5 500.5 327 529 332.5 566 c 0
 335 587.5 324.5 609.5 296 610.5 c 0
 260.5 612.5 237 576.5 229 543.5 c 1
 113 544.5 l 1
 131.5 634 198.5 711.5 308.5 711.5 c 0
 401.5 711.5 464 648 452.5 572.5 c 0
 446 526 414.5 490.5 377 461.5 c 2
 282 390 l 1
 435 389 l 1
 416 282 l 1
 45.5 282.5 l 1
803.5 202.5 m 1
 811 251.5 l 1
 848 255 889.5 272 894.5 304 c 0
 896.5 322 884.5 335.5 862 335.5 c 0
 833 335.5 813.5 315.5 805.5 292 c 1
 696.5 293 l 1
 714 369.5 777.5 427.5 869.5 428 c 0
 954 428.5 1020 382.5 1008.5 310 c 0
 995.5 226.5 896 204.5 803.5 202.5 c 1
799.5 -11 m 0
 699 -10 646.5 58.5 651.5 140.5 c 1
 764.5 140.5 l 1
 764.5 106.5 777.5 84.5 810 82.5 c 0
 838 81 869.5 99 873.5 128 c 0
 880.5 164 844 178 798 180.5 c 1
 807 236.5 l 1
 903.5 234.5 1001 208 987.5 115 c 0
 976 36 895.5 -12 799.5 -11 c 0
EndSplineSet
EndChar

StartChar: uni2155
Encoding: 8533 8533 158
Width: 873
VWidth: 0
Flags: HMW
LayerCount: 2
Fore
SplineSet
679 699.5 m 1
 823 699.5 l 1
 199 0 l 1
 55 0 l 1
 679 699.5 l 1
87.5 558.5 m 1
 105.5 660.5 l 1
 330.5 703.5 l 1
 256.5 274 l 1
 143.5 274 l 1
 196.5 583 l 1
 87.5 558.5 l 1
851 130.5 m 0
 838 36.5 742 -9 658.5 -10 c 0
 590.5 -11 537.5 9.5 492 34.5 c 1
 543 134 l 1
 575 112 609 97 639.5 97 c 0
 678.5 97 723.5 111.5 727 147.5 c 0
 730 180.5 693.5 191 663.5 192 c 0
 626.5 193.5 580.5 185 538 171 c 1
 624 223.5 l 1
 659 252 698 268.5 743 267.5 c 0
 812 265.5 860.5 208 851 130.5 c 0
708 315.5 m 1
 654.5 217 l 1
 531.5 165.5 l 1
 636 417.5 l 1
 890 418 l 1
 871.5 316 l 1
 708 315.5 l 1
EndSplineSet
EndChar

StartChar: uni2156
Encoding: 8534 8534 159
Width: 1017
VWidth: 0
Flags: HMW
LayerCount: 2
Fore
SplineSet
827 699.5 m 1
 971 699.5 l 1
 346 0 l 1
 202.5 0 l 1
 827 699.5 l 1
45.5 282.5 m 1
 256.5 469.5 l 2
 290.5 500.5 327 529 332.5 566 c 0
 335 587.5 324.5 609.5 296 610.5 c 0
 260.5 612.5 237 576.5 229 543.5 c 1
 113 544.5 l 1
 131.5 634 198.5 711.5 308.5 711.5 c 0
 401.5 711.5 464 648 452.5 572.5 c 0
 446 526 414.5 490.5 377 461.5 c 2
 282 390 l 1
 435 389 l 1
 416 282 l 1
 45.5 282.5 l 1
982 130.5 m 0
 969 36.5 874 -9 790.5 -10 c 0
 722.5 -11 668.5 9.5 623 34.5 c 1
 674 134 l 1
 706 112 740 97 770.5 97 c 0
 809.5 97 854.5 111.5 858 147.5 c 0
 861 180.5 824.5 191 794.5 192 c 0
 757.5 193.5 712 185 669.5 171 c 1
 754.5 223.5 l 1
 789.5 252 829.5 268.5 874.5 267.5 c 0
 943.5 265.5 991.5 208 982 130.5 c 0
839 315.5 m 1
 785.5 217 l 1
 663.5 165.5 l 1
 767 417.5 l 1
 1021 418 l 1
 1002.5 316 l 1
 839 315.5 l 1
EndSplineSet
EndChar

StartChar: uni2157
Encoding: 8535 8535 160
Width: 934
VWidth: 0
Flags: HMW
LayerCount: 2
Fore
SplineSet
748 699.5 m 1
 891.5 699.5 l 1
 267.5 0 l 1
 124 0 l 1
 748 699.5 l 1
214 482.5 m 1
 221.5 531.5 l 1
 258.5 535 299.5 552 304.5 584 c 0
 306.5 602 295 615.5 272.5 615.5 c 0
 243.5 615.5 224 595.5 216 572 c 1
 106.5 573 l 1
 124 649.5 188 707.5 280 708 c 0
 364.5 708.5 431 662.5 419.5 590 c 0
 406.5 506.5 306.5 484.5 214 482.5 c 1
209.5 269 m 0
 109 270 57 338.5 62 420.5 c 1
 175.5 420.5 l 1
 175.5 386.5 188.5 364.5 221 362.5 c 0
 249 361 280 379 284 408 c 0
 291 444 254 458 208 460.5 c 1
 217.5 516.5 l 1
 314 514.5 411.5 488 398 395 c 0
 386.5 316 305.5 268 209.5 269 c 0
895.5 130.5 m 0
 882.5 36.5 786.5 -9 703 -10 c 0
 635 -11 582 9.5 536.5 34.5 c 1
 587.5 134 l 1
 619.5 112 653 97 683.5 97 c 0
 722.5 97 768 111.5 771.5 147.5 c 0
 774.5 180.5 737.5 191 707.5 192 c 0
 670.5 193.5 625 185 582.5 171 c 1
 668 223.5 l 1
 703 252 742.5 268.5 787.5 267.5 c 0
 856.5 265.5 905 208 895.5 130.5 c 0
752.5 315.5 m 1
 699 217 l 1
 576 165.5 l 1
 680 417.5 l 1
 933.5 418 l 1
 915.5 316 l 1
 752.5 315.5 l 1
EndSplineSet
EndChar

StartChar: uni2158
Encoding: 8536 8536 161
Width: 1032
VWidth: 0
Flags: HMW
LayerCount: 2
Fore
SplineSet
813.5 698.5 m 1
 957 698.5 l 1
 333 -0.5 l 1
 189 -0.5 l 1
 813.5 698.5 l 1
46.5 352 m 1
 154.5 433.5 l 1
 335.5 434 l 1
 349 451 l 1
 465 451 l 1
 447 351.5 l 1
 46.5 352 l 1
176.5 390.5 m 1
 42.5 348 l 1
 347.5 699.5 l 1
 443.5 700 l 1
 371 280 l 1
 248.5 280 l 1
 264.5 373 l 1
 280 379 l 1
 306 534 l 1
 176.5 390.5 l 1
1001 129.5 m 0
 988 35.5 892.5 -9.5 809 -10.5 c 0
 741 -11.5 688 8.5 642.5 33.5 c 1
 693.5 133.5 l 1
 725.5 111.5 759 96.5 789.5 96.5 c 0
 828.5 96.5 874 110.5 877.5 146.5 c 0
 880.5 179.5 843.5 190 813.5 191 c 0
 776.5 192.5 731 184 688.5 170 c 1
 774 223 l 1
 809 251.5 848.5 267 893.5 266 c 0
 962.5 264 1010.5 207 1001 129.5 c 0
858.5 314.5 m 1
 805 216.5 l 1
 682.5 165 l 1
 786 416.5 l 1
 1040 417 l 1
 1021.5 315 l 1
 858.5 314.5 l 1
EndSplineSet
EndChar

StartChar: uni2159
Encoding: 8537 8537 162
Width: 888
VWidth: 0
Flags: HMW
LayerCount: 2
Fore
SplineSet
703.5 699.5 m 1
 847 699.5 l 1
 222.5 0 l 1
 79.5 0 l 1
 703.5 699.5 l 1
87.5 558.5 m 1
 105.5 660.5 l 1
 330.5 703.5 l 1
 256.5 274 l 1
 143.5 274 l 1
 196.5 583 l 1
 87.5 558.5 l 1
622.5 147.5 m 0
 618.5 115.5 637.5 89 670.5 87.5 c 0
 705 85.5 740 115.5 744.5 149 c 0
 748.5 181 731 208.5 698 210.5 c 0
 663.5 212.5 627 181 622.5 147.5 c 0
716 415 m 1
 870 415 l 1
 712 273 l 1
 681 260 l 1
 703.5 276.5 721 284 749 284.5 c 0
 816.5 285.5 869 223 860.5 148 c 0
 848 47 758.5 -12.5 662 -12.5 c 0
 566 -12.5 493.5 48.5 507.5 149 c 0
 515 198.5 547.5 238.5 581 275 c 1
 716 415 l 1
EndSplineSet
EndChar

StartChar: uni215A
Encoding: 8538 8538 163
Width: 926
VWidth: 0
Flags: HMW
LayerCount: 2
Fore
SplineSet
765.5 699.5 m 1
 909.5 699.5 l 1
 285.5 0 l 1
 141.5 0 l 1
 765.5 699.5 l 1
414 410.5 m 0
 401 316.5 306 271 222.5 270 c 0
 154.5 269 100.5 289.5 55 314.5 c 1
 106 414 l 1
 138 392 172 377 202.5 377 c 0
 241.5 377 286.5 391.5 290 427.5 c 0
 293 460.5 256.5 471 226.5 472 c 0
 189.5 473.5 144 465 101.5 451 c 1
 187 503.5 l 1
 222 532 261 548.5 306 547.5 c 0
 375 545.5 423.5 488 414 410.5 c 0
271 595.5 m 1
 217.5 497 l 1
 95 445.5 l 1
 198 697.5 l 1
 452.5 698 l 1
 434 596 l 1
 271 595.5 l 1
661 147.5 m 0
 657 115.5 675.5 89 708.5 87.5 c 0
 743 85.5 778.5 115.5 783 149 c 0
 787 181 769 208.5 736 210.5 c 0
 701.5 212.5 665.5 181 661 147.5 c 0
754 415 m 1
 908.5 415 l 1
 750 273 l 1
 719 260 l 1
 741.5 276.5 759.5 284 787.5 284.5 c 0
 855 285.5 906.5 223 898 148 c 0
 885.5 47 796.5 -12.5 700 -12.5 c 0
 604 -12.5 532.5 48.5 546.5 149 c 0
 554 198.5 586 238.5 619.5 275 c 1
 754 415 l 1
EndSplineSet
EndChar

StartChar: oneeighth
Encoding: 8539 8539 164
Width: 905
VWidth: 0
Flags: HMW
LayerCount: 2
Fore
SplineSet
703.5 699.5 m 1
 847 699.5 l 1
 222.5 0 l 1
 79.5 0 l 1
 703.5 699.5 l 1
87.5 558.5 m 1
 105.5 660.5 l 1
 330.5 703 l 1
 256.5 274 l 1
 143.5 274 l 1
 196.5 583 l 1
 87.5 558.5 l 1
595 320 m 0
 605 393 682 430.5 756.5 430.5 c 0
 829 430.5 900.5 392.5 890 318 c 0
 880 242 797 204 727.5 204 c 0
 660 204 585 243 595 320 c 0
702.5 307 m 0
 700 287 709.5 267 731 266 c 0
 753.5 265 776 287 779 309 c 0
 781.5 329.5 771.5 348 750.5 349 c 0
 728 350 706 329 702.5 307 c 0
546 115 m 0
 557 201 651 238.5 724 238.5 c 0
 794.5 238.5 881.5 200 870 113 c 0
 859 33.5 771 -10.5 691 -10.5 c 0
 613.5 -10.5 535 34.5 546 115 c 0
665 131.5 m 0
 661.5 106.5 674 84.5 699.5 83.5 c 0
 726 82.5 753 106 756.5 133 c 0
 759.5 154.5 746 177.5 721.5 178.5 c 0
 695.5 179.5 669 154.5 665 131.5 c 0
EndSplineSet
EndChar

StartChar: threeeighths
Encoding: 8540 8540 165
Width: 957
VWidth: 0
Flags: HMW
LayerCount: 2
Fore
SplineSet
756.5 699.5 m 1
 900.5 699.5 l 1
 275.5 0 l 1
 132 0 l 1
 756.5 699.5 l 1
214 482.5 m 1
 221.5 531.5 l 1
 258.5 535 299.5 552 304.5 584 c 0
 306.5 602 295 615.5 272.5 615.5 c 0
 243.5 615.5 224 595.5 216 572 c 1
 107 573 l 1
 124.5 649.5 188 707.5 280 708 c 0
 364.5 708.5 431 662.5 419.5 590 c 0
 406.5 506.5 306.5 484.5 214 482.5 c 1
209.5 269 m 0
 109 270 57 338.5 62 420.5 c 1
 175.5 420.5 l 1
 175.5 386.5 188.5 364.5 221 362.5 c 0
 249 361 280 379 284 408 c 0
 291 444 254 458 208 460.5 c 1
 217.5 516.5 l 1
 314 514.5 411.5 488 398 395 c 0
 386.5 316 305.5 268 209.5 269 c 0
647.5 320 m 0
 657.5 393 735 430.5 809.5 430.5 c 0
 882 430.5 953 392.5 942.5 318 c 0
 932.5 242 849.5 204 780 204 c 0
 712.5 204 637.5 243 647.5 320 c 0
754.5 307 m 0
 752 287 761.5 267 783 266 c 0
 805.5 265 828.5 287 831.5 309 c 0
 834 329.5 824 348 803 349 c 0
 780.5 350 758 329 754.5 307 c 0
598 115 m 0
 609 201 703.5 238.5 776.5 238.5 c 0
 847 238.5 933.5 200 922 113 c 0
 911 33.5 823.5 -10.5 743.5 -10.5 c 0
 666 -10.5 587 34.5 598 115 c 0
717.5 131.5 m 0
 714 106.5 726.5 84.5 752 83.5 c 0
 778.5 82.5 806 106 809.5 133 c 0
 812.5 154.5 798.5 177.5 774 178.5 c 0
 748 179.5 721.5 154.5 717.5 131.5 c 0
EndSplineSet
EndChar

StartChar: fiveeighths
Encoding: 8541 8541 166
Width: 967
VWidth: 0
Flags: HMW
LayerCount: 2
Fore
SplineSet
765.5 699.5 m 1
 909.5 699.5 l 1
 285.5 0 l 1
 141.5 0 l 1
 765.5 699.5 l 1
406 410.5 m 0
 393 316.5 297 271 213.5 270 c 0
 145.5 269 92 289.5 46.5 314.5 c 1
 98 414 l 1
 130 392 163.5 377 194 377 c 0
 233 377 278 391.5 281.5 427.5 c 0
 284.5 460.5 248 471 218 472 c 0
 181 473.5 136 465 93.5 451 c 1
 178.5 503.5 l 1
 213.5 532 253 548.5 298 547.5 c 0
 367 545.5 415.5 488 406 410.5 c 0
263 595.5 m 1
 209.5 497 l 1
 87.5 445.5 l 1
 190.5 697.5 l 1
 444.5 698 l 1
 426 596 l 1
 263 595.5 l 1
657.5 320 m 0
 667.5 393 745 430.5 819.5 430.5 c 0
 892 430.5 963.5 392.5 953 318 c 0
 943 242 859.5 204 790 204 c 0
 722.5 204 647.5 243 657.5 320 c 0
764.5 307 m 0
 762 287 772 267 793.5 266 c 0
 816 265 838.5 287 841.5 309 c 0
 844 329.5 834 348 813 349 c 0
 790.5 350 768 329 764.5 307 c 0
607.5 115 m 0
 618.5 201 713.5 238.5 786.5 238.5 c 0
 857 238.5 943.5 200 932 113 c 0
 921 33.5 833.5 -10.5 753.5 -10.5 c 0
 676 -10.5 596.5 34.5 607.5 115 c 0
727.5 131.5 m 0
 724 106.5 736.5 84.5 762 83.5 c 0
 788.5 82.5 815.5 106 819 133 c 0
 822 154.5 808.5 177.5 784 178.5 c 0
 758 179.5 731.5 154.5 727.5 131.5 c 0
EndSplineSet
EndChar

StartChar: seveneighths
Encoding: 8542 8542 167
Width: 861
VWidth: 0
Flags: HMW
LayerCount: 2
Fore
SplineSet
651 699.5 m 1
 794.5 699.5 l 1
 170.5 0 l 1
 26.5 0 l 1
 651 699.5 l 1
91.5 590.5 m 1
 111.5 700 l 1
 464.5 699.5 l 1
 194.5 280.5 l 1
 64 280.5 l 1
 270.5 590 l 1
 91.5 590.5 l 1
551 320 m 0
 561 393 638.5 430.5 713 430.5 c 0
 785.5 430.5 856.5 392.5 846 318 c 0
 836 242 753 204 683.5 204 c 0
 616 204 541 243 551 320 c 0
658 307 m 0
 655.5 287 665 267 686.5 266 c 0
 709 265 732 287 735 309 c 0
 737.5 329.5 727.5 348 706.5 349 c 0
 684 350 661.5 329 658 307 c 0
500.5 115 m 0
 511.5 201 607 238.5 680 238.5 c 0
 750.5 238.5 836.5 200 825 113 c 0
 814 33.5 727 -10.5 647 -10.5 c 0
 569.5 -10.5 489.5 34.5 500.5 115 c 0
621 131.5 m 0
 617.5 106.5 630 84.5 655.5 83.5 c 0
 682 82.5 709 106 712.5 133 c 0
 715.5 154.5 702 177.5 677.5 178.5 c 0
 651.5 179.5 625 154.5 621 131.5 c 0
EndSplineSet
EndChar

StartChar: uni2074
Encoding: 8308 8308 168
Width: 426
VWidth: 0
Flags: HMW
LayerCount: 2
Fore
SplineSet
39 352 m 1
 146.5 433.5 l 1
 327.5 434 l 1
 340.5 451 l 1
 457.5 451 l 1
 439.5 351.5 l 1
 39 352 l 1
169 390.5 m 1
 34 348 l 1
 340 699.5 l 1
 435 700 l 1
 363 280 l 1
 240.5 280 l 1
 256.5 373 l 1
 272 379 l 1
 298.5 534 l 1
 169 390.5 l 1
EndSplineSet
EndChar

StartChar: uni2075
Encoding: 8309 8309 169
Width: 385
VWidth: 0
Flags: HMW
LayerCount: 2
Fore
SplineSet
406 410.5 m 0
 393 316.5 297 271 213.5 270 c 0
 145.5 269 92 289.5 46.5 314.5 c 1
 98 414 l 1
 130 392 163.5 377 194 377 c 0
 233 377 278 391.5 281.5 427.5 c 0
 284.5 460.5 248 471 218 472 c 0
 181 473.5 136 465 93.5 451 c 1
 178.5 503.5 l 1
 213.5 532 253 548.5 298 547.5 c 0
 367 545.5 415.5 488 406 410.5 c 0
263 595.5 m 1
 209.5 497 l 1
 87.5 445.5 l 1
 190.5 697.5 l 1
 444.5 698 l 1
 426 596 l 1
 263 595.5 l 1
EndSplineSet
EndChar

StartChar: uni2076
Encoding: 8310 8310 170
Width: 383
VWidth: 0
Flags: HMW
LayerCount: 2
Fore
SplineSet
177 427.5 m 0
 173 395.5 192 369 225 367.5 c 0
 259.5 365.5 294.5 395.5 299 429 c 0
 303 461 285.5 488.5 252.5 490.5 c 0
 218 492.5 181.5 461 177 427.5 c 0
270 695 m 1
 424 695 l 1
 266 553 l 1
 235 540 l 1
 257.5 556.5 275.5 564 303.5 564.5 c 0
 371 565.5 423 503 414.5 428 c 0
 402 327 312.5 267.5 216 267.5 c 0
 120 267.5 48 328.5 62 429 c 0
 69.5 478.5 102 518.5 135.5 555 c 1
 270 695 l 1
EndSplineSet
EndChar

StartChar: uni2077
Encoding: 8311 8311 171
Width: 375
VWidth: 0
Flags: HMW
LayerCount: 2
Fore
SplineSet
91.5 590.5 m 1
 111.5 700 l 1
 464.5 699.5 l 1
 194.5 280.5 l 1
 64 280.5 l 1
 270.5 590 l 1
 91.5 590.5 l 1
EndSplineSet
EndChar

StartChar: uni2078
Encoding: 8312 8312 172
Width: 363
VWidth: 0
Flags: HMW
LayerCount: 2
Fore
SplineSet
108.5 600 m 0
 118.5 673 195.5 710.5 270 710.5 c 0
 342.5 710.5 413.5 672.5 403 598 c 0
 393 522 310 484 240.5 484 c 0
 173 484 98.5 523 108.5 600 c 0
215 587 m 0
 212.5 567 222.5 547 244 546 c 0
 266.5 545 289.5 567 292.5 589 c 0
 295 609.5 284.5 628 263.5 629 c 0
 241 630 218.5 609 215 587 c 0
58.5 395 m 0
 69.5 481 164 518.5 237 518.5 c 0
 307.5 518.5 393.5 480 382 393 c 0
 371 313.5 284.5 269.5 204.5 269.5 c 0
 127 269.5 47.5 314.5 58.5 395 c 0
178.5 411.5 m 0
 175 386.5 187.5 364.5 213 363.5 c 0
 239.5 362.5 266.5 386 270 413 c 0
 273 434.5 259.5 457.5 235 458.5 c 0
 209 459.5 182.5 434.5 178.5 411.5 c 0
EndSplineSet
EndChar

StartChar: uni2079
Encoding: 8313 8313 173
Width: 379
VWidth: 0
Flags: HMW
LayerCount: 2
Fore
SplineSet
319 552.5 m 0
 323 584.5 305.5 611 272.5 612.5 c 0
 238 614.5 201.5 584.5 197 551 c 0
 193 519 212 491 245 489.5 c 0
 279.5 487.5 314.5 519 319 552.5 c 0
227 285 m 1
 72 285 l 1
 231 427 l 1
 262 440 l 1
 239.5 423 220.5 415.5 192.5 415.5 c 0
 125 415.5 74 476.5 82.5 552 c 0
 95.5 653 184 712.5 280.5 712.5 c 0
 376.5 712.5 448.5 651.5 434.5 551 c 0
 427 501.5 394 461.5 360.5 425 c 1
 227 285 l 1
EndSplineSet
EndChar

StartChar: uni2070
Encoding: 8304 8304 174
Width: 384
VWidth: 0
Flags: HMW
LayerCount: 2
Fore
SplineSet
184 489.5 m 0
 178.5 438 179.5 375 225 372 c 0
 271.5 369 306 434 314 490.5 c 0
 319.5 542 318.5 605 273 608 c 0
 226.5 611 192 546 184 489.5 c 0
72 490.5 m 0
 88 613 168.5 708 281 708 c 0
 399 708 440 607.5 425.5 489.5 c 0
 409.5 367 333.5 272 217 272 c 0
 103 272 57.5 373 72 490.5 c 0
EndSplineSet
EndChar

StartChar: uni2080
Encoding: 8320 8320 175
Width: 384
VWidth: 0
Flags: HMW
LayerCount: 2
Fore
SplineSet
136 209.5 m 0
 130.5 158 131.5 95 177 92 c 0
 223.5 89 258 154 266 210.5 c 0
 271.5 262 271 325 225.5 328 c 0
 179 331 144 266 136 209.5 c 0
24 210.5 m 0
 40 333 121 428 233.5 428 c 0
 351.5 428 392.5 327.5 378 209.5 c 0
 362 87 285.5 -8 169 -8 c 0
 55 -8 9.5 93 24 210.5 c 0
EndSplineSet
EndChar

StartChar: uni2084
Encoding: 8324 8324 176
Width: 432
VWidth: 0
Flags: HMW
LayerCount: 2
Fore
SplineSet
-10.5 72 m 1
 97 153.5 l 1
 278 154 l 1
 291 171 l 1
 408 171 l 1
 390 71.5 l 1
 -10.5 72 l 1
119.5 110.5 m 1
 -15 68 l 1
 290.5 419.5 l 1
 386.5 420 l 1
 314 0 l 1
 191.5 0 l 1
 207 93 l 1
 222.5 99 l 1
 249 254 l 1
 119.5 110.5 l 1
EndSplineSet
EndChar

StartChar: uni2085
Encoding: 8325 8325 177
Width: 396
VWidth: 0
Flags: HMW
LayerCount: 2
Fore
SplineSet
362 130.5 m 0
 349 36.5 253.5 -9 170 -10 c 0
 102 -11 48.5 9.5 3 34.5 c 1
 54.5 134 l 1
 86.5 112 119.5 97 150 97 c 0
 189 97 234.5 111.5 238 147.5 c 0
 241 180.5 204.5 191 174.5 192 c 0
 137.5 193.5 92.5 185 50 171 c 1
 134.5 223.5 l 1
 169.5 252 209 268.5 254 267.5 c 0
 323 265.5 371.5 208 362 130.5 c 0
219 315.5 m 1
 165.5 217 l 1
 43.5 165.5 l 1
 146.5 417.5 l 1
 400.5 418 l 1
 382 316 l 1
 219 315.5 l 1
EndSplineSet
EndChar

StartChar: uni2086
Encoding: 8326 8326 178
Width: 397
VWidth: 0
Flags: HMW
LayerCount: 2
Fore
SplineSet
133 147.5 m 0
 129 115.5 148.5 89 181.5 87.5 c 0
 216 85.5 251.5 115.5 256 149 c 0
 260 181 242 208.5 209 210.5 c 0
 174.5 212.5 137.5 181 133 147.5 c 0
227.5 415 m 1
 381 415 l 1
 222.5 273 l 1
 191.5 260 l 1
 214 276.5 232.5 284 260.5 284.5 c 0
 328 285.5 380 223 371.5 148 c 0
 359 47 269 -12.5 172.5 -12.5 c 0
 76.5 -12.5 5 48.5 19 149 c 0
 26.5 198.5 59 238.5 92.5 275 c 1
 227.5 415 l 1
EndSplineSet
EndChar

StartChar: uni2087
Encoding: 8327 8327 179
Width: 381
VWidth: 0
Flags: HMW
LayerCount: 2
Fore
SplineSet
49 310.5 m 1
 68.5 420 l 1
 421.5 419.5 l 1
 152 0 l 1
 21 0 l 1
 227 310 l 1
 49 310.5 l 1
EndSplineSet
EndChar

StartChar: uni2088
Encoding: 8328 8328 180
Width: 371
VWidth: 0
Flags: HMW
LayerCount: 2
Fore
SplineSet
66 320 m 0
 76 393 153 430.5 227.5 430.5 c 0
 300 430.5 371 392.5 360.5 318 c 0
 350.5 242 267.5 204 198 204 c 0
 130.5 204 56 243 66 320 c 0
172.5 307 m 0
 170 287 180 267 201.5 266 c 0
 224 265 247 287 250 309 c 0
 252.5 329.5 242 348 221 349 c 0
 198.5 350 176 329 172.5 307 c 0
16.5 115 m 0
 27.5 201 121.5 238.5 194.5 238.5 c 0
 265 238.5 351.5 200 340 113 c 0
 329 33.5 242 -10.5 162 -10.5 c 0
 84.5 -10.5 5.5 34.5 16.5 115 c 0
136 131.5 m 0
 132.5 106.5 145 84.5 170.5 83.5 c 0
 197 82.5 224 106 227.5 133 c 0
 230.5 154.5 217 177.5 192.5 178.5 c 0
 166.5 179.5 140 154.5 136 131.5 c 0
EndSplineSet
EndChar

StartChar: uni2089
Encoding: 8329 8329 181
Width: 402
VWidth: 0
Flags: HMW
LayerCount: 2
Fore
SplineSet
279.5 272.5 m 0
 283.5 304.5 264.5 331 231.5 332.5 c 0
 197 334.5 161 304.5 156.5 271 c 0
 152.5 239 171 211 204 209.5 c 0
 238.5 207.5 275 239 279.5 272.5 c 0
186.5 5 m 1
 31.5 5 l 1
 190.5 147 l 1
 221.5 160 l 1
 199 143 180 135.5 152 135.5 c 0
 84.5 135.5 33.5 196.5 42 272 c 0
 55 373 144 432.5 240.5 432.5 c 0
 336.5 432.5 408.5 371.5 394.5 271 c 0
 387 221.5 354.5 181.5 321 145 c 1
 186.5 5 l 1
EndSplineSet
EndChar

StartChar: uni2081
Encoding: 8321 8321 182
Width: 364
VWidth: 0
Flags: HMW
LayerCount: 2
Fore
SplineSet
106.5 285.5 m 1
 125 387.5 l 1
 350.5 431 l 1
 276 1 l 1
 163.5 1 l 1
 216 310.5 l 1
 106.5 285.5 l 1
EndSplineSet
EndChar

StartChar: uni2082
Encoding: 8322 8322 183
Width: 418
VWidth: 0
Flags: HMW
LayerCount: 2
Fore
SplineSet
-3 2.5 m 1
 208.5 189.5 l 2
 242.5 220.5 278.5 249 284 286 c 0
 286.5 307.5 276 329.5 247.5 330.5 c 0
 212 332.5 187.5 296.5 179.5 263.5 c 1
 64.5 264.5 l 1
 83 354 149.5 431.5 259.5 431.5 c 0
 352.5 431.5 416 368 404.5 292.5 c 0
 398 246 366 210.5 328.5 181.5 c 2
 233.5 110 l 1
 386 109 l 1
 367 2 l 1
 -3 2.5 l 1
EndSplineSet
EndChar

StartChar: uni2083
Encoding: 8323 8323 184
Width: 379
VWidth: 0
Flags: HMW
LayerCount: 2
Fore
SplineSet
167 202.5 m 1
 174.5 251.5 l 1
 211.5 255 253 272 258 304 c 0
 260 322 248 335.5 225.5 335.5 c 0
 196.5 335.5 177 315.5 169 292 c 1
 60 293 l 1
 77.5 369.5 141 427.5 233 428 c 0
 317.5 428.5 383.5 382.5 372 310 c 0
 359 226.5 259.5 204.5 167 202.5 c 1
162.5 -11 m 0
 62 -10 10 58.5 15 140.5 c 1
 128 140.5 l 1
 128 106.5 141 84.5 173.5 82.5 c 0
 201.5 81 233 99 237 128 c 0
 244 164 207 178 161 180.5 c 1
 170.5 236.5 l 1
 267 234.5 364.5 208 351 115 c 0
 339.5 36 258.5 -12 162.5 -11 c 0
EndSplineSet
EndChar

StartChar: Agrave
Encoding: 192 192 185
Width: 736
VWidth: 0
Flags: HMW
LayerCount: 2
Fore
SplineSet
180.5 111 m 1
 211.5 255 l 1
 563.5 255.5 l 1
 543 111 l 1
 180.5 111 l 1
414 409.5 m 1
 288.5 202 l 1
 294 157 l 1
 190 0 l 1
 -34.5 0 l 1
 467.5 749.5 l 1
 711.5 0 l 1
 497.5 0 l 1
 444.5 151 l 1
 465 201 l 1
 414 409.5 l 1
339 960 m 1
 470 1014.5 l 1
 591 851 l 1
 491.5 807.5 l 1
 339 960 l 1
EndSplineSet
EndChar

StartChar: Aacute
Encoding: 193 193 186
Width: 736
VWidth: 0
Flags: HMW
LayerCount: 2
Fore
SplineSet
180.5 111 m 1
 211.5 255 l 1
 563.5 255.5 l 1
 543 111 l 1
 180.5 111 l 1
414 409.5 m 1
 288.5 202 l 1
 294 157 l 1
 190 0 l 1
 -34.5 0 l 1
 467.5 749.5 l 1
 711.5 0 l 1
 497.5 0 l 1
 444.5 151 l 1
 465 201 l 1
 414 409.5 l 1
668.5 954 m 1
 471.5 808 l 1
 378 857.5 l 1
 547.5 1013.5 l 1
 668.5 954 l 1
EndSplineSet
EndChar

StartChar: Acircumflex
Encoding: 194 194 187
Width: 736
VWidth: 0
Flags: HMW
LayerCount: 2
Fore
SplineSet
180.5 111 m 1
 211.5 255 l 1
 563.5 255.5 l 1
 543 111 l 1
 180.5 111 l 1
414 409.5 m 1
 288.5 202 l 1
 294 157 l 1
 190 0 l 1
 -34.5 0 l 1
 467.5 749.5 l 1
 711.5 0 l 1
 497.5 0 l 1
 444.5 151 l 1
 465 201 l 1
 414 409.5 l 1
496 881.5 m 1
 399.5 801 l 1
 288.5 885 l 1
 511.5 1022 l 1
 695.5 879 l 1
 564 800 l 1
 496 881.5 l 1
EndSplineSet
EndChar

StartChar: Atilde
Encoding: 195 195 188
Width: 736
VWidth: 0
Flags: HMW
LayerCount: 2
Fore
SplineSet
180.5 111 m 1
 211.5 255 l 1
 563.5 255.5 l 1
 543 111 l 1
 180.5 111 l 1
414 409.5 m 1
 288.5 202 l 1
 294 157 l 1
 190 0 l 1
 -34.5 0 l 1
 467.5 749.5 l 1
 711.5 0 l 1
 497.5 0 l 1
 444.5 151 l 1
 465 201 l 1
 414 409.5 l 1
290 881 m 1
 311 929 358.5 978.5 424.5 977 c 0
 479.5 976 501 923 551.5 924.5 c 0
 582 925.5 606 952 628 978.5 c 1
 695.5 892.5 l 1
 668.5 853.5 609 802.5 545.5 805 c 0
 496 807 461 862.5 413.5 859 c 0
 380.5 856.5 366.5 827 358 809 c 1
 290 881 l 1
EndSplineSet
EndChar

StartChar: Adieresis
Encoding: 196 196 189
Width: 736
VWidth: 0
Flags: HMW
LayerCount: 2
Fore
SplineSet
180.5 111 m 1
 211.5 255 l 1
 563.5 255.5 l 1
 543 111 l 1
 180.5 111 l 1
414 409.5 m 1
 288.5 202 l 1
 294 157 l 1
 190 0 l 1
 -34.5 0 l 1
 467.5 749.5 l 1
 711.5 0 l 1
 497.5 0 l 1
 444.5 151 l 1
 465 201 l 1
 414 409.5 l 1
534 825 m 0
 541 876.5 591 913.5 643 913.5 c 0
 695.5 913.5 735 874.5 728 822 c 0
 721 770.5 671.5 733.5 619.5 733.5 c 0
 567 733.5 527 772.5 534 825 c 0
229 833 m 0
 236 884.5 286 922 338 922 c 0
 390.5 922 430 883 423 830.5 c 0
 416 779 366.5 741.5 314.5 741.5 c 0
 262 741.5 222 780.5 229 833 c 0
EndSplineSet
EndChar

StartChar: Aring
Encoding: 197 197 190
Width: 736
VWidth: 0
Flags: HMW
LayerCount: 2
Fore
SplineSet
180.5 111 m 1
 211.5 255 l 1
 563.5 255.5 l 1
 543 111 l 1
 180.5 111 l 1
414 409.5 m 1
 288.5 202 l 1
 294 157 l 1
 190 0 l 1
 -34.5 0 l 1
 467.5 749.5 l 1
 711.5 0 l 1
 497.5 0 l 1
 444.5 151 l 1
 465 201 l 1
 414 409.5 l 1
348 802 m 0
 357 871 422.5 922 493.5 922 c 0
 564.5 922 617 870 607.5 800 c 0
 598.5 730.5 532.5 681 461 681 c 0
 390 681 338.5 732.5 348 802 c 0
434.5 800.5 m 0
 432 778 444 757.5 466.5 756.5 c 0
 490 755.5 517.5 778 521 802 c 0
 523.5 824.5 510.5 846.5 488 847.5 c 0
 464.5 848.5 438 824.5 434.5 800.5 c 0
EndSplineSet
EndChar

StartChar: AE
Encoding: 198 198 191
Width: 1091
VWidth: 0
Flags: HMW
LayerCount: 2
Fore
SplineSet
271.5 131.5 m 1
 311.5 310.5 l 1
 606 310.5 l 1
 574 131.5 l 1
 271.5 131.5 l 1
522.5 700 m 1
 702 658 l 1
 238 0 l 1
 -14.5 0 l 1
 522.5 700 l 1
612.5 0 m 1
 640 158.5 l 1
 1026.5 158.5 l 1
 998.5 0 l 1
 612.5 0 l 1
718.5 541.5 m 1
 522.5 700 l 1
 1118.5 700 l 1
 1090.5 541.5 l 1
 718.5 541.5 l 1
661 286.5 m 1
 688.5 440.5 l 1
 1055 440.5 l 1
 1027.5 286.5 l 1
 661 286.5 l 1
642.5 700 m 1
 853 700 l 1
 733 0 l 1
 523 0 l 1
 642.5 700 l 1
EndSplineSet
EndChar

StartChar: Ccedilla
Encoding: 199 199 192
Width: 684
VWidth: 0
Flags: HMW
LayerCount: 2
Fore
SplineSet
273.5 350 m 0
 256 245.5 320 170 424.5 168.5 c 0
 516 167.5 584 211 640.5 255.5 c 1
 609.5 50.5 l 1
 547.5 10.5 481 -18 390 -18 c 0
 167.5 -18 31 141 62 350 c 0
 94.5 565 277 718.5 504.5 718 c 0
 592 718 652 691.5 708.5 649 c 1
 677 443.5 l 1
 635.5 494 581 531.5 496.5 531.5 c 0
 389.5 531 292.5 459 273.5 350 c 0
317.5 44 m 1
 446.5 39 l 1
 330 -85.5 l 1
 342.5 -82 357 -81 371 -81.5 c 0
 420 -83.5 460.5 -125.5 453 -187 c 0
 443 -259.5 369.5 -297.5 303 -299 c 0
 244.5 -300.5 196 -286.5 146 -258.5 c 1
 205 -183 l 1
 229.5 -199 261.5 -208.5 284 -208 c 0
 310 -207.5 345.5 -196 347 -172.5 c 0
 348.5 -148.5 315.5 -143.5 294 -143 c 0
 273 -142 236 -147.5 200.5 -157.5 c 1
 317.5 44 l 1
EndSplineSet
EndChar

StartChar: Egrave
Encoding: 200 200 193
Width: 601
VWidth: 0
Flags: HMW
LayerCount: 2
Fore
SplineSet
170.5 0 m 1
 198.5 158.5 l 1
 544.5 158.5 l 1
 516 0 l 1
 170.5 0 l 1
263 541.5 m 1
 291 700 l 1
 636.5 700 l 1
 608.5 541.5 l 1
 263 541.5 l 1
219 286.5 m 1
 246.5 440.5 l 1
 573 440.5 l 1
 545.5 286.5 l 1
 219 286.5 l 1
160.5 700 m 1
 346.5 700 l 1
 226.5 0 l 1
 41 0 l 1
 160.5 700 l 1
273 939 m 1
 403 993.5 l 1
 524 830 l 1
 425.5 786.5 l 1
 273 939 l 1
EndSplineSet
EndChar

StartChar: Eacute
Encoding: 201 201 194
Width: 601
VWidth: 0
Flags: HMW
LayerCount: 2
Fore
SplineSet
170.5 0 m 1
 198.5 158.5 l 1
 544.5 158.5 l 1
 516 0 l 1
 170.5 0 l 1
263 541.5 m 1
 291 700 l 1
 636.5 700 l 1
 608.5 541.5 l 1
 263 541.5 l 1
219 286.5 m 1
 246.5 440.5 l 1
 573 440.5 l 1
 545.5 286.5 l 1
 219 286.5 l 1
160.5 700 m 1
 346.5 700 l 1
 226.5 0 l 1
 41 0 l 1
 160.5 700 l 1
603 933 m 1
 406 787 l 1
 312 836 l 1
 482 992 l 1
 603 933 l 1
EndSplineSet
EndChar

StartChar: Ecircumflex
Encoding: 202 202 195
Width: 601
VWidth: 0
Flags: HMW
LayerCount: 2
Fore
SplineSet
170.5 0 m 1
 198.5 158.5 l 1
 544.5 158.5 l 1
 516 0 l 1
 170.5 0 l 1
263 541.5 m 1
 291 700 l 1
 636.5 700 l 1
 608.5 541.5 l 1
 263 541.5 l 1
219 286.5 m 1
 246.5 440.5 l 1
 573 440.5 l 1
 545.5 286.5 l 1
 219 286.5 l 1
160.5 700 m 1
 346.5 700 l 1
 226.5 0 l 1
 41 0 l 1
 160.5 700 l 1
437 889.5 m 1
 312.5 795 l 1
 266.5 837.5 l 1
 442.5 975 l 1
 579 832.5 l 1
 527 795 l 1
 437 889.5 l 1
EndSplineSet
EndChar

StartChar: Edieresis
Encoding: 203 203 196
Width: 601
VWidth: 0
Flags: HMW
LayerCount: 2
Fore
SplineSet
170.5 0 m 1
 198.5 158.5 l 1
 544.5 158.5 l 1
 516 0 l 1
 170.5 0 l 1
263 541.5 m 1
 291 700 l 1
 636.5 700 l 1
 608.5 541.5 l 1
 263 541.5 l 1
219 286.5 m 1
 246.5 440.5 l 1
 573 440.5 l 1
 545.5 286.5 l 1
 219 286.5 l 1
160.5 700 m 1
 346.5 700 l 1
 226.5 0 l 1
 41 0 l 1
 160.5 700 l 1
457.5 874 m 0
 464.5 925.5 514.5 962.5 566.5 962.5 c 0
 619 962.5 658.5 923.5 651.5 871 c 0
 644.5 819.5 595 782.5 543 782.5 c 0
 490.5 782.5 450.5 821.5 457.5 874 c 0
207.5 874 m 0
 214.5 925.5 264 962.5 316 962.5 c 0
 368.5 962.5 408.5 923.5 401.5 871 c 0
 394.5 819.5 344.5 782.5 292.5 782.5 c 0
 240 782.5 200.5 821.5 207.5 874 c 0
EndSplineSet
EndChar

StartChar: Igrave
Encoding: 204 204 197
Width: 333
VWidth: 0
Flags: HMW
LayerCount: 2
Fore
SplineSet
160.5 700 m 1
 358.5 700 l 1
 238.5 0 l 1
 41 0 l 1
 160.5 700 l 1
125.5 939 m 1
 256.5 993.5 l 1
 377.5 830 l 1
 278 786.5 l 1
 125.5 939 l 1
EndSplineSet
EndChar

StartChar: Iacute
Encoding: 205 205 198
Width: 333
VWidth: 0
Flags: HMW
LayerCount: 2
Fore
SplineSet
160.5 700 m 1
 358.5 700 l 1
 238.5 0 l 1
 41 0 l 1
 160.5 700 l 1
456 933 m 1
 259 787 l 1
 165 836 l 1
 334.5 992 l 1
 456 933 l 1
EndSplineSet
EndChar

StartChar: Icircumflex
Encoding: 206 206 199
Width: 333
VWidth: 0
Flags: HMW
LayerCount: 2
Fore
SplineSet
160.5 700 m 1
 358.5 700 l 1
 238.5 0 l 1
 41 0 l 1
 160.5 700 l 1
287.5 889.5 m 1
 163.5 795 l 1
 117.5 837.5 l 1
 294 975 l 1
 430 832.5 l 1
 378 795 l 1
 287.5 889.5 l 1
EndSplineSet
EndChar

StartChar: Idieresis
Encoding: 207 207 200
Width: 333
VWidth: 0
Flags: HMW
LayerCount: 2
Fore
SplineSet
160.5 700 m 1
 358.5 700 l 1
 238.5 0 l 1
 41 0 l 1
 160.5 700 l 1
317 870.5 m 0
 324 921.5 374 959 426 959 c 0
 478.5 959 518 920 511 867.5 c 0
 504 816 454 778.5 402 778.5 c 0
 349.5 778.5 310 818.5 317 870.5 c 0
67 870.5 m 0
 74 921.5 123 959 175 959 c 0
 227.5 959 268 920 261 867.5 c 0
 254 816 204 778.5 152 778.5 c 0
 99.5 778.5 60 818.5 67 870.5 c 0
EndSplineSet
EndChar

StartChar: Ntilde
Encoding: 209 209 201
Width: 775
VWidth: 0
Flags: HMW
LayerCount: 2
Fore
SplineSet
615 700 m 1
 801 700 l 1
 676 -33 l 1
 287 350.8295 l 1
 226.5 0 l 1
 41 0 l 1
 166 733 l 1
 554 348.9885 l 1
 615 700 l 1
268.5 850 m 1
 289.5 898 336 948 402 946.5 c 0
 457 945.5 478.5 892.5 529 894 c 0
 559.5 895 584 921 606 947.5 c 1
 673 861.5 l 1
 646 822.5 586.5 772 523 774.5 c 0
 473.5 776.5 438.5 831.5 391 828 c 0
 358 825.5 345 796 336.5 778 c 1
 268.5 850 l 1
EndSplineSet
EndChar

StartChar: Eth
Encoding: 208 208 202
Width: 727
VWidth: 0
Flags: HMW
LayerCount: 2
Fore
SplineSet
28 300 m 1
 47.5 408.5 l 1
 405.5 408.5 l 1
 386 300 l 1
 28 300 l 1
160.5 700 m 1
 362 700 l 1
 242 0 l 1
 41 0 l 1
 160.5 700 l 1
303.5 0 m 1
 170.5 0 l 1
 201 172 l 1
 314.5 172 l 1
 417 174 509.5 224 529.5 350 c 0
 548 471.5 485 525 385 527.5 c 2
 260 528.5 l 1
 290.5 700 l 1
 412 700 l 1
 632 697.5 762.5 557.5 731.5 350 c 0
 699 137.5 529.5 2.5 303.5 0 c 1
EndSplineSet
EndChar

StartChar: Ograve
Encoding: 210 210 203
Width: 806
VWidth: 0
Flags: HMW
LayerCount: 2
Fore
SplineSet
266.5 350 m 0
 251.5 252.5 291.5 162 398.5 160.5 c 0
 506.5 159 587.5 246 605.5 350 c 0
 621 448 583 538.5 473.5 539.5 c 0
 365.5 540.5 284.5 454 266.5 350 c 0
62 350 m 0
 94 561 277 718 493 718 c 0
 707 718 839.5 555 810 350 c 0
 778 138 598.5 -27 377 -26.5 c 0
 159 -26 32.5 145 62 350 c 0
384.5 939 m 1
 514.5 993.5 l 1
 635.5 830 l 1
 537 786.5 l 1
 384.5 939 l 1
EndSplineSet
EndChar

StartChar: Oacute
Encoding: 211 211 204
Width: 806
VWidth: 0
Flags: HMW
LayerCount: 2
Fore
SplineSet
266.5 350 m 0
 251.5 252.5 291.5 162 398.5 160.5 c 0
 506.5 159 587.5 246 605.5 350 c 0
 621 448 583 538.5 473.5 539.5 c 0
 365.5 540.5 284.5 454 266.5 350 c 0
62 350 m 0
 94 561 277 718 493 718 c 0
 707 718 839.5 555 810 350 c 0
 778 138 598.5 -27 377 -26.5 c 0
 159 -26 32.5 145 62 350 c 0
710 933 m 1
 513 787 l 1
 419 836 l 1
 588.5 992 l 1
 710 933 l 1
EndSplineSet
EndChar

StartChar: Ocircumflex
Encoding: 212 212 205
Width: 806
VWidth: 0
Flags: HMW
LayerCount: 2
Fore
SplineSet
266.5 350 m 0
 251.5 252.5 291.5 162 398.5 160.5 c 0
 506.5 159 587.5 246 605.5 350 c 0
 621 448 583 538.5 473.5 539.5 c 0
 365.5 540.5 284.5 454 266.5 350 c 0
62 350 m 0
 94 561 277 718 493 718 c 0
 707 718 839.5 555 810 350 c 0
 778 138 598.5 -27 377 -26.5 c 0
 159 -26 32.5 145 62 350 c 0
545.5 889.5 m 1
 421.5 795 l 1
 375 837.5 l 1
 551.5 975 l 1
 687.5 832.5 l 1
 635.5 795 l 1
 545.5 889.5 l 1
EndSplineSet
EndChar

StartChar: Otilde
Encoding: 213 213 206
Width: 806
VWidth: 0
Flags: HMW
LayerCount: 2
Fore
SplineSet
266.5 350 m 0
 251.5 252.5 291.5 162 398.5 160.5 c 0
 506.5 159 587.5 246 605.5 350 c 0
 621 448 583 538.5 473.5 539.5 c 0
 365.5 540.5 284.5 454 266.5 350 c 0
62 350 m 0
 94 561 277 718 493 718 c 0
 707 718 839.5 555 810 350 c 0
 778 138 598.5 -27 377 -26.5 c 0
 159 -26 32.5 145 62 350 c 0
365 855 m 1
 365 899 439 935 475.5 934.5 c 0
 527.5 934 541.5 888 588 889.5 c 0
 611.5 890.5 632 912 652 936.5 c 1
 694 891 l 1
 672 857 630.5 819 582.5 821 c 0
 536 822.5 515.5 867.5 474 866.5 c 0
 438.5 865.5 423 834.5 414.5 816.5 c 1
 365 855 l 1
EndSplineSet
EndChar

StartChar: Odieresis
Encoding: 214 214 207
Width: 806
VWidth: 0
Flags: HMW
LayerCount: 2
Fore
SplineSet
266.5 350 m 0
 251.5 252.5 291.5 162 398.5 160.5 c 0
 506.5 159 587.5 246 605.5 350 c 0
 621 448 583 538.5 473.5 539.5 c 0
 365.5 540.5 284.5 454 266.5 350 c 0
62 350 m 0
 94 561 277 718 493 718 c 0
 707 718 839.5 555 810 350 c 0
 778 138 598.5 -27 377 -26.5 c 0
 159 -26 32.5 145 62 350 c 0
553 870.5 m 0
 560 922 610 959 662 959 c 0
 714.5 959 754 920 747 867.5 c 0
 740 816 690.5 778.5 638.5 778.5 c 0
 586 778.5 546 818 553 870.5 c 0
303 870.5 m 0
 310 922 359 959 411 959 c 0
 463.5 959 504 920 497 867.5 c 0
 490 816 440 778.5 388 778.5 c 0
 335.5 778.5 296 818 303 870.5 c 0
EndSplineSet
EndChar

StartChar: Ugrave
Encoding: 217 217 208
Width: 703
VWidth: 0
Flags: HMW
LayerCount: 2
Fore
SplineSet
156 700 m 1
 350.5 700 l 1
 271 246.5 l 2
 264 191.5 280.5 142.5 344.5 141 c 0
 409.5 139.5 450 188.5 461 247 c 1
 539.5 700 l 1
 733 700 l 1
 653.5 230 l 2
 625.5 58 489.5 -34.5 324.5 -34.5 c 0
 164.5 -34.5 54 59 76.5 230 c 1
 156 700 l 1
317.5 931 m 1
 448 985 l 1
 568.5 821.5 l 1
 470 778 l 1
 317.5 931 l 1
EndSplineSet
EndChar

StartChar: Uacute
Encoding: 218 218 209
Width: 703
VWidth: 0
Flags: HMW
LayerCount: 2
Fore
SplineSet
156 700 m 1
 350.5 700 l 1
 271 246.5 l 2
 264 191.5 280.5 142.5 344.5 141 c 0
 409.5 139.5 450 188.5 461 247 c 1
 539.5 700 l 1
 733 700 l 1
 653.5 230 l 2
 625.5 58 489.5 -34.5 324.5 -34.5 c 0
 164.5 -34.5 54 59 76.5 230 c 1
 156 700 l 1
650.5 925 m 1
 453.5 779 l 1
 359.5 828 l 1
 529.5 984 l 1
 650.5 925 l 1
EndSplineSet
EndChar

StartChar: Ucircumflex
Encoding: 219 219 210
Width: 703
VWidth: 0
Flags: HMW
LayerCount: 2
Fore
SplineSet
156 700 m 1
 350.5 700 l 1
 271 246.5 l 2
 264 191.5 280.5 142.5 344.5 141 c 0
 409.5 139.5 450 188.5 461 247 c 1
 539.5 700 l 1
 733 700 l 1
 653.5 230 l 2
 625.5 58 489.5 -34.5 324.5 -34.5 c 0
 164.5 -34.5 54 59 76.5 230 c 1
 156 700 l 1
475.5 859.5 m 1
 379 778.5 l 1
 268.5 862.5 l 1
 491.5 999.5 l 1
 675 856 l 1
 544.5 777.5 l 1
 475.5 859.5 l 1
EndSplineSet
EndChar

StartChar: Udieresis
Encoding: 220 220 211
Width: 703
VWidth: 0
Flags: HMW
LayerCount: 2
Fore
SplineSet
156 700 m 1
 350.5 700 l 1
 271 246.5 l 2
 264 191.5 280.5 142.5 344.5 141 c 0
 409.5 139.5 450 188.5 461 247 c 1
 539.5 700 l 1
 733 700 l 1
 653.5 230 l 2
 625.5 58 489.5 -34.5 324.5 -34.5 c 0
 164.5 -34.5 54 59 76.5 230 c 1
 156 700 l 1
525.5 870.5 m 0
 532.5 922 582.5 959 634.5 959 c 0
 687 959 726.5 920 719.5 867.5 c 0
 712.5 816 662.5 778.5 610.5 778.5 c 0
 558 778.5 518.5 818 525.5 870.5 c 0
227 870.5 m 0
 234 922 284 959 336 959 c 0
 388.5 959 428 920 421 867.5 c 0
 414 816 364 778.5 312 778.5 c 0
 259.5 778.5 220 818 227 870.5 c 0
EndSplineSet
EndChar

StartChar: Yacute
Encoding: 221 221 212
Width: 671
VWidth: 0
Flags: HMW
LayerCount: 2
Fore
SplineSet
635 925 m 1
 438.5 778.5 l 1
 344 828 l 1
 514 984 l 1
 635 925 l 1
543.5 699.5 m 1
 772 699.5 l 1
 454.5 275 l 1
 408 0 l 1
 210 0 l 1
 260 283.5 l 1
 90.5 700 l 1
 309 700 l 1
 385 460.5 l 1
 543.5 699.5 l 1
EndSplineSet
EndChar

StartChar: agrave
Encoding: 224 224 213
Width: 612
VWidth: 0
Flags: HMW
LayerCount: 2
Fore
SplineSet
442.5 460 m 1
 615 460 l 1
 535.5 0 l 1
 363.5 0 l 1
 442.5 460 l 1
40.5 230.5 m 0
 58.5 368 166.5 470 287 470 c 0
 410.5 470 462.5 355 447 229.5 c 0
 429.5 97.5 338.5 -9.5 216 -9.5 c 0
 95.5 -9.5 24 98 40.5 230.5 c 0
221 229.5 m 0
 213.5 178.5 240 129 292 127.5 c 0
 342.5 126 393 174 402 230.5 c 0
 409.5 283 384 331 335 332.5 c 0
 281.5 334 230 284 221 229.5 c 0
224 683.5 m 1
 354.5 738 l 1
 475 574.5 l 1
 376.5 531 l 1
 224 683.5 l 1
EndSplineSet
Substitution2: "alt a" agrave.alt
EndChar

StartChar: aacute
Encoding: 225 225 214
Width: 612
VWidth: 0
Flags: HMW
LayerCount: 2
Fore
SplineSet
442.5 460 m 1
 615 460 l 1
 535.5 0 l 1
 363.5 0 l 1
 442.5 460 l 1
40.5 230.5 m 0
 58.5 368 166.5 470 287 470 c 0
 410.5 470 462.5 355 447 229.5 c 0
 429.5 97.5 338.5 -9.5 216 -9.5 c 0
 95.5 -9.5 24 98 40.5 230.5 c 0
221 229.5 m 0
 213.5 178.5 240 129 292 127.5 c 0
 342.5 126 393 174 402 230.5 c 0
 409.5 283 384 331 335 332.5 c 0
 281.5 334 230 284 221 229.5 c 0
544 677.5 m 1
 347 531.5 l 1
 253 580.5 l 1
 423 736.5 l 1
 544 677.5 l 1
EndSplineSet
Substitution2: "alt a" aacute.alt
EndChar

StartChar: acircumflex
Encoding: 226 226 215
Width: 612
VWidth: 0
Flags: HMW
LayerCount: 2
Fore
SplineSet
442.5 460 m 1
 615 460 l 1
 535.5 0 l 1
 363.5 0 l 1
 442.5 460 l 1
40.5 230.5 m 0
 58.5 368 166.5 470 287 470 c 0
 410.5 470 462.5 355 447 229.5 c 0
 429.5 97.5 338.5 -9.5 216 -9.5 c 0
 95.5 -9.5 24 98 40.5 230.5 c 0
221 229.5 m 0
 213.5 178.5 240 129 292 127.5 c 0
 342.5 126 393 174 402 230.5 c 0
 409.5 283 384 331 335 332.5 c 0
 281.5 334 230 284 221 229.5 c 0
396.5 612 m 1
 299.5 531 l 1
 188.5 615.5 l 1
 412 752.5 l 1
 596 609.5 l 1
 464.5 530 l 1
 396.5 612 l 1
EndSplineSet
Substitution2: "alt a" acircumflex.alt
EndChar

StartChar: atilde
Encoding: 227 227 216
Width: 612
VWidth: 0
Flags: HMW
LayerCount: 2
Fore
SplineSet
442.5 460 m 1
 615 460 l 1
 535.5 0 l 1
 363.5 0 l 1
 442.5 460 l 1
40.5 230.5 m 0
 58.5 368 166.5 470 287 470 c 0
 410.5 470 462.5 355 447 229.5 c 0
 429.5 97.5 338.5 -9.5 216 -9.5 c 0
 95.5 -9.5 24 98 40.5 230.5 c 0
221 229.5 m 0
 213.5 178.5 240 129 292 127.5 c 0
 342.5 126 393 174 402 230.5 c 0
 409.5 283 384 331 335 332.5 c 0
 281.5 334 230 284 221 229.5 c 0
198 607.5 m 1
 218 657.5 263.5 705 331.5 704.5 c 0
 387 704 407.5 650.5 458.5 652 c 0
 489 653 513.5 678.5 535.5 705 c 1
 603 619.5 l 1
 576 580.5 516.5 529.5 453 532 c 0
 403.5 534 369 589 321.5 585.5 c 0
 288.5 583 275 554 266.5 536 c 1
 198 607.5 l 1
EndSplineSet
Substitution2: "alt a" atilde.alt
EndChar

StartChar: adieresis
Encoding: 228 228 217
Width: 612
VWidth: 0
Flags: HMW
LayerCount: 2
Fore
SplineSet
442.5 460 m 1
 615 460 l 1
 535.5 0 l 1
 363.5 0 l 1
 442.5 460 l 1
40.5 230.5 m 0
 58.5 368 166.5 470 287 470 c 0
 410.5 470 462.5 355 447 229.5 c 0
 429.5 97.5 338.5 -9.5 216 -9.5 c 0
 95.5 -9.5 24 98 40.5 230.5 c 0
221 229.5 m 0
 213.5 178.5 240 129 292 127.5 c 0
 342.5 126 393 174 402 230.5 c 0
 409.5 283 384 331 335 332.5 c 0
 281.5 334 230 284 221 229.5 c 0
414 622.5 m 0
 421 674 470.5 711.5 522.5 711.5 c 0
 575 711.5 615 672 608 619.5 c 0
 601 568 551.5 531.5 499.5 531.5 c 0
 447 531.5 407 570 414 622.5 c 0
163.5 622.5 m 0
 170.5 674 220.5 711.5 272.5 711.5 c 0
 325 711.5 364.5 672 357.5 619.5 c 0
 350.5 568 300.5 531.5 248.5 531.5 c 0
 196 531.5 156.5 570 163.5 622.5 c 0
EndSplineSet
Substitution2: "alt a" adieresis.alt
EndChar

StartChar: aring
Encoding: 229 229 218
Width: 612
VWidth: 0
Flags: HMW
LayerCount: 2
Fore
SplineSet
442.5 460 m 1
 615 460 l 1
 535.5 0 l 1
 363.5 0 l 1
 442.5 460 l 1
40.5 230.5 m 0
 58.5 368 166.5 470 287 470 c 0
 410.5 470 462.5 355 447 229.5 c 0
 429.5 97.5 338.5 -9.5 216 -9.5 c 0
 95.5 -9.5 24 98 40.5 230.5 c 0
221 229.5 m 0
 213.5 178.5 240 129 292 127.5 c 0
 342.5 126 393 174 402 230.5 c 0
 409.5 283 384 331 335 332.5 c 0
 281.5 334 230 284 221 229.5 c 0
257 652.5 m 0
 266 721.5 330.5 772 401.5 772 c 0
 472.5 772 526.5 720.5 517 650.5 c 0
 508 581 441 531.5 369.5 531.5 c 0
 298.5 531.5 247.5 583 257 652.5 c 0
343 650.5 m 0
 340.5 628 352.5 607.5 375 606.5 c 0
 398.5 605.5 426.5 628.5 430 652.5 c 0
 432.5 675 419 696.5 396.5 697.5 c 0
 373 698.5 346.5 674.5 343 650.5 c 0
EndSplineSet
Substitution2: "alt a" aring.alt
EndChar

StartChar: germandbls
Encoding: 223 223 219
Width: 580
VWidth: 0
Flags: HMW
LayerCount: 2
Fore
SplineSet
271.5 147.5 m 1
 345 153.5 399 193.5 411.5 261 c 0
 424.5 324.5 381.5 352 297.5 355 c 1
 316.5 476 l 1
 472.5 471.5 601.5 379.5 578.5 224.5 c 0
 554.5 65 418.5 -5.5 248 -9.5 c 1
 271.5 147.5 l 1
306 409 m 1
 322 512.5 l 1
 382 515.5 422 535.5 428 580.5 c 0
 432.5 618.5 407.5 640.5 365.5 640.5 c 0
 318.5 640.5 288 618 281.5 581 c 2
 181 0 l 1
 16.5 0 l 1
 119.5 606.5 l 2
 140 729 255.5 798 384 798 c 0
 520.5 798 614.5 722 596.5 605.5 c 0
 576.5 475 457.5 412.5 306 409 c 1
EndSplineSet
EndChar

StartChar: ae
Encoding: 230 230 220
Width: 891
VWidth: 0
Flags: HMW
LayerCount: 2
Fore
SplineSet
188 137.5 m 0
 184.5 112 206 100 231.5 99 c 0
 283.5 96.5 324 132 336.5 188 c 1
 408 128.5 l 1
 386 36.5 310 -10 190.5 -9.5 c 0
 87.5 -9.5 0.5 35.5 14.5 129.5 c 0
 28 223.5 124 276 230 276.5 c 0
 289 277 348 258.5 380 231 c 1
 368 153 l 1
 339 175.5 310.5 188.5 267.5 187.5 c 0
 231.5 186.5 192.5 168.5 188 137.5 c 0
143.5 307 m 1
 105 423 l 1
 168.5 448.5 245.5 474.5 325 474 c 0
 439.5 473 478.5 418.5 465.5 322 c 1
 434 130 l 1
 328 130.5 l 1
 356 280.5 l 1
 360 317 340 341 296.5 343.5 c 0
 237.5 347 178 322 143.5 307 c 1
417 194 m 1
 431 283 l 1
 865.5 283 l 1
 866 193.5 l 1
 417 194 l 1
695.5 242 m 2
 702 300 702 355 643 358 c 0
 584.5 361 548.5 310 537 252 c 1
 530.5 229.5 l 1
 521.5 162.5 539.5 115 595.5 111.5 c 0
 642.5 109 680 132 705.5 161.5 c 1
 859.5 130.5 l 1
 800.5 46.5 715 -10 591.5 -10 c 0
 427.5 -9.5 378.5 95.5 399.5 230 c 0
 402 247 407.5 263 412.5 279 c 0
 449.5 391 547 470 682 470 c 0
 821 470 891 371 874.5 238 c 0
 872.5 226.5 870 210.5 866.5 194 c 1
 690.5 214.5 l 1
 695.5 242 l 2
EndSplineSet
EndChar

StartChar: ccedilla
Encoding: 231 231 221
Width: 483
VWidth: 0
Flags: HMW
LayerCount: 2
Fore
SplineSet
216.5 229.5 m 0
 207 170 242.5 128 302 126.5 c 0
 354 124.5 403.5 151 439 188 c 1
 415.5 25.5 l 1
 377 4 333 -10 272.5 -10 c 0
 124 -10 19 88 39.5 230.5 c 0
 61 375.5 190.5 470 343.5 470 c 0
 403 470 445 455 482 435.5 c 1
 457.5 272 l 1
 432 312.5 390.5 335 347 334.5 c 0
 286 334 227 287.5 216.5 229.5 c 0
204 60.5 m 1
 333 55.5 l 1
 216 -69 l 1
 228.5 -65.5 243.5 -64.5 257.5 -65 c 0
 306.5 -67 347 -109 339.5 -170.5 c 0
 329.5 -243 254.5 -281 188 -282.5 c 0
 129.5 -284 82.5 -269.5 32.5 -241.5 c 1
 91.5 -166.5 l 1
 116 -182.5 147 -192 169.5 -191.5 c 0
 195.5 -191 232 -179.5 233.5 -156 c 0
 235 -132 201.5 -127 180 -126.5 c 0
 159 -125.5 122 -131 86.5 -141 c 1
 204 60.5 l 1
EndSplineSet
EndChar

StartChar: egrave
Encoding: 232 232 222
Width: 575
VWidth: 0
Flags: HMW
LayerCount: 2
Fore
SplineSet
130 194 m 1
 144 282.5 l 1
 380.5 283.5 l 1
 379 324.5 369.5 356.5 325 358.5 c 0
 266.5 361 231 309 219.5 251.5 c 1
 213 229.5 l 1
 204 162.5 223 115 278.5 111.5 c 0
 325.5 109 362.5 132 388 161.5 c 1
 542 130.5 l 1
 483 46 398.5 -10 274.5 -10 c 0
 112.5 -10 20.5 89.5 41 230 c 0
 43.5 247 47 263 52 279 c 0
 89.5 395 194 470 339 470 c 0
 494.5 470 575.5 379 557.5 238 c 0
 555.5 226.5 553 210.5 549.5 194 c 1
 130 194 l 1
213.5 685 m 1
 344 739.5 l 1
 464.5 576 l 1
 366 532 l 1
 213.5 685 l 1
EndSplineSet
EndChar

StartChar: eacute
Encoding: 233 233 223
Width: 575
VWidth: 0
Flags: HMW
LayerCount: 2
Fore
SplineSet
130 194 m 1
 144 282.5 l 1
 380.5 283.5 l 1
 379 324.5 369.5 356.5 325 358.5 c 0
 266.5 361 231 309 219.5 251.5 c 1
 213 229.5 l 1
 204 162.5 223 115 278.5 111.5 c 0
 325.5 109 362.5 132 388 161.5 c 1
 542 130.5 l 1
 483 46 398.5 -10 274.5 -10 c 0
 112.5 -10 20.5 89.5 41 230 c 0
 43.5 247 47 263 52 279 c 0
 89.5 395 194 470 339 470 c 0
 494.5 470 575.5 379 557.5 238 c 0
 555.5 226.5 553 210.5 549.5 194 c 1
 130 194 l 1
553.5 679 m 1
 356.5 533 l 1
 262.5 582.5 l 1
 432 738 l 1
 553.5 679 l 1
EndSplineSet
EndChar

StartChar: ecircumflex
Encoding: 234 234 224
Width: 575
VWidth: 0
Flags: HMW
LayerCount: 2
Fore
SplineSet
130 194 m 1
 144 282.5 l 1
 380.5 283.5 l 1
 379 324.5 369.5 356.5 325 358.5 c 0
 266.5 361 231 309 219.5 251.5 c 1
 213 229.5 l 1
 204 162.5 223 115 278.5 111.5 c 0
 325.5 109 362.5 132 388 161.5 c 1
 542 130.5 l 1
 483 46 398.5 -10 274.5 -10 c 0
 112.5 -10 20.5 89.5 41 230 c 0
 43.5 247 47 263 52 279 c 0
 89.5 395 194 470 339 470 c 0
 494.5 470 575.5 379 557.5 238 c 0
 555.5 226.5 553 210.5 549.5 194 c 1
 130 194 l 1
373 612 m 1
 276.5 531 l 1
 165.5 615.5 l 1
 388.5 752.5 l 1
 572 609.5 l 1
 441 530 l 1
 373 612 l 1
EndSplineSet
EndChar

StartChar: edieresis
Encoding: 235 235 225
Width: 575
VWidth: 0
Flags: HMW
LayerCount: 2
Fore
SplineSet
130 194 m 1
 144 282.5 l 1
 380.5 283.5 l 1
 379 324.5 369.5 356.5 325 358.5 c 0
 266.5 361 231 309 219.5 251.5 c 1
 213 229.5 l 1
 204 162.5 223 115 278.5 111.5 c 0
 325.5 109 362.5 132 388 161.5 c 1
 542 130.5 l 1
 483 46 398.5 -10 274.5 -10 c 0
 112.5 -10 20.5 89.5 41 230 c 0
 43.5 247 47 263 52 279 c 0
 89.5 395 194 470 339 470 c 0
 494.5 470 575.5 379 557.5 238 c 0
 555.5 226.5 553 210.5 549.5 194 c 1
 130 194 l 1
398.5 622.5 m 0
 405.5 674 455.5 711.5 507.5 711.5 c 0
 560 711.5 599.5 672 592.5 619.5 c 0
 585.5 568 535.5 531.5 483.5 531.5 c 0
 431 531.5 391.5 570 398.5 622.5 c 0
148 622.5 m 0
 155 674 205 711.5 257 711.5 c 0
 309.5 711.5 349 672 342 619.5 c 0
 335 568 285.5 531.5 233.5 531.5 c 0
 181 531.5 141 570 148 622.5 c 0
EndSplineSet
EndChar

StartChar: igrave
Encoding: 236 236 226
Width: 273
VWidth: 0
Flags: HMW
LayerCount: 2
Fore
SplineSet
104.5 460 m 1
 271.5 460 l 1
 192.5 0 l 1
 26 0 l 1
 104.5 460 l 1
45 686.5 m 1
 176 741.5 l 1
 297 578 l 1
 197.5 534 l 1
 45 686.5 l 1
EndSplineSet
EndChar

StartChar: dotlessi
Encoding: 305 305 227
Width: 273
VWidth: 0
Flags: HMW
LayerCount: 2
Fore
SplineSet
104.5 460 m 1
 271.5 460 l 1
 192.5 0 l 1
 26 0 l 1
 104.5 460 l 1
EndSplineSet
EndChar

StartChar: kgreenlandic
Encoding: 312 312 228
Width: 602
VWidth: 0
Flags: HMW
LayerCount: 2
Fore
SplineSet
102 460 m 1
 267 460 l 1
 188 0 l 1
 23.5 0 l 1
 102 460 l 1
422.5 459.5 m 1
 633 459.5 l 1
 404 266.5 l 1
 566 0 l 1
 373.5 0 l 1
 204.5 274.5 l 1
 422.5 459.5 l 1
EndSplineSet
EndChar

StartChar: iacute
Encoding: 237 237 229
Width: 273
VWidth: 0
Flags: HMW
LayerCount: 2
Fore
SplineSet
104.5 460 m 1
 271.5 460 l 1
 192.5 0 l 1
 26 0 l 1
 104.5 460 l 1
398 680.5 m 1
 201 534.5 l 1
 107 584 l 1
 277 740 l 1
 398 680.5 l 1
EndSplineSet
EndChar

StartChar: icircumflex
Encoding: 238 238 230
Width: 273
VWidth: 0
Flags: HMW
LayerCount: 2
Fore
SplineSet
104.5 460 m 1
 271.5 460 l 1
 192.5 0 l 1
 26 0 l 1
 104.5 460 l 1
217.5 614 m 1
 121 532.5 l 1
 10 617 l 1
 233 754 l 1
 417 610.5 l 1
 286.5 531.5 l 1
 217.5 614 l 1
EndSplineSet
EndChar

StartChar: idieresis
Encoding: 239 239 231
Width: 273
VWidth: 0
Flags: HMW
LayerCount: 2
Fore
SplineSet
104.5 460 m 1
 271.5 460 l 1
 192.5 0 l 1
 26 0 l 1
 104.5 460 l 1
244.5 628 m 0
 251.5 679.5 301.5 716.5 353.5 716.5 c 0
 406 716.5 445.5 677.5 438.5 625 c 0
 431.5 573.5 382 536 330 536 c 0
 277.5 536 237.5 575.5 244.5 628 c 0
-6 628 m 0
 1 679.5 51 716.5 103 716.5 c 0
 155.5 716.5 195.5 677.5 188.5 625 c 0
 181.5 573.5 131.5 536 79.5 536 c 0
 27 536 -13 575.5 -6 628 c 0
EndSplineSet
EndChar

StartChar: ntilde
Encoding: 241 241 232
Width: 573
VWidth: 0
Flags: HMW
LayerCount: 2
Fore
SplineSet
276 460 m 1
 197 0 l 1
 24 0 l 1
 103 460 l 1
 276 460 l 1
364.5 280 m 1
 368 317 366 350.5 325 354 c 0
 283.5 357.5 254 319.5 245 280.5 c 1
 215 273 l 1
 233 376 290 470 407.5 471 c 0
 521.5 472 558.5 399.5 545.5 298 c 1
 495 0 l 1
 314.5 0 l 1
 364.5 280 l 1
162.5 608 m 1
 183.5 656 229.5 706 295.5 704.5 c 0
 351 703.5 372 650.5 423 652 c 0
 453.5 653 478 678.5 500 705 c 1
 567.5 619.5 l 1
 540.5 580.5 480.5 529.5 417 532 c 0
 367.5 534 333 589 285.5 585.5 c 0
 252.5 583 238 554 229.5 536 c 1
 162.5 608 l 1
EndSplineSet
EndChar

StartChar: ograve
Encoding: 242 242 233
Width: 585
VWidth: 0
Flags: HMW
LayerCount: 2
Fore
SplineSet
40.5 230.5 m 0
 61.5 374 191 471 341 471 c 0
 487 471 590 370.5 570 229.5 c 0
 549 86 419.5 -10 270 -10 c 0
 124 -10 20.5 89.5 40.5 230.5 c 0
217 229.5 m 0
 209.5 178 234 133.5 284.5 132 c 0
 336.5 130.5 384.5 175 393.5 230.5 c 0
 401 282 377 327.5 326.5 329 c 0
 274.5 330.5 226 285 217 229.5 c 0
228.5 686.5 m 1
 358.5 741.5 l 1
 479.5 578 l 1
 380.5 534 l 1
 228.5 686.5 l 1
EndSplineSet
EndChar

StartChar: oacute
Encoding: 243 243 234
Width: 585
VWidth: 0
Flags: HMW
LayerCount: 2
Fore
SplineSet
40.5 230.5 m 0
 61.5 374 191 471 341 471 c 0
 487 471 590 370.5 570 229.5 c 0
 549 86 419.5 -10 270 -10 c 0
 124 -10 20.5 89.5 40.5 230.5 c 0
217 229.5 m 0
 209.5 178 234 133.5 284.5 132 c 0
 336.5 130.5 384.5 175 393.5 230.5 c 0
 401 282 377 327.5 326.5 329 c 0
 274.5 330.5 226 285 217 229.5 c 0
539.5 680.5 m 1
 342.5 534.5 l 1
 248.5 584 l 1
 418 740 l 1
 539.5 680.5 l 1
EndSplineSet
EndChar

StartChar: ocircumflex
Encoding: 244 244 235
Width: 585
VWidth: 0
Flags: HMW
LayerCount: 2
Fore
SplineSet
40.5 230.5 m 0
 61.5 374 191 471 341 471 c 0
 487 471 590 370.5 570 229.5 c 0
 549 86 419.5 -10 270 -10 c 0
 124 -10 20.5 89.5 40.5 230.5 c 0
217 229.5 m 0
 209.5 178 234 133.5 284.5 132 c 0
 336.5 130.5 384.5 175 393.5 230.5 c 0
 401 282 377 327.5 326.5 329 c 0
 274.5 330.5 226 285 217 229.5 c 0
375 616 m 1
 279 534 l 1
 168 619 l 1
 390.5 755.5 l 1
 574.5 612.5 l 1
 443.5 533 l 1
 375 616 l 1
EndSplineSet
EndChar

StartChar: otilde
Encoding: 245 245 236
Width: 585
VWidth: 0
Flags: HMW
LayerCount: 2
Fore
SplineSet
40.5 230.5 m 0
 61.5 374 191 471 341 471 c 0
 487 471 590 370.5 570 229.5 c 0
 549 86 419.5 -10 270 -10 c 0
 124 -10 20.5 89.5 40.5 230.5 c 0
217 229.5 m 0
 209.5 178 234 133.5 284.5 132 c 0
 336.5 130.5 384.5 175 393.5 230.5 c 0
 401 282 377 327.5 326.5 329 c 0
 274.5 330.5 226 285 217 229.5 c 0
168.5 607.5 m 1
 168.5 657.5 248.5 705 302 704.5 c 0
 357.5 704 377.5 650.5 428.5 652 c 0
 459 653 484 678.5 506 705 c 1
 573.5 619.5 l 1
 546.5 580.5 486.5 529.5 423 532 c 0
 373.5 534 338.5 589 291 585.5 c 0
 258 583 245 554 236.5 536 c 1
 168.5 607.5 l 1
EndSplineSet
EndChar

StartChar: odieresis
Encoding: 246 246 237
Width: 585
VWidth: 0
Flags: HMW
LayerCount: 2
Fore
SplineSet
40.5 230.5 m 0
 61.5 374 191 471 341 471 c 0
 487 471 590 370.5 570 229.5 c 0
 549 86 419.5 -10 270 -10 c 0
 124 -10 20.5 89.5 40.5 230.5 c 0
217 229.5 m 0
 209.5 178 234 133.5 284.5 132 c 0
 336.5 130.5 384.5 175 393.5 230.5 c 0
 401 282 377 327.5 326.5 329 c 0
 274.5 330.5 226 285 217 229.5 c 0
401 628 m 0
 408 679.5 458 716.5 510 716.5 c 0
 562.5 716.5 602 677.5 595 625 c 0
 588 573.5 538 536 486 536 c 0
 433.5 536 394 575.5 401 628 c 0
150.5 628 m 0
 157.5 679.5 207.5 716.5 259.5 716.5 c 0
 312 716.5 351.5 677.5 344.5 625 c 0
 337.5 573.5 288 536 236 536 c 0
 183.5 536 143.5 575.5 150.5 628 c 0
EndSplineSet
EndChar

StartChar: ugrave
Encoding: 249 249 238
Width: 573
VWidth: 0
Flags: HMW
LayerCount: 2
Fore
SplineSet
322 0 m 1
 401.5 460 l 1
 574.5 460 l 1
 495 0 l 1
 322 0 l 1
234 180 m 1
 230.5 143 232 109.5 273 106 c 0
 314.5 102.5 344.5 140.5 353.5 179.5 c 1
 383.5 187 l 1
 365.5 84 307.5 -10 190 -11 c 0
 76 -12 39.5 60.5 52.5 162 c 1
 103 460 l 1
 284 460 l 1
 234 180 l 1
228 686.5 m 1
 359 741.5 l 1
 479.5 578 l 1
 380.5 534 l 1
 228 686.5 l 1
EndSplineSet
EndChar

StartChar: uacute
Encoding: 250 250 239
Width: 573
VWidth: 0
Flags: HMW
LayerCount: 2
Fore
SplineSet
322 0 m 1
 401.5 460 l 1
 574.5 460 l 1
 495 0 l 1
 322 0 l 1
234 180 m 1
 230.5 143 232 109.5 273 106 c 0
 314.5 102.5 344.5 140.5 353.5 179.5 c 1
 383.5 187 l 1
 365.5 84 307.5 -10 190 -11 c 0
 76 -12 39.5 60.5 52.5 162 c 1
 103 460 l 1
 284 460 l 1
 234 180 l 1
525.5 680.5 m 1
 329 534.5 l 1
 235.5 584 l 1
 405.5 740 l 1
 525.5 680.5 l 1
EndSplineSet
EndChar

StartChar: ucircumflex
Encoding: 251 251 240
Width: 573
VWidth: 0
Flags: HMW
LayerCount: 2
Fore
SplineSet
322 0 m 1
 401.5 460 l 1
 574.5 460 l 1
 495 0 l 1
 322 0 l 1
234 180 m 1
 230.5 143 232 109.5 273 106 c 0
 314.5 102.5 344.5 140.5 353.5 179.5 c 1
 383.5 187 l 1
 365.5 84 307.5 -10 190 -11 c 0
 76 -12 39.5 60.5 52.5 162 c 1
 103 460 l 1
 284 460 l 1
 234 180 l 1
368.5 616 m 1
 271.5 534 l 1
 161 619 l 1
 383.5 755.5 l 1
 568 612.5 l 1
 436.5 533 l 1
 368.5 616 l 1
EndSplineSet
EndChar

StartChar: udieresis
Encoding: 252 252 241
Width: 573
VWidth: 0
Flags: HMW
LayerCount: 2
Fore
SplineSet
322 0 m 1
 401.5 460 l 1
 574.5 460 l 1
 495 0 l 1
 322 0 l 1
234 180 m 1
 230.5 143 232 109.5 273 106 c 0
 314.5 102.5 344.5 140.5 353.5 179.5 c 1
 383.5 187 l 1
 365.5 84 307.5 -10 190 -11 c 0
 76 -12 39.5 60.5 52.5 162 c 1
 103 460 l 1
 284 460 l 1
 234 180 l 1
395.5 626 m 0
 402.5 677 451.5 715 503.5 715 c 0
 556 715 596.5 675.5 589.5 623 c 0
 582.5 571.5 532.5 534.5 480.5 534.5 c 0
 428 534.5 388.5 574 395.5 626 c 0
145 626 m 0
 152 677 201.5 715 253.5 715 c 0
 306 715 345.5 675.5 338.5 623 c 0
 331.5 571.5 282 534.5 230 534.5 c 0
 177.5 534.5 138 574 145 626 c 0
EndSplineSet
EndChar

StartChar: yacute
Encoding: 253 253 242
Width: 530
VWidth: 0
Flags: HMW
LayerCount: 2
Fore
SplineSet
599 459.5 m 1
 191 -219.5 l 1
 16 -219.5 l 1
 167 32.5 l 1
 40.5 460 l 1
 223.5 460 l 1
 304 87.5 l 1
 211.5 88.5 l 1
 420 459.5 l 1
 599 459.5 l 1
522.5 680.5 m 1
 325.5 534.5 l 1
 232.5 584 l 1
 402 740 l 1
 522.5 680.5 l 1
EndSplineSet
EndChar

StartChar: thorn
Encoding: 254 254 243
Width: 612
VWidth: 0
Flags: HMW
LayerCount: 2
Fore
SplineSet
158.5 -220 m 1
 -14.5 -220 l 1
 156.5 780 l 1
 329.5 780 l 1
 158.5 -220 l 1
597 229.5 m 0
 579 92 471.5 -10 351 -10 c 0
 227.5 -10 174 105 189.5 230.5 c 0
 207 362.5 299.5 469.5 422 469.5 c 0
 542.5 469.5 613.5 362 597 229.5 c 0
417 230.5 m 0
 424.5 281.5 398 331 346 332.5 c 0
 295.5 334 243 286 234 229.5 c 0
 226.5 177 254.5 129 303.5 127.5 c 0
 357 126 408 176 417 230.5 c 0
EndSplineSet
EndChar

StartChar: ydieresis
Encoding: 255 255 244
Width: 530
VWidth: 0
Flags: HMW
LayerCount: 2
Fore
SplineSet
599 459.5 m 1
 191 -219.5 l 1
 16 -219.5 l 1
 167 32.5 l 1
 40.5 460 l 1
 223.5 460 l 1
 304 87.5 l 1
 211.5 88.5 l 1
 420 459.5 l 1
 599 459.5 l 1
373 622.5 m 0
 380 674 430 711.5 482 711.5 c 0
 534.5 711.5 574 672 567 619.5 c 0
 560 568 510 531.5 458 531.5 c 0
 405.5 531.5 366 570 373 622.5 c 0
122.5 622.5 m 0
 129.5 674 179 711.5 231 711.5 c 0
 283.5 711.5 323.5 672 316.5 619.5 c 0
 309.5 568 260 531.5 208 531.5 c 0
 155.5 531.5 115.5 570 122.5 622.5 c 0
EndSplineSet
EndChar

StartChar: Amacron
Encoding: 256 256 245
Width: 736
VWidth: 0
Flags: HMW
LayerCount: 2
Fore
SplineSet
180.5 111 m 1
 211.5 255 l 1
 563.5 255.5 l 1
 543 111 l 1
 180.5 111 l 1
414 409.5 m 1
 288.5 202 l 1
 294 157 l 1
 190 0 l 1
 -34.5 0 l 1
 467.5 749.5 l 1
 711.5 0 l 1
 497.5 0 l 1
 444.5 151 l 1
 465 201 l 1
 414 409.5 l 1
294 807.5 m 1
 320.5 957 l 1
 690.5 957 l 1
 664 807.5 l 1
 294 807.5 l 1
EndSplineSet
EndChar

StartChar: amacron
Encoding: 257 257 246
Width: 612
VWidth: 0
Flags: HMW
LayerCount: 2
Fore
SplineSet
442.5 460 m 1
 615 460 l 1
 535.5 0 l 1
 363.5 0 l 1
 442.5 460 l 1
40.5 230.5 m 0
 58.5 368 166.5 470 287 470 c 0
 410.5 470 462.5 355 447 229.5 c 0
 429.5 97.5 338.5 -9.5 216 -9.5 c 0
 95.5 -9.5 24 98 40.5 230.5 c 0
221 229.5 m 0
 213.5 178.5 240 129 292 127.5 c 0
 342.5 126 393 174 402 230.5 c 0
 409.5 283 384 331 335 332.5 c 0
 281.5 334 230 284 221 229.5 c 0
191 532.5 m 1
 217 681.5 l 1
 588.5 681.5 l 1
 562 532.5 l 1
 191 532.5 l 1
EndSplineSet
Substitution2: "alt a" amacron.alt
EndChar

StartChar: breve
Encoding: 728 728 247
Width: 529
VWidth: 0
Flags: HMW
LayerCount: 2
Fore
SplineSet
215.5 850 m 1
 319.5 850 l 1
 320.5 819 335.5 798 365.5 796 c 0
 396.5 794 423 819.5 431.5 849.5 c 1
 540 849 l 1
 523.5 765 460 703 360.5 702.5 c 0
 261.5 702 211 764 215.5 850 c 1
EndSplineSet
EndChar

StartChar: Abreve
Encoding: 258 258 248
Width: 736
VWidth: 0
Flags: HMW
LayerCount: 2
Fore
SplineSet
180.5 111 m 1
 211.5 255 l 1
 563.5 255.5 l 1
 543 111 l 1
 180.5 111 l 1
414 409.5 m 1
 288.5 202 l 1
 294 157 l 1
 190 0 l 1
 -34.5 0 l 1
 467.5 749.5 l 1
 711.5 0 l 1
 497.5 0 l 1
 444.5 151 l 1
 465 201 l 1
 414 409.5 l 1
341 955.5 m 1
 445.5 955.5 l 1
 446 924.5 459.5 903.5 489.5 901.5 c 0
 520.5 899.5 547.5 925 556.5 955 c 1
 665.5 954 l 1
 648 870 583.5 808.5 484 808 c 0
 384.5 807.5 335.5 870 341 955.5 c 1
EndSplineSet
EndChar

StartChar: abreve
Encoding: 259 259 249
Width: 612
VWidth: 0
Flags: HMW
LayerCount: 2
Fore
SplineSet
442.5 460 m 1
 615 460 l 1
 535.5 0 l 1
 363.5 0 l 1
 442.5 460 l 1
40.5 230.5 m 0
 58.5 368 166.5 470 287 470 c 0
 410.5 470 462.5 355 447 229.5 c 0
 429.5 97.5 338.5 -9.5 216 -9.5 c 0
 95.5 -9.5 24 98 40.5 230.5 c 0
221 229.5 m 0
 213.5 178.5 240 129 292 127.5 c 0
 342.5 126 393 174 402 230.5 c 0
 409.5 283 384 331 335 332.5 c 0
 281.5 334 230 284 221 229.5 c 0
225.5 679 m 1
 330 679 l 1
 330.5 648 345 627 375 625 c 0
 406 623 433 648.5 441.5 678.5 c 1
 550.5 677.5 l 1
 533 593.5 469 532 369.5 531.5 c 0
 270 531 220 593.5 225.5 679 c 1
EndSplineSet
Substitution2: "alt a" abreve.alt
EndChar

StartChar: Aogonek
Encoding: 260 260 250
Width: 736
VWidth: 0
Flags: HMW
LayerCount: 2
Fore
SplineSet
180.5 111 m 1
 211.5 255 l 1
 563.5 255.5 l 1
 543 111 l 1
 180.5 111 l 1
414 409.5 m 1
 288.5 202 l 1
 294 157 l 1
 190 0 l 1
 -34.5 0 l 1
 467.5 749.5 l 1
 711.5 0 l 1
 497.5 0 l 1
 444.5 151 l 1
 465 201 l 1
 414 409.5 l 1
634 -105 m 1
 656 -181.5 l 1
 632.5 -202.5 600 -220.5 551 -220 c 0
 492.5 -219.5 443.5 -182 451 -119 c 0
 461 -47.5 541.5 -8 608.5 25 c 1
 650 0 l 1
 607 -27.5 565.5 -55.5 558.5 -92 c 0
 557 -109.5 561.5 -123.5 580.5 -125 c 0
 598 -126.5 619.5 -115 634 -105 c 1
EndSplineSet
EndChar

StartChar: aogonek
Encoding: 261 261 251
Width: 612
VWidth: 0
Flags: HMW
LayerCount: 2
Fore
SplineSet
442.5 460 m 1
 615 460 l 1
 535.5 0 l 1
 363.5 0 l 1
 442.5 460 l 1
40.5 230.5 m 0
 58.5 368 166.5 470 287 470 c 0
 410.5 470 462.5 355 447 229.5 c 0
 429.5 97.5 338.5 -9.5 216 -9.5 c 0
 95.5 -9.5 24 98 40.5 230.5 c 0
221 229.5 m 0
 213.5 178.5 240 129 292 127.5 c 0
 342.5 126 393 174 402 230.5 c 0
 409.5 283 384 331 335 332.5 c 0
 281.5 334 230 284 221 229.5 c 0
480 -105 m 1
 501 -181.5 l 1
 477.5 -202.5 445 -220.5 396 -220 c 0
 337.5 -219.5 289.5 -182 297 -119 c 0
 307 -47.5 388 -8 455 25 c 1
 494.5 0 l 1
 451.5 -27.5 412 -55.5 405 -92 c 0
 403.5 -109.5 408 -123.5 427 -125 c 0
 444.5 -126.5 465.5 -115 480 -105 c 1
EndSplineSet
Substitution2: "alt a" aogonek.alt
EndChar

StartChar: Cacute
Encoding: 262 262 252
Width: 684
VWidth: 0
Flags: HMW
LayerCount: 2
Fore
SplineSet
273.5 350 m 0
 256 245.5 320 170 424.5 168.5 c 0
 516 167.5 584 211 640.5 255.5 c 1
 609.5 50.5 l 1
 547.5 10.5 481 -18 390 -18 c 0
 167.5 -18 31 141 62 350 c 0
 94.5 565 277 718.5 504.5 718 c 0
 592 718 652 691.5 708.5 649 c 1
 677 443.5 l 1
 635.5 494 581 531.5 496.5 531.5 c 0
 389.5 531 292.5 459 273.5 350 c 0
673 925 m 1
 476 779 l 1
 383 828 l 1
 552.5 984 l 1
 673 925 l 1
EndSplineSet
EndChar

StartChar: cacute
Encoding: 263 263 253
Width: 483
VWidth: 0
Flags: HMW
LayerCount: 2
Fore
SplineSet
216.5 229.5 m 0
 207 170 242.5 128 302 126.5 c 0
 354 124.5 403.5 151 439 188 c 1
 415.5 25.5 l 1
 377 4 333 -10 272.5 -10 c 0
 124 -10 19 88 39.5 230.5 c 0
 61 375.5 190.5 470 343.5 470 c 0
 403 470 445 455 482 435.5 c 1
 457.5 272 l 1
 432 312.5 390.5 335 347 334.5 c 0
 286 334 227 287.5 216.5 229.5 c 0
512.5 677.5 m 1
 315.5 531.5 l 1
 222 580.5 l 1
 392 736.5 l 1
 512.5 677.5 l 1
EndSplineSet
EndChar

StartChar: Ccircumflex
Encoding: 264 264 254
Width: 684
VWidth: 0
Flags: HMW
LayerCount: 2
Fore
SplineSet
273.5 350 m 0
 256 245.5 320 170 424.5 168.5 c 0
 516 167.5 584 211 640.5 255.5 c 1
 609.5 50.5 l 1
 547.5 10.5 481 -18 390 -18 c 0
 167.5 -18 31 141 62 350 c 0
 94.5 565 277 718.5 504.5 718 c 0
 592 718 652 691.5 708.5 649 c 1
 677 443.5 l 1
 635.5 494 581 531.5 496.5 531.5 c 0
 389.5 531 292.5 459 273.5 350 c 0
538 859.5 m 1
 441.5 778.5 l 1
 331 862.5 l 1
 553.5 999.5 l 1
 738 856 l 1
 606.5 777.5 l 1
 538 859.5 l 1
EndSplineSet
EndChar

StartChar: ccircumflex
Encoding: 265 265 255
Width: 483
VWidth: 0
Flags: HMW
LayerCount: 2
Fore
SplineSet
216.5 229.5 m 0
 207 170 242.5 128 302 126.5 c 0
 354 124.5 403.5 151 439 188 c 1
 415.5 25.5 l 1
 377 4 333 -10 272.5 -10 c 0
 124 -10 19 88 39.5 230.5 c 0
 61 375.5 190.5 470 343.5 470 c 0
 403 470 445 455 482 435.5 c 1
 457.5 272 l 1
 432 312.5 390.5 335 347 334.5 c 0
 286 334 227 287.5 216.5 229.5 c 0
337.5 612 m 1
 241 531 l 1
 130.5 615.5 l 1
 353 752.5 l 1
 537 609.5 l 1
 406 530 l 1
 337.5 612 l 1
EndSplineSet
EndChar

StartChar: Cdotaccent
Encoding: 266 266 256
Width: 684
VWidth: 0
Flags: HMW
LayerCount: 2
Fore
SplineSet
273.5 350 m 0
 256 245.5 320 170 424.5 168.5 c 0
 516 167.5 584 211 640.5 255.5 c 1
 609.5 50.5 l 1
 547.5 10.5 481 -18 390 -18 c 0
 167.5 -18 31 141 62 350 c 0
 94.5 565 277 718.5 504.5 718 c 0
 592 718 652 691.5 708.5 649 c 1
 677 443.5 l 1
 635.5 494 581 531.5 496.5 531.5 c 0
 389.5 531 292.5 459 273.5 350 c 0
406.5 870.5 m 0
 413.5 922 463.5 959 515.5 959 c 0
 568 959 608 920 601 867.5 c 0
 594 816 544 778.5 492 778.5 c 0
 439.5 778.5 399.5 818 406.5 870.5 c 0
EndSplineSet
EndChar

StartChar: cdotaccent
Encoding: 267 267 257
Width: 483
VWidth: 0
Flags: HMW
LayerCount: 2
Fore
SplineSet
216.5 229.5 m 0
 207 170 242.5 128 302 126.5 c 0
 354 124.5 403.5 151 439 188 c 1
 415.5 25.5 l 1
 377 4 333 -10 272.5 -10 c 0
 124 -10 19 88 39.5 230.5 c 0
 61 375.5 190.5 470 343.5 470 c 0
 403 470 445 455 482 435.5 c 1
 457.5 272 l 1
 432 312.5 390.5 335 347 334.5 c 0
 286 334 227 287.5 216.5 229.5 c 0
247.5 630.5 m 0
 254.5 682 304.5 719.5 356.5 719.5 c 0
 409 719.5 448.5 680.5 441.5 628 c 0
 434.5 576.5 385 539.5 333 539.5 c 0
 280.5 539.5 240.5 578 247.5 630.5 c 0
EndSplineSet
EndChar

StartChar: Ccaron
Encoding: 268 268 258
Width: 684
VWidth: 0
Flags: HMW
LayerCount: 2
Fore
SplineSet
273.5 350 m 0
 256 245.5 320 170 424.5 168.5 c 0
 516 167.5 584 211 640.5 255.5 c 1
 609.5 50.5 l 1
 547.5 10.5 481 -18 390 -18 c 0
 167.5 -18 31 141 62 350 c 0
 94.5 565 277 718.5 504.5 718 c 0
 592 718 652 691.5 708.5 649 c 1
 677 443.5 l 1
 635.5 494 581 531.5 496.5 531.5 c 0
 389.5 531 292.5 459 273.5 350 c 0
540 918.5 m 1
 637 999.5 l 1
 747.5 915 l 1
 524.5 778 l 1
 340.5 921.5 l 1
 471.5 1000 l 1
 540 918.5 l 1
EndSplineSet
EndChar

StartChar: ccaron
Encoding: 269 269 259
Width: 483
VWidth: 0
Flags: HMW
LayerCount: 2
Fore
SplineSet
216.5 229.5 m 0
 207 170 242.5 128 302 126.5 c 0
 354 124.5 403.5 151 439 188 c 1
 415.5 25.5 l 1
 377 4 333 -10 272.5 -10 c 0
 124 -10 19 88 39.5 230.5 c 0
 61 375.5 190.5 470 343.5 470 c 0
 403 470 445 455 482 435.5 c 1
 457.5 272 l 1
 432 312.5 390.5 335 347 334.5 c 0
 286 334 227 287.5 216.5 229.5 c 0
340 670.5 m 1
 436 752.5 l 1
 546.5 667.5 l 1
 324 531 l 1
 140 674 l 1
 271 753.5 l 1
 340 670.5 l 1
EndSplineSet
EndChar

StartChar: Dcaron
Encoding: 270 270 260
Width: 727
VWidth: 0
Flags: HMW
LayerCount: 2
Fore
SplineSet
160.5 700 m 1
 362 700 l 1
 242 0 l 1
 41 0 l 1
 160.5 700 l 1
303.5 0 m 1
 170.5 0 l 1
 201 172 l 1
 314.5 172 l 1
 417 174 509.5 224 529.5 350 c 0
 548 471.5 485 525 385 527.5 c 2
 260 528.5 l 1
 290.5 700 l 1
 412 700 l 1
 632 697.5 762.5 557.5 731.5 350 c 0
 699 137.5 529.5 2.5 303.5 0 c 1
504.5 918.5 m 1
 600 999.5 l 1
 711 915 l 1
 489 778 l 1
 304.5 921.5 l 1
 435.5 1000 l 1
 504.5 918.5 l 1
EndSplineSet
EndChar

StartChar: dcaron
Encoding: 271 271 261
Width: 612
VWidth: 0
Flags: HMW
LayerCount: 2
Fore
SplineSet
496.5 780 m 1
 669.5 780 l 1
 535.5 0 l 1
 363 0 l 1
 496.5 780 l 1
40.5 230.5 m 0
 58.5 368 166.5 470 287 470 c 0
 410.5 470 463.5 355 448 229.5 c 0
 430.5 97.5 338.5 -9.5 216 -9.5 c 0
 95.5 -9.5 24 98 40.5 230.5 c 0
221 229.5 m 0
 213.5 178.5 240 129 292 127.5 c 0
 342.5 126 394.5 174 403.5 230.5 c 0
 411 283 384 331 335 332.5 c 0
 281.5 334 230 284 221 229.5 c 0
779 779 m 1
 949 745 l 1
 780.5 498 l 1
 650 523 l 1
 779 779 l 1
EndSplineSet
EndChar

StartChar: Dcroat
Encoding: 272 272 262
Width: 727
VWidth: 0
Flags: HMW
LayerCount: 2
Fore
SplineSet
26 293.5 m 1
 45 401.5 l 1
 396 401.5 l 1
 376.5 293.5 l 1
 26 293.5 l 1
160.5 700 m 1
 362 700 l 1
 242 0 l 1
 41 0 l 1
 160.5 700 l 1
303.5 0 m 1
 170.5 0 l 1
 201 172 l 1
 314.5 172 l 1
 417 174 509.5 224 529.5 350 c 0
 548 471.5 485 525 385 527.5 c 2
 260 528.5 l 1
 290.5 700 l 1
 412 700 l 1
 632 697.5 762.5 557.5 731.5 350 c 0
 699 137.5 529.5 2.5 303.5 0 c 1
EndSplineSet
EndChar

StartChar: dcroat
Encoding: 273 273 263
Width: 612
VWidth: 0
Flags: HMW
LayerCount: 2
Fore
SplineSet
352.5 557 m 1
 371.5 665 l 1
 738.5 665 l 1
 719 557 l 1
 352.5 557 l 1
496.5 780 m 1
 669.5 780 l 1
 535.5 0 l 1
 363 0 l 1
 496.5 780 l 1
40.5 230.5 m 0
 58.5 368 166.5 470 287 470 c 0
 410.5 470 463.5 355 448 229.5 c 0
 430.5 97.5 338.5 -9.5 216 -9.5 c 0
 95.5 -9.5 24 98 40.5 230.5 c 0
221 229.5 m 0
 213.5 178.5 240 129 292 127.5 c 0
 342.5 126 394.5 174 403.5 230.5 c 0
 411 283 384 331 335 332.5 c 0
 281.5 334 230 284 221 229.5 c 0
EndSplineSet
EndChar

StartChar: Emacron
Encoding: 274 274 264
Width: 601
VWidth: 0
Flags: HMW
LayerCount: 2
Fore
SplineSet
170.5 0 m 1
 198.5 158.5 l 1
 544.5 158.5 l 1
 516 0 l 1
 170.5 0 l 1
263 541.5 m 1
 291 700 l 1
 636.5 700 l 1
 608.5 541.5 l 1
 263 541.5 l 1
219 286.5 m 1
 246.5 440.5 l 1
 573 440.5 l 1
 545.5 286.5 l 1
 219 286.5 l 1
160.5 700 m 1
 346.5 700 l 1
 226.5 0 l 1
 41 0 l 1
 160.5 700 l 1
226 778.5 m 1
 252 928 l 1
 623.5 928 l 1
 597 778 l 1
 226 778.5 l 1
EndSplineSet
EndChar

StartChar: emacron
Encoding: 275 275 265
Width: 575
VWidth: 0
Flags: HMW
LayerCount: 2
Fore
SplineSet
130 194 m 1
 144 282.5 l 1
 380.5 283.5 l 1
 379 324.5 369.5 356.5 325 358.5 c 0
 266.5 361 231 309 219.5 251.5 c 1
 213 229.5 l 1
 204 162.5 223 115 278.5 111.5 c 0
 325.5 109 362.5 132 388 161.5 c 1
 542 130.5 l 1
 483 46 398.5 -10 274.5 -10 c 0
 112.5 -10 20.5 89.5 41 230 c 0
 43.5 247 47 263 52 279 c 0
 89.5 395 194 470 339 470 c 0
 494.5 470 575.5 379 557.5 238 c 0
 555.5 226.5 553 210.5 549.5 194 c 1
 130 194 l 1
169 531 m 1
 195.5 680 l 1
 567 680 l 1
 540 531 l 1
 169 531 l 1
EndSplineSet
EndChar

StartChar: Ebreve
Encoding: 276 276 266
Width: 601
VWidth: 0
Flags: HMW
LayerCount: 2
Fore
SplineSet
170.5 0 m 1
 198.5 158.5 l 1
 544.5 158.5 l 1
 516 0 l 1
 170.5 0 l 1
263 541.5 m 1
 291 700 l 1
 636.5 700 l 1
 608.5 541.5 l 1
 263 541.5 l 1
219 286.5 m 1
 246.5 440.5 l 1
 573 440.5 l 1
 545.5 286.5 l 1
 219 286.5 l 1
160.5 700 m 1
 346.5 700 l 1
 226.5 0 l 1
 41 0 l 1
 160.5 700 l 1
273 926.5 m 1
 377.5 926.5 l 1
 378 895.5 391.5 875 421.5 873 c 0
 452.5 871 479.5 896 488.5 926 c 1
 598 925 l 1
 580.5 841 515.5 779 416 778.5 c 0
 316.5 778 267.5 841 273 926.5 c 1
EndSplineSet
EndChar

StartChar: ebreve
Encoding: 277 277 267
Width: 575
VWidth: 0
Flags: HMW
LayerCount: 2
Fore
SplineSet
130 194 m 1
 144 282.5 l 1
 380.5 283.5 l 1
 379 324.5 369.5 356.5 325 358.5 c 0
 266.5 361 231 309 219.5 251.5 c 1
 213 229.5 l 1
 204 162.5 223 115 278.5 111.5 c 0
 325.5 109 362.5 132 388 161.5 c 1
 542 130.5 l 1
 483 46 398.5 -10 274.5 -10 c 0
 112.5 -10 20.5 89.5 41 230 c 0
 43.5 247 47 263 52 279 c 0
 89.5 395 194 470 339 470 c 0
 494.5 470 575.5 379 557.5 238 c 0
 555.5 226.5 553 210.5 549.5 194 c 1
 130 194 l 1
217 679 m 1
 321.5 679 l 1
 322 648 336 627 366 625 c 0
 397 623 423.5 648.5 432.5 678.5 c 1
 542 677.5 l 1
 524.5 593.5 459.5 532 360 531.5 c 0
 260.5 531 211.5 593.5 217 679 c 1
EndSplineSet
EndChar

StartChar: Edotaccent
Encoding: 278 278 268
Width: 601
VWidth: 0
Flags: HMW
LayerCount: 2
Fore
SplineSet
170.5 0 m 1
 198.5 158.5 l 1
 544.5 158.5 l 1
 516 0 l 1
 170.5 0 l 1
263 541.5 m 1
 291 700 l 1
 636.5 700 l 1
 608.5 541.5 l 1
 263 541.5 l 1
219 286.5 m 1
 246.5 440.5 l 1
 573 440.5 l 1
 545.5 286.5 l 1
 219 286.5 l 1
160.5 700 m 1
 346.5 700 l 1
 226.5 0 l 1
 41 0 l 1
 160.5 700 l 1
329.5 870.5 m 0
 336.5 922 386.5 959 438.5 959 c 0
 491 959 530.5 920 523.5 867.5 c 0
 516.5 816 467 778.5 415 778.5 c 0
 362.5 778.5 322.5 818 329.5 870.5 c 0
EndSplineSet
EndChar

StartChar: edotaccent
Encoding: 279 279 269
Width: 575
VWidth: 0
Flags: HMW
LayerCount: 2
Fore
SplineSet
130 194 m 1
 144 282.5 l 1
 380.5 283.5 l 1
 379 324.5 369.5 356.5 325 358.5 c 0
 266.5 361 231 309 219.5 251.5 c 1
 213 229.5 l 1
 204 162.5 223 115 278.5 111.5 c 0
 325.5 109 362.5 132 388 161.5 c 1
 542 130.5 l 1
 483 46 398.5 -10 274.5 -10 c 0
 112.5 -10 20.5 89.5 41 230 c 0
 43.5 247 47 263 52 279 c 0
 89.5 395 194 470 339 470 c 0
 494.5 470 575.5 379 557.5 238 c 0
 555.5 226.5 553 210.5 549.5 194 c 1
 130 194 l 1
273.5 622.5 m 0
 280.5 674 330.5 711.5 382.5 711.5 c 0
 435 711.5 474.5 672 467.5 619.5 c 0
 460.5 568 410.5 531.5 358.5 531.5 c 0
 306 531.5 266.5 570 273.5 622.5 c 0
EndSplineSet
EndChar

StartChar: Eogonek
Encoding: 280 280 270
Width: 601
VWidth: 0
Flags: HMW
LayerCount: 2
Fore
SplineSet
170.5 0 m 1
 198.5 158.5 l 1
 544.5 158.5 l 1
 516 0 l 1
 170.5 0 l 1
263 541.5 m 1
 291 700 l 1
 636.5 700 l 1
 608.5 541.5 l 1
 263 541.5 l 1
219 286.5 m 1
 246.5 440.5 l 1
 573 440.5 l 1
 545.5 286.5 l 1
 219 286.5 l 1
160.5 700 m 1
 346.5 700 l 1
 226.5 0 l 1
 41 0 l 1
 160.5 700 l 1
352.5 -105 m 1
 373 -181.5 l 1
 349.5 -202.5 317 -220.5 268 -220 c 0
 209.5 -219.5 161.5 -182 169 -119 c 0
 179 -47.5 260 -8 327 25 c 1
 367 0 l 1
 324 -27.5 284 -55.5 277 -92 c 0
 275.5 -109.5 280 -123.5 299 -125 c 0
 316.5 -126.5 338 -115 352.5 -105 c 1
EndSplineSet
EndChar

StartChar: eogonek
Encoding: 281 281 271
Width: 575
VWidth: 0
Flags: HMW
LayerCount: 2
Fore
SplineSet
130 194 m 1
 144 282.5 l 1
 380.5 283.5 l 1
 379 324.5 369.5 356.5 325 358.5 c 0
 266.5 361 231 309 219.5 251.5 c 1
 213 229.5 l 1
 204 162.5 223 115 278.5 111.5 c 0
 325.5 109 362.5 132 388 161.5 c 1
 542 130.5 l 1
 483 46 398.5 -10 274.5 -10 c 0
 112.5 -10 20.5 89.5 41 230 c 0
 43.5 247 47 263 52 279 c 0
 89.5 395 194 470 339 470 c 0
 494.5 470 575.5 379 557.5 238 c 0
 555.5 226.5 553 210.5 549.5 194 c 1
 130 194 l 1
282 -94 m 1
 303 -170.5 l 1
 279.5 -191.5 247 -209 198 -208.5 c 0
 139.5 -208 91.5 -171 99 -108 c 0
 109 -36.5 189.5 3.5 256.5 36.5 c 1
 296.5 8.5 l 1
 252.5 -16.5 213.5 -45.5 206.5 -81 c 0
 204.5 -98.5 209.5 -112 228.5 -113.5 c 0
 246 -115 267.5 -104 282 -94 c 1
EndSplineSet
EndChar

StartChar: Ecaron
Encoding: 282 282 272
Width: 601
VWidth: 0
Flags: HMW
LayerCount: 2
Fore
SplineSet
170.5 0 m 1
 198.5 158.5 l 1
 544.5 158.5 l 1
 516 0 l 1
 170.5 0 l 1
263 541.5 m 1
 291 700 l 1
 636.5 700 l 1
 608.5 541.5 l 1
 263 541.5 l 1
219 286.5 m 1
 246.5 440.5 l 1
 573 440.5 l 1
 545.5 286.5 l 1
 219 286.5 l 1
160.5 700 m 1
 346.5 700 l 1
 226.5 0 l 1
 41 0 l 1
 160.5 700 l 1
431 918.5 m 1
 528 999.5 l 1
 638 915 l 1
 415.5 778 l 1
 232 921.5 l 1
 362.5 1000 l 1
 431 918.5 l 1
EndSplineSet
EndChar

StartChar: ecaron
Encoding: 283 283 273
Width: 575
VWidth: 0
Flags: HMW
LayerCount: 2
Fore
SplineSet
130 194 m 1
 144 282.5 l 1
 380.5 283.5 l 1
 379 324.5 369.5 356.5 325 358.5 c 0
 266.5 361 231 309 219.5 251.5 c 1
 213 229.5 l 1
 204 162.5 223 115 278.5 111.5 c 0
 325.5 109 362.5 132 388 161.5 c 1
 542 130.5 l 1
 483 46 398.5 -10 274.5 -10 c 0
 112.5 -10 20.5 89.5 41 230 c 0
 43.5 247 47 263 52 279 c 0
 89.5 395 194 470 339 470 c 0
 494.5 470 575.5 379 557.5 238 c 0
 555.5 226.5 553 210.5 549.5 194 c 1
 130 194 l 1
375 670.5 m 1
 471 752.5 l 1
 582 667.5 l 1
 359.5 531 l 1
 175.5 674 l 1
 306.5 753.5 l 1
 375 670.5 l 1
EndSplineSet
EndChar

StartChar: Gcircumflex
Encoding: 284 284 274
Width: 802
VWidth: 0
Flags: HMW
LayerCount: 2
Fore
SplineSet
425.5 245.5 m 1
 451.5 392.5 l 1
 804.5 392 l 1
 783.5 168.5 628.5 -26 386 -26.5 c 0
 165 -26.5 31.5 140.5 62 350 c 0
 95 567 285 719 509.5 718 c 0
 648 717.5 741 648 801.5 545.5 c 1
 615.5 461.5 l 1
 593.5 512 557.5 549 491.5 550 c 0
 379.5 552 284 465.5 264.5 350 c 0
 247 239.5 295 143.5 411.5 142 c 0
 498.5 141 555.5 187 594 246.5 c 1
 425.5 245.5 l 1
543 859.5 m 1
 447 778.5 l 1
 336 862.5 l 1
 559 999.5 l 1
 742.5 856 l 1
 611.5 777.5 l 1
 543 859.5 l 1
EndSplineSet
EndChar

StartChar: gcircumflex
Encoding: 285 285 275
Width: 604
VWidth: 0
Flags: HMW
LayerCount: 2
Fore
SplineSet
4 -33.5 m 1
 167 -34.5 l 1
 171 -81.5 192.5 -104 241 -104.5 c 0
 305.5 -105.5 351.5 -55.5 363.5 10.5 c 1
 441.5 460 l 1
 606.5 460 l 1
 530 9.5 l 2
 504 -154.5 389.5 -241.5 236.5 -242 c 0
 76.5 -242.5 5.5 -162.5 4 -33.5 c 1
42 238.5 m 0
 60 376 167.5 470 287 470 c 0
 409.5 470 466 364.5 450 238 c 0
 433 106.5 340.5 6.5 219 6.5 c 0
 99.5 6.5 25.5 106 42 238.5 c 0
222.5 237.5 m 0
 215 185 244 145.5 295 144 c 0
 344 142.5 397 183 405 239 c 0
 412.5 293 382.5 330.5 335 332.5 c 0
 282.5 334.5 230.5 292 222.5 237.5 c 0
409 612 m 1
 312.5 531 l 1
 202 615.5 l 1
 424.5 752.5 l 1
 608.5 609.5 l 1
 477.5 530 l 1
 409 612 l 1
EndSplineSet
EndChar

StartChar: Gbreve
Encoding: 286 286 276
Width: 802
VWidth: 0
Flags: HMW
LayerCount: 2
Fore
SplineSet
425.5 245.5 m 1
 451.5 392.5 l 1
 804.5 392 l 1
 783.5 168.5 628.5 -26 386 -26.5 c 0
 165 -26.5 31.5 140.5 62 350 c 0
 95 567 285 719 509.5 718 c 0
 648 717.5 741 648 801.5 545.5 c 1
 615.5 461.5 l 1
 593.5 512 557.5 549 491.5 550 c 0
 379.5 552 284 465.5 264.5 350 c 0
 247 239.5 295 143.5 411.5 142 c 0
 498.5 141 555.5 187 594 246.5 c 1
 425.5 245.5 l 1
387 926.5 m 1
 491.5 926.5 l 1
 492 895.5 506 875 536 873 c 0
 567 871 594 896 603 926 c 1
 712 925 l 1
 694.5 841 630 779 530.5 778.5 c 0
 431 778 381.5 841 387 926.5 c 1
EndSplineSet
EndChar

StartChar: gbreve
Encoding: 287 287 277
Width: 604
VWidth: 0
Flags: HMW
LayerCount: 2
Fore
SplineSet
4 -33.5 m 1
 167 -34.5 l 1
 171 -81.5 192.5 -104 241 -104.5 c 0
 305.5 -105.5 351.5 -55.5 363.5 10.5 c 1
 441.5 460 l 1
 606.5 460 l 1
 530 9.5 l 2
 504 -154.5 389.5 -241.5 236.5 -242 c 0
 76.5 -242.5 5.5 -162.5 4 -33.5 c 1
42 238.5 m 0
 60 376 167.5 470 287 470 c 0
 409.5 470 466 364.5 450 238 c 0
 433 106.5 340.5 6.5 219 6.5 c 0
 99.5 6.5 25.5 106 42 238.5 c 0
222.5 237.5 m 0
 215 185 244 145.5 295 144 c 0
 344 142.5 397 183 405 239 c 0
 412.5 293 382.5 330.5 335 332.5 c 0
 282.5 334.5 230.5 292 222.5 237.5 c 0
253 679 m 1
 357.5 679 l 1
 358 648 372 627 402 625 c 0
 433 623 459 648.5 468 678.5 c 1
 577.5 677.5 l 1
 560 593.5 495.5 532 396 531.5 c 0
 296.5 531 247.5 593.5 253 679 c 1
EndSplineSet
EndChar

StartChar: Gdotaccent
Encoding: 288 288 278
Width: 802
VWidth: 0
Flags: HMW
LayerCount: 2
Fore
SplineSet
425.5 245.5 m 1
 451.5 392.5 l 1
 804.5 392 l 1
 783.5 168.5 628.5 -26 386 -26.5 c 0
 165 -26.5 31.5 140.5 62 350 c 0
 95 567 285 719 509.5 718 c 0
 648 717.5 741 648 801.5 545.5 c 1
 615.5 461.5 l 1
 593.5 512 557.5 549 491.5 550 c 0
 379.5 552 284 465.5 264.5 350 c 0
 247 239.5 295 143.5 411.5 142 c 0
 498.5 141 555.5 187 594 246.5 c 1
 425.5 245.5 l 1
444 870.5 m 0
 451 922 500.5 959 552.5 959 c 0
 605 959 645 920 638 867.5 c 0
 631 816 581.5 778.5 529.5 778.5 c 0
 477 778.5 437 818 444 870.5 c 0
EndSplineSet
EndChar

StartChar: gdotaccent
Encoding: 289 289 279
Width: 604
VWidth: 0
Flags: HMW
LayerCount: 2
Fore
SplineSet
4 -33.5 m 1
 167 -34.5 l 1
 171 -81.5 192.5 -104 241 -104.5 c 0
 305.5 -105.5 351.5 -55.5 363.5 10.5 c 1
 441.5 460 l 1
 606.5 460 l 1
 530 9.5 l 2
 504 -154.5 389.5 -241.5 236.5 -242 c 0
 76.5 -242.5 5.5 -162.5 4 -33.5 c 1
42 238.5 m 0
 60 376 167.5 470 287 470 c 0
 409.5 470 466 364.5 450 238 c 0
 433 106.5 340.5 6.5 219 6.5 c 0
 99.5 6.5 25.5 106 42 238.5 c 0
222.5 237.5 m 0
 215 185 244 145.5 295 144 c 0
 344 142.5 397 183 405 239 c 0
 412.5 293 382.5 330.5 335 332.5 c 0
 282.5 334.5 230.5 292 222.5 237.5 c 0
290 629.5 m 0
 297 681 347 718.5 399 718.5 c 0
 451.5 718.5 491 679.5 484 627 c 0
 477 575.5 427 538 375 538 c 0
 322.5 538 283 577 290 629.5 c 0
EndSplineSet
EndChar

StartChar: uni0122
Encoding: 290 290 280
Width: 802
VWidth: 0
Flags: HMW
LayerCount: 2
Fore
SplineSet
425.5 245.5 m 1
 451.5 392.5 l 1
 804.5 392 l 1
 783.5 168.5 628.5 -26 386 -26.5 c 0
 165 -26.5 31.5 140.5 62 350 c 0
 95 567 285 719 509.5 718 c 0
 648 717.5 741 648 801.5 545.5 c 1
 615.5 461.5 l 1
 593.5 512 557.5 549 491.5 550 c 0
 379.5 552 284 465.5 264.5 350 c 0
 247 239.5 295 143.5 411.5 142 c 0
 498.5 141 555.5 187 594 246.5 c 1
 425.5 245.5 l 1
284 -87.5 m 1
 454.5 -122 l 1
 285.5 -369 l 1
 154.5 -343.5 l 1
 284 -87.5 l 1
EndSplineSet
EndChar

StartChar: Hcircumflex
Encoding: 292 292 281
Width: 785
VWidth: 0
Flags: HMW
LayerCount: 2
Fore
SplineSet
133.5 278.5 m 1
 164.5 453 l 1
 697.5 453 l 1
 667 278.5 l 1
 133.5 278.5 l 1
616.5 700 m 1
 811 700 l 1
 690.5 0 l 1
 497 0 l 1
 616.5 700 l 1
160.5 700 m 1
 355 700 l 1
 234 0 l 1
 41 0 l 1
 160.5 700 l 1
516.5 859.5 m 1
 420 778.5 l 1
 309.5 862.5 l 1
 532 999.5 l 1
 716.5 856 l 1
 585.5 777.5 l 1
 516.5 859.5 l 1
EndSplineSet
EndChar

StartChar: hcircumflex
Encoding: 293 293 282
Width: 564
VWidth: 0
Flags: HMW
LayerCount: 2
Fore
SplineSet
331 780 m 1
 197 0 l 1
 24 0 l 1
 157.5 780 l 1
 331 780 l 1
364.5 280 m 1
 368 317 366.5 350.5 325.5 354 c 0
 284 357.5 254 319.5 245 280.5 c 1
 215.5 281 l 1
 234 384 291.5 478 409 479 c 0
 523 480 552 407 539 306.5 c 1
 487 0 l 1
 314.5 0 l 1
 364.5 280 l 1
393.5 921.5 m 1
 297.5 840 l 1
 186.5 924.5 l 1
 409 1061 l 1
 593 918 l 1
 462 839 l 1
 393.5 921.5 l 1
EndSplineSet
EndChar

StartChar: Itilde
Encoding: 296 296 283
Width: 333
VWidth: 0
Flags: HMW
LayerCount: 2
Fore
SplineSet
160.5 700 m 1
 358.5 700 l 1
 238.5 0 l 1
 41 0 l 1
 160.5 700 l 1
85 855 m 1
 106 903 152 952.5 218 951 c 0
 273.5 950 294 897.5 345 899 c 0
 375.5 900 400.5 926.5 422.5 953 c 1
 490 866.5 l 1
 463 827.5 402.5 777 339 779.5 c 0
 289.5 781.5 256 837 208.5 833.5 c 0
 175.5 831 160.5 801.5 152 783.5 c 1
 85 855 l 1
EndSplineSet
EndChar

StartChar: itilde
Encoding: 297 297 284
Width: 273
VWidth: 0
Flags: HMW
LayerCount: 2
Fore
SplineSet
104.5 460 m 1
 271.5 460 l 1
 192.5 0 l 1
 26 0 l 1
 104.5 460 l 1
11.5 608 m 1
 32.5 656 78.5 706 144.5 704.5 c 0
 200 703.5 220.5 650.5 271.5 652 c 0
 302 653 328 678.5 350 705 c 1
 417 619.5 l 1
 390 580.5 329.5 529.5 266 532 c 0
 216.5 534 182 589 134.5 585.5 c 0
 101.5 583 88 554 79.5 536 c 1
 11.5 608 l 1
EndSplineSet
EndChar

StartChar: Imacron
Encoding: 298 298 285
Width: 333
VWidth: 0
Flags: HMW
LayerCount: 2
Fore
SplineSet
160.5 700 m 1
 358.5 700 l 1
 238.5 0 l 1
 41 0 l 1
 160.5 700 l 1
87 778.5 m 1
 113.5 928 l 1
 484 928 l 1
 457.5 778 l 1
 87 778.5 l 1
EndSplineSet
EndChar

StartChar: imacron
Encoding: 299 299 286
Width: 273
VWidth: 0
Flags: HMW
LayerCount: 2
Fore
SplineSet
104.5 460 m 1
 271.5 460 l 1
 192.5 0 l 1
 26 0 l 1
 104.5 460 l 1
14 531 m 1
 40.5 680 l 1
 412 680 l 1
 385.5 531 l 1
 14 531 l 1
EndSplineSet
EndChar

StartChar: Ibreve
Encoding: 300 300 287
Width: 333
VWidth: 0
Flags: HMW
LayerCount: 2
Fore
SplineSet
160.5 700 m 1
 358.5 700 l 1
 238.5 0 l 1
 41 0 l 1
 160.5 700 l 1
134 926.5 m 1
 238.5 926.5 l 1
 239 895.5 253.5 875 283.5 873 c 0
 314.5 871 341.5 896 350.5 926 c 1
 459 925 l 1
 441.5 841 377 779 277.5 778.5 c 0
 178 778 128.5 841 134 926.5 c 1
EndSplineSet
EndChar

StartChar: ibreve
Encoding: 301 301 288
Width: 273
VWidth: 0
Flags: HMW
LayerCount: 2
Fore
SplineSet
104.5 460 m 1
 271.5 460 l 1
 192.5 0 l 1
 26 0 l 1
 104.5 460 l 1
61.5 679 m 1
 165 679 l 1
 165.5 648 180 627 210 625 c 0
 241 623 268 648.5 277 678.5 c 1
 386 677.5 l 1
 368.5 593.5 304 532 204.5 531.5 c 0
 105 531 56 593.5 61.5 679 c 1
EndSplineSet
EndChar

StartChar: Iogonek
Encoding: 302 302 289
Width: 333
VWidth: 0
Flags: HMW
LayerCount: 2
Fore
SplineSet
160.5 700 m 1
 358.5 700 l 1
 238.5 0 l 1
 41 0 l 1
 160.5 700 l 1
190 -102.5 m 1
 212 -179 l 1
 188.5 -200 156 -218 107 -217.5 c 0
 48.5 -217 -1 -180 6.5 -117 c 0
 16 -45.5 97.5 -5.5 164.5 27.5 c 1
 205.5 0 l 1
 161 -25 121.5 -54 114.5 -90 c 0
 112.5 -107.5 118 -121 137 -122.5 c 0
 154.5 -124 175.5 -112.5 190 -102.5 c 1
EndSplineSet
EndChar

StartChar: iogonek
Encoding: 303 303 290
Width: 273
VWidth: 0
Flags: HMW
LayerCount: 2
Fore
SplineSet
119 628 m 0
 126 679.5 175.5 717 227.5 717 c 0
 280 717 320.5 677.5 313.5 625 c 0
 306.5 573.5 256.5 536.5 204.5 536.5 c 0
 152 536.5 112 575.5 119 628 c 0
104 460 m 1
 271.5 460 l 1
 192.5 0 l 1
 25.5 0 l 1
 104 460 l 1
146 -105 m 1
 167 -181.5 l 1
 143.5 -202.5 111 -220.5 62 -220 c 0
 3.5 -219.5 -44.5 -182 -37 -119 c 0
 -27 -47.5 53.5 -8 120.5 25 c 1
 161 0 l 1
 118 -27.5 77.5 -55.5 70.5 -92 c 0
 69 -109.5 73.5 -123.5 92.5 -125 c 0
 110 -126.5 131.5 -115 146 -105 c 1
EndSplineSet
EndChar

StartChar: Idotaccent
Encoding: 304 304 291
Width: 333
VWidth: 0
Flags: HMW
LayerCount: 2
Fore
SplineSet
160.5 700 m 1
 358.5 700 l 1
 238.5 0 l 1
 41 0 l 1
 160.5 700 l 1
190.5 870.5 m 0
 197.5 922 247.5 959 299.5 959 c 0
 352 959 391.5 920 384.5 867.5 c 0
 377.5 816 328 778.5 276 778.5 c 0
 223.5 778.5 183.5 818 190.5 870.5 c 0
EndSplineSet
EndChar

StartChar: uni0136
Encoding: 310 310 292
Width: 720
VWidth: 0
Flags: HMW
LayerCount: 2
Fore
SplineSet
160.5 700 m 1
 362.5 700 l 1
 242.5 0 l 1
 41 0 l 1
 160.5 700 l 1
575 699.5 m 1
 807.5 699.5 l 1
 476.5 368 l 1
 695.5 0 l 1
 469 0 l 1
 249 370.5 l 1
 575 699.5 l 1
282 -61 m 1
 453 -95 l 1
 283.5 -342 l 1
 152.5 -317 l 1
 282 -61 l 1
EndSplineSet
EndChar

StartChar: uni0137
Encoding: 311 311 293
Width: 602
VWidth: 0
Flags: HMW
LayerCount: 2
Fore
SplineSet
156.5 780 m 1
 322 780 l 1
 188 0 l 1
 23.5 0 l 1
 156.5 780 l 1
422.5 459.5 m 1
 633 459.5 l 1
 404 266.5 l 1
 566 0 l 1
 373.5 0 l 1
 204.5 274.5 l 1
 422.5 459.5 l 1
208.5 -61 m 1
 379 -95 l 1
 210.5 -342 l 1
 79 -317 l 1
 208.5 -61 l 1
EndSplineSet
EndChar

StartChar: Lacute
Encoding: 313 313 294
Width: 536
VWidth: 0
Flags: HMW
LayerCount: 2
Fore
SplineSet
161 700 m 1
 355 700 l 1
 263.5 167 l 1
 539 167 l 1
 509.5 0 l 1
 41 0 l 1
 161 700 l 1
601.5 925 m 1
 404.5 779 l 1
 310.5 828 l 1
 480 984 l 1
 601.5 925 l 1
EndSplineSet
EndChar

StartChar: lacute
Encoding: 314 314 295
Width: 274
VWidth: 0
Flags: HMW
LayerCount: 2
Fore
SplineSet
157.5 780 m 1
 331 780 l 1
 196.5 0 l 1
 24 0 l 1
 157.5 780 l 1
447.5 986.5 m 1
 250.5 840.5 l 1
 156.5 889.5 l 1
 326 1045.5 l 1
 447.5 986.5 l 1
EndSplineSet
EndChar

StartChar: uni013B
Encoding: 315 315 296
Width: 536
VWidth: 0
Flags: HMW
LayerCount: 2
Fore
SplineSet
161 700 m 1
 355 700 l 1
 263.5 167 l 1
 539 167 l 1
 509.5 0 l 1
 41 0 l 1
 161 700 l 1
220 -61 m 1
 390 -95 l 1
 221.5 -342 l 1
 90.5 -317 l 1
 220 -61 l 1
EndSplineSet
EndChar

StartChar: uni013C
Encoding: 316 316 297
Width: 274
VWidth: 0
Flags: HMW
LayerCount: 2
Fore
SplineSet
157.5 780 m 1
 331 780 l 1
 196.5 0 l 1
 24 0 l 1
 157.5 780 l 1
55 -61 m 1
 225.5 -95 l 1
 56.5 -342 l 1
 -74.5 -317 l 1
 55 -61 l 1
EndSplineSet
EndChar

StartChar: Lcaron
Encoding: 317 317 298
Width: 536
VWidth: 0
Flags: HMW
LayerCount: 2
Fore
SplineSet
161 700 m 1
 355 700 l 1
 263.5 167 l 1
 539 167 l 1
 509.5 0 l 1
 41 0 l 1
 161 700 l 1
519.5 717 m 1
 689 683 l 1
 520.5 436 l 1
 390 461 l 1
 519.5 717 l 1
EndSplineSet
EndChar

StartChar: lcaron
Encoding: 318 318 299
Width: 274
VWidth: 0
Flags: HMW
LayerCount: 2
Fore
SplineSet
157.5 780 m 1
 331 780 l 1
 196.5 0 l 1
 24 0 l 1
 157.5 780 l 1
459.5 779 m 1
 630 745 l 1
 461 498 l 1
 330 523 l 1
 459.5 779 l 1
EndSplineSet
EndChar

StartChar: Ldot
Encoding: 319 319 300
Width: 536
VWidth: 0
Flags: HMW
LayerCount: 2
Fore
SplineSet
161 700 m 1
 355 700 l 1
 263.5 167 l 1
 539 167 l 1
 509.5 0 l 1
 41 0 l 1
 161 700 l 1
381.5 436.5 m 0
 389 491.5 441 540 500.5 540 c 0
 560.5 540 599.5 489.5 592 434.5 c 0
 584.5 379.5 532.5 331.5 473 331.5 c 0
 413 331.5 374 381.5 381.5 436.5 c 0
EndSplineSet
EndChar

StartChar: ldot
Encoding: 320 320 301
Width: 496
VWidth: 0
Flags: HMW
LayerCount: 2
Fore
SplineSet
157.5 780 m 1
 331 780 l 1
 196.5 0 l 1
 24 0 l 1
 157.5 780 l 1
298 408 m 0
 305.5 463 357.5 510.5 417 510.5 c 0
 477 510.5 515.5 461 508 406 c 0
 500.5 351 449 303 389.5 303 c 0
 329.5 303 290.5 353 298 408 c 0
EndSplineSet
EndChar

StartChar: eth
Encoding: 240 240 302
Width: 678
VWidth: 0
Flags: HMW
LayerCount: 2
Fore
SplineSet
456.5 251 m 0
 465.5 306 435 353.5 377 354.5 c 0
 317.5 356 264 308.5 254 250 c 0
 245 194.5 275.5 149.5 333 148.5 c 0
 392 147.5 446.5 192.5 456.5 251 c 0
444.5 696 m 1
 590 462 l 2
 630.5 397 659.5 328 648.5 250.5 c 0
 625 81.5 479 -18 315 -18 c 0
 155 -18 38.5 85 62.5 251 c 0
 81 382 196 477 310.5 479 c 0
 360.5 480 389.5 465.5 427 431.5 c 1
 389 454 l 1
 208 696 l 1
 444.5 696 l 1
188.5 520.5 m 1
 201 601.5 l 1
 672 601.5 l 1
 658.5 520.5 l 1
 188.5 520.5 l 1
EndSplineSet
EndChar

StartChar: racute
Encoding: 341 341 303
Width: 420
VWidth: 0
Flags: HMW
LayerCount: 2
Fore
SplineSet
272 460 m 1
 192.5 0 l 1
 24 0 l 1
 103 460 l 1
 272 460 l 1
370 281.5 m 1
 357 296 342.5 307.5 319.5 308 c 0
 272.5 309 240 262 229 209.5 c 1
 203.5 281 l 1
 220.5 376.5 294 474.5 386 472 c 0
 419.5 471 446.5 452.5 463.5 429.5 c 1
 370 281.5 l 1
491.5 678.5 m 1
 294.5 532.5 l 1
 200.5 581.5 l 1
 370.5 737.5 l 1
 491.5 678.5 l 1
EndSplineSet
EndChar

StartChar: rcaron
Encoding: 345 345 304
Width: 420
VWidth: 0
Flags: HMW
LayerCount: 2
Fore
SplineSet
272 460 m 1
 192.5 0 l 1
 24 0 l 1
 103 460 l 1
 272 460 l 1
370 281.5 m 1
 357 296 342.5 307.5 319.5 308 c 0
 272.5 309 240 262 229 209.5 c 1
 203.5 281 l 1
 220.5 376.5 294 474.5 386 472 c 0
 419.5 471 446.5 452.5 463.5 429.5 c 1
 370 281.5 l 1
318.5 672 m 1
 414 753 l 1
 525.5 668.5 l 1
 303 532 l 1
 118.5 675 l 1
 249.5 753.5 l 1
 318.5 672 l 1
EndSplineSet
EndChar

StartChar: Rcaron
Encoding: 344 344 305
Width: 655
VWidth: 0
Flags: HMW
LayerCount: 2
Fore
SplineSet
282 307.5 m 1
 475 307.5 l 1
 625 0 l 1
 406 0 l 1
 282 307.5 l 1
160.5 700 m 1
 355 700 l 1
 234 0 l 1
 41 0 l 1
 160.5 700 l 1
254.5 534.5 m 1
 283 700 l 1
 425 700 l 1
 590.5 698 689.5 608 667.5 465 c 0
 645 321.5 526.5 232.5 355.5 230.5 c 1
 201.5 230.5 l 1
 228.5 380 l 1
 354.5 380 l 1
 410 381.5 455.5 407.5 464.5 457.5 c 0
 472.5 505 442 531.5 389.5 533.5 c 1
 254.5 534.5 l 1
448 918.5 m 1
 544.5 999.5 l 1
 655 915 l 1
 432 778 l 1
 248 921.5 l 1
 379 1000 l 1
 448 918.5 l 1
EndSplineSet
EndChar

StartChar: uni0213
Encoding: 531 531 306
Width: 420
VWidth: 0
Flags: HMW
LayerCount: 2
Fore
SplineSet
272 460 m 1
 192.5 0 l 1
 24 0 l 1
 103 460 l 1
 272 460 l 1
370 281.5 m 1
 357 296 342.5 307.5 319.5 308 c 0
 272.5 309 240 262 229 209.5 c 1
 203.5 281 l 1
 220.5 376.5 294 474.5 386 472 c 0
 419.5 471 446.5 452.5 463.5 429.5 c 1
 370 281.5 l 1
135.5 531 m 1
 237.5 532 l 1
 246 562 272.5 587 303.5 585.5 c 0
 335.5 584 351 564.5 352.5 531.5 c 1
 457 532 l 1
 467.5 614 428 678.5 328.5 679.5 c 0
 226 680.5 159 614 135.5 531 c 1
EndSplineSet
EndChar

StartChar: uni0212
Encoding: 530 530 307
Width: 655
VWidth: 0
Flags: HMW
LayerCount: 2
Fore
SplineSet
282 307.5 m 1
 475 307.5 l 1
 625 0 l 1
 406 0 l 1
 282 307.5 l 1
160.5 700 m 1
 355 700 l 1
 234 0 l 1
 41 0 l 1
 160.5 700 l 1
254.5 534.5 m 1
 283 700 l 1
 425 700 l 1
 590.5 698 689.5 608 667.5 465 c 0
 645 321.5 526.5 232.5 355.5 230.5 c 1
 201.5 230.5 l 1
 228.5 380 l 1
 354.5 380 l 1
 410 381.5 455.5 407.5 464.5 457.5 c 0
 472.5 505 442 531.5 389.5 533.5 c 1
 254.5 534.5 l 1
276.5 777.5 m 1
 379 778.5 l 1
 387.5 808.5 413 833.5 444 832 c 0
 476 830.5 492 810.5 493.5 777.5 c 1
 597.5 778 l 1
 608 860 569 925 469.5 926 c 0
 367 927 300 860.5 276.5 777.5 c 1
EndSplineSet
EndChar

StartChar: OE
Encoding: 338 338 308
Width: 955
VWidth: 0
Flags: HMW
LayerCount: 2
Fore
SplineSet
565 286.5 m 1
 592.5 440.5 l 1
 963 440.5 l 1
 936 286.5 l 1
 565 286.5 l 1
545 670 m 1
 731.5 670 l 1
 621.5 30 l 1
 435.5 30 l 1
 545 670 l 1
932 158 m 1
 907 0 l 1
 357 0 l 1
 158.5 3.5 34.5 156 62 350 c 0
 92 551.5 261 697 465 700 c 1
 1027 700 l 1
 998.5 541.5 l 1
 622 541.5 l 1
 603 529 l 1
 487 529 l 1
 362.5 527 284 465.5 263 350 c 0
 243.5 239 295 174 415.5 171.5 c 2
 529 171 l 1
 550.5 158.5 l 1
 932 158 l 1
EndSplineSet
EndChar

StartChar: oe
Encoding: 339 339 309
Width: 873
VWidth: 0
Flags: HMW
LayerCount: 2
Fore
SplineSet
677.5 250 m 2
 683 302.5 679 355 627.5 358 c 0
 575.5 361.5 533.5 315.5 523 259.5 c 1
 515 230 l 1
 506.5 168 517 110 578 107.5 c 0
 625.5 105.5 658.5 132.5 687.5 162 c 1
 839.5 130.5 l 1
 789.5 55 697.5 -10.5 597.5 -10 c 0
 468.5 -9.5 412.5 107.5 428 230 c 0
 430.5 247 434 263 439 279 c 0
 472.5 386 568 470.5 686 470 c 0
 805.5 469.5 869 358.5 854.5 234 c 0
 852.5 223.5 849 204.5 846 194 c 1
 674.5 231 l 1
 677.5 250 l 2
473.5 194 m 1
 487.5 282 l 1
 841.5 282 l 1
 845.5 193.5 l 1
 473.5 194 l 1
44.5 230.5 m 0
 63 366.5 173 470.5 303 470 c 0
 433 469.5 482 358 466 230 c 0
 448 97 361 -9 232 -9.5 c 0
 102.5 -10 27.5 99 44.5 230.5 c 0
213.5 229.5 m 0
 206 176.5 229 133.5 281 132 c 0
 335.5 130.5 376.5 174 385.5 230.5 c 0
 393 283 375.5 327 322 328 c 0
 268.5 329 222.5 286 213.5 229.5 c 0
EndSplineSet
EndChar

StartChar: a.alt
Encoding: 65536 -1 310
Width: 546
VWidth: 0
Flags: HMW
LayerCount: 2
Fore
SplineSet
188 137.5 m 0
 185.5 112 206.5 100 232 99 c 0
 284 96.5 326 132 339.5 187.5 c 1
 346.5 129 l 1
 327.5 44 256 -9 162.5 -9.5 c 0
 69 -10 2.5 42 15 130 c 0
 29 223.5 123 276 230 276.5 c 0
 289 277 348 259 380 231 c 1
 368 152.5 l 1
 339 175 310.5 188 267.5 187.5 c 0
 228.5 187 191 169.5 188 137.5 c 0
144 307 m 1
 105 423 l 1
 169 449 245.5 474 325 474 c 0
 436 474 538.5 426.5 525 322 c 1
 470.5 0 l 1
 305.5 0 l 1
 356.5 282.5 l 1
 361 318.5 339.5 341 296 343.5 c 0
 237 346.5 179 322 144 307 c 1
EndSplineSet
EndChar

StartChar: Jcircumflex
Encoding: 308 308 312
Width: 348
VWidth: 0
Flags: HMW
LayerCount: 2
Fore
SplineSet
-112 -51 m 1
 -91.5 -66.5 -65.5 -83.5 -38.5 -83 c 0
 -2 -82.5 31.5 -51.5 39.5 -4.5 c 1
 161 700 l 1
 374 700 l 1
 246.5 -52.5 l 1
 223 -187.5 100.5 -244.5 -32.5 -244.5 c 0
 -111.5 -244.5 -182 -217 -236 -184.5 c 1
 -112 -51 l 1
297.5 859.5 m 1
 201.5 778.5 l 1
 91 862.5 l 1
 313 999.5 l 1
 497.5 856 l 1
 366.5 777.5 l 1
 297.5 859.5 l 1
EndSplineSet
EndChar

StartChar: jcircumflex
Encoding: 309 309 313
Width: 270
VWidth: 0
Flags: HMW
LayerCount: 2
Fore
SplineSet
-79.5 -65.5 m 1
 -69 -79 -57 -90.5 -40 -91 c 0
 -9 -91.5 13.5 -62.5 19.5 -29 c 1
 104 460 l 1
 268.5 460 l 1
 177.5 -77 l 2
 159.5 -176 86 -244.5 -29.5 -244 c 0
 -93.5 -244 -132 -216 -162 -189 c 1
 -79.5 -65.5 l 1
215.5 612 m 1
 119 531 l 1
 8 615.5 l 1
 231 752.5 l 1
 415 609.5 l 1
 284.5 530 l 1
 215.5 612 l 1
EndSplineSet
EndChar

StartChar: Nacute
Encoding: 323 323 314
Width: 775
VWidth: 0
Flags: HMW
LayerCount: 2
Fore
SplineSet
615 700 m 1
 801 700 l 1
 676 -33 l 1
 287 353 l 1
 226.5 0 l 1
 41 0 l 1
 166 733 l 1
 554 347 l 1
 615 700 l 1
657.5 910 m 1
 460.5 764 l 1
 366.5 813.5 l 1
 536.5 969.5 l 1
 657.5 910 l 1
EndSplineSet
EndChar

StartChar: nacute
Encoding: 324 324 315
Width: 573
VWidth: 0
Flags: HMW
LayerCount: 2
Fore
SplineSet
276 460 m 1
 197 0 l 1
 24 0 l 1
 103 460 l 1
 276 460 l 1
364.5 280 m 1
 368 317 366 350.5 325 354 c 0
 283.5 357.5 254 319.5 245 280.5 c 1
 216.5 273 l 1
 234 375.5 290 470 407.5 471 c 0
 521.5 472 558.5 399.5 545.5 298 c 1
 495 0 l 1
 314.5 0 l 1
 364.5 280 l 1
544.5 677.5 m 1
 347.5 531.5 l 1
 254.5 580.5 l 1
 424.5 736.5 l 1
 544.5 677.5 l 1
EndSplineSet
EndChar

StartChar: uni0145
Encoding: 325 325 316
Width: 775
VWidth: 0
Flags: HMW
LayerCount: 2
Fore
SplineSet
301 -61 m 1
 470.5 -95 l 1
 302.5 -342 l 1
 172 -317 l 1
 301 -61 l 1
615 700 m 1
 801 700 l 1
 676 -33 l 1
 287 353 l 1
 226.5 0 l 1
 41 0 l 1
 166 733 l 1
 554 347 l 1
 615 700 l 1
EndSplineSet
EndChar

StartChar: uni0146
Encoding: 326 326 317
Width: 573
VWidth: 0
Flags: HMW
LayerCount: 2
Fore
SplineSet
276 460 m 1
 197 0 l 1
 24 0 l 1
 103 460 l 1
 276 460 l 1
364.5 280 m 1
 368 317 366 350.5 325 354 c 0
 283.5 357.5 254 319.5 245 280.5 c 1
 215 273 l 1
 233 376 290 470 407.5 471 c 0
 521.5 472 558.5 399.5 545.5 298 c 1
 495 0 l 1
 314.5 0 l 1
 364.5 280 l 1
204 -61 m 1
 374.5 -95 l 1
 205.5 -342 l 1
 74.5 -317 l 1
 204 -61 l 1
EndSplineSet
EndChar

StartChar: Ncaron
Encoding: 327 327 318
Width: 775
VWidth: 0
Flags: HMW
LayerCount: 2
Fore
SplineSet
480.5 910 m 1
 577 991.5 l 1
 687.5 906.5 l 1
 465 770 l 1
 281 913 l 1
 412 992 l 1
 480.5 910 l 1
615 700 m 1
 801 700 l 1
 676 -33 l 1
 287 353 l 1
 226.5 0 l 1
 41 0 l 1
 166 733 l 1
 554 347 l 1
 615 700 l 1
EndSplineSet
EndChar

StartChar: ncaron
Encoding: 328 328 319
Width: 573
VWidth: 0
Flags: HMW
LayerCount: 2
Fore
SplineSet
276 460 m 1
 197 0 l 1
 24 0 l 1
 103 460 l 1
 276 460 l 1
364.5 280 m 1
 368 317 366 350.5 325 354 c 0
 283.5 357.5 254 319.5 245 280.5 c 1
 215 273 l 1
 233 376 290 470 407.5 471 c 0
 521.5 472 558.5 399.5 545.5 298 c 1
 495 0 l 1
 314.5 0 l 1
 364.5 280 l 1
369.5 670.5 m 1
 466.5 752.5 l 1
 577.5 667.5 l 1
 354 531 l 1
 170.5 674 l 1
 301 753.5 l 1
 369.5 670.5 l 1
EndSplineSet
EndChar

StartChar: Omacron
Encoding: 332 332 320
Width: 806
VWidth: 0
Flags: HMW
LayerCount: 2
Fore
SplineSet
266.5 350 m 0
 251.5 252.5 291.5 162 398.5 160.5 c 0
 506.5 159 587.5 246 605.5 350 c 0
 621 448 583 538.5 473.5 539.5 c 0
 365.5 540.5 284.5 454 266.5 350 c 0
62 350 m 0
 94 561 277 718 493 718 c 0
 707 718 839.5 555 810 350 c 0
 778 138 598.5 -27 377 -26.5 c 0
 159 -26 32.5 145 62 350 c 0
323.5 778.5 m 1
 350 928 l 1
 720.5 928 l 1
 693.5 778 l 1
 323.5 778.5 l 1
EndSplineSet
EndChar

StartChar: omacron
Encoding: 333 333 321
Width: 585
VWidth: 0
Flags: HMW
LayerCount: 2
Fore
SplineSet
40.5 230.5 m 0
 61.5 374 191 471 341 471 c 0
 487 471 590 370.5 570 229.5 c 0
 549 86 419.5 -10 270 -10 c 0
 124 -10 20.5 89.5 40.5 230.5 c 0
217 229.5 m 0
 209.5 178 234 133.5 284.5 132 c 0
 336.5 130.5 384.5 175 393.5 230.5 c 0
 401 282 377 327.5 326.5 329 c 0
 274.5 330.5 226 285 217 229.5 c 0
171 531 m 1
 197.5 680 l 1
 567.5 680 l 1
 541 531 l 1
 171 531 l 1
EndSplineSet
EndChar

StartChar: Obreve
Encoding: 334 334 322
Width: 806
VWidth: 0
Flags: HMW
LayerCount: 2
Fore
SplineSet
266.5 350 m 0
 251.5 252.5 291.5 162 398.5 160.5 c 0
 506.5 159 587.5 246 605.5 350 c 0
 621 448 583 538.5 473.5 539.5 c 0
 365.5 540.5 284.5 454 266.5 350 c 0
62 350 m 0
 94 561 277 718 493 718 c 0
 707 718 839.5 555 810 350 c 0
 778 138 598.5 -27 377 -26.5 c 0
 159 -26 32.5 145 62 350 c 0
371 926.5 m 1
 475 926.5 l 1
 475.5 895.5 490 875 520 873 c 0
 551 871 578 896 587 926 c 1
 696 925 l 1
 678.5 841 613.5 779 514 778.5 c 0
 414.5 778 365.5 841 371 926.5 c 1
EndSplineSet
EndChar

StartChar: obreve
Encoding: 335 335 323
Width: 585
VWidth: 0
Flags: HMW
LayerCount: 2
Fore
SplineSet
40.5 230.5 m 0
 61.5 374 191 471 341 471 c 0
 487 471 590 370.5 570 229.5 c 0
 549 86 419.5 -10 270 -10 c 0
 124 -10 20.5 89.5 40.5 230.5 c 0
217 229.5 m 0
 209.5 178 234 133.5 284.5 132 c 0
 336.5 130.5 384.5 175 393.5 230.5 c 0
 401 282 377 327.5 326.5 329 c 0
 274.5 330.5 226 285 217 229.5 c 0
218 679 m 1
 322.5 679 l 1
 323 648 337.5 627 367.5 625 c 0
 398.5 623 425 648.5 434 678.5 c 1
 543.5 677.5 l 1
 526 593.5 461.5 532 362 531.5 c 0
 262.5 531 212.5 593.5 218 679 c 1
EndSplineSet
EndChar

StartChar: Racute
Encoding: 340 340 324
Width: 655
VWidth: 0
Flags: HMW
LayerCount: 2
Fore
SplineSet
282 307.5 m 1
 475 307.5 l 1
 625 0 l 1
 406 0 l 1
 282 307.5 l 1
160.5 700 m 1
 355 700 l 1
 234 0 l 1
 41 0 l 1
 160.5 700 l 1
254.5 534.5 m 1
 283 700 l 1
 425 700 l 1
 590.5 698 689.5 608 667.5 465 c 0
 645 321.5 526.5 232.5 355.5 230.5 c 1
 201.5 230.5 l 1
 228.5 380 l 1
 354.5 380 l 1
 410 381.5 455.5 407.5 464.5 457.5 c 0
 472.5 505 442 531.5 389.5 533.5 c 1
 254.5 534.5 l 1
608 925 m 1
 411 779 l 1
 317.5 828 l 1
 487.5 984 l 1
 608 925 l 1
EndSplineSet
EndChar

StartChar: uni0156
Encoding: 342 342 325
Width: 655
VWidth: 0
Flags: HMW
LayerCount: 2
Fore
SplineSet
282 307.5 m 1
 475 307.5 l 1
 625 0 l 1
 406 0 l 1
 282 307.5 l 1
160.5 700 m 1
 355 700 l 1
 234 0 l 1
 41 0 l 1
 160.5 700 l 1
254.5 534.5 m 1
 283 700 l 1
 425 700 l 1
 590.5 698 689.5 608 667.5 465 c 0
 645 321.5 526.5 232.5 355.5 230.5 c 1
 201.5 230.5 l 1
 228.5 380 l 1
 354.5 380 l 1
 410 381.5 455.5 407.5 464.5 457.5 c 0
 472.5 505 442 531.5 389.5 533.5 c 1
 254.5 534.5 l 1
279.5 -61 m 1
 449 -95 l 1
 281 -342 l 1
 150.5 -317 l 1
 279.5 -61 l 1
EndSplineSet
EndChar

StartChar: uni0157
Encoding: 343 343 326
Width: 420
VWidth: 0
Flags: HMW
LayerCount: 2
Fore
SplineSet
272 460 m 1
 192.5 0 l 1
 24 0 l 1
 103 460 l 1
 272 460 l 1
370 281.5 m 1
 357 296 342.5 307.5 319.5 308 c 0
 272.5 309 240 262 229 209.5 c 1
 203.5 281 l 1
 220.5 376.5 294 474.5 386 472 c 0
 419.5 471 446.5 452.5 463.5 429.5 c 1
 370 281.5 l 1
53 -61 m 1
 223 -95 l 1
 54.5 -342 l 1
 -76 -317 l 1
 53 -61 l 1
EndSplineSet
EndChar

StartChar: Scedilla
Encoding: 350 350 327
Width: 630
VWidth: 0
Flags: HMW
LayerCount: 2
Fore
SplineSet
175 259 m 1
 209.5 190.5 245.5 143 315.5 143.5 c 0
 357 143.5 392.5 160.5 400 197 c 0
 411 248 343.5 265.5 286.5 290 c 0
 207.5 325.5 116 391 131 514 c 0
 150.5 640 272 718 415 718 c 0
 550 718 628.5 652 656.5 562 c 1
 503 481.5 l 1
 480 525.5 451 554 404 554 c 0
 368.5 554 333 536 326.5 507.5 c 0
 315.5 461.5 406.5 440 462.5 418.5 c 0
 560 380.5 618.5 305.5 604 197.5 c 0
 582.5 49.5 450.5 -27 292.5 -26.5 c 0
 166.5 -26 63.5 48 30 164 c 1
 175 259 l 1
259 61 m 1
 389.5 55.5 l 1
 272 -69 l 1
 284.5 -65.5 299 -64 313 -64.5 c 0
 362 -66.5 402.5 -108.5 395 -170 c 0
 385 -242.5 311 -281 244.5 -282.5 c 0
 186 -284 139 -269.5 89 -241.5 c 1
 147 -166.5 l 1
 171.5 -182.5 204 -191.5 226.5 -191 c 0
 252.5 -190.5 288 -179.5 289.5 -156 c 0
 291 -132 257.5 -127 236 -126.5 c 0
 215 -125.5 178 -131 142.5 -141 c 1
 259 61 l 1
EndSplineSet
EndChar

StartChar: scedilla
Encoding: 351 351 328
Width: 457
VWidth: 0
Flags: HMW
LayerCount: 2
Fore
SplineSet
77 178 m 1
 134.75 131.75 183.5 100.5 223.25 103.5 c 0
 242.75 104 262.5 115.75 265 132.5 c 0
 270 164 222.25 175 185.5 189 c 0
 121 214.25 69.25 257.5 79.75 337 c 0
 92.75 420.5 177 469 272.75 469.5 c 0
 348.25 470 412.25 442.5 468.75 407.25 c 1
 402 293.75 l 1
 365.5 327.5 322.75 355 281.75 354 c 0
 258.75 354 238.25 344.5 234.75 329.75 c 0
 227.75 297.25 289 287 329.25 271.25 c 0
 391.75 246.5 442.25 207.25 433.25 129.5 c 0
 420.25 30 342.5 -21 237.25 -22 c 0
 143.5 -23 66 12 -1.5 61.75 c 1
 77 178 l 1
198.5 66.7002 m 1
 328.5 62.7002 l 1
 211.5 -62.7998 l 1
 224 -59.2998 238 -57.2998 252 -57.7998 c 0
 301 -59.7998 342.5 -102.2998 335 -163.8 c 0
 325 -236.3 250 -274.3 183.5 -275.8 c 0
 125 -276.8 77 -262.8 27.5 -234.8 c 1
 85.5 -159.8 l 1
 110 -175.8 142.5 -185.8 165 -185.3 c 0
 191 -184.8 227 -172.8 228.5 -149.3 c 0
 230 -125.3 196.5 -120.3 175 -119.8 c 0
 154 -118.8 117.5 -124.3 82 -134.3 c 1
 198.5 66.7002 l 1
EndSplineSet
EndChar

StartChar: Zcaron
Encoding: 381 381 329
Width: 624
VWidth: 0
Flags: HMW
LayerCount: 2
Fore
SplineSet
122.5 525 m 1
 153.5 700 l 1
 710 699.5 l 1
 310.5 167.5 l 1
 578 167 l 1
 548 0 l 1
 -25 0 l 1
 368 524.5 l 1
 122.5 525 l 1
463 918.5 m 1
 559.5 999.5 l 1
 670.5 915 l 1
 448 778 l 1
 264 921.5 l 1
 394.5 1000 l 1
 463 918.5 l 1
EndSplineSet
EndChar

StartChar: zcaron
Encoding: 382 382 330
Width: 517
VWidth: 0
Flags: HMW
LayerCount: 2
Fore
SplineSet
369.5 670.5 m 1
 466 751 l 1
 576.5 667 l 1
 354 530 l 1
 170 673 l 1
 301 752 l 1
 369.5 670.5 l 1
256.5 302 m 1
 82 302.5 l 1
 109.5 460 l 1
 568 459.5 l 1
 309.5 158 l 1
 479 158 l 1
 451 0 l 1
 -17 0 l 1
 256.5 302 l 1
EndSplineSet
EndChar

StartChar: Ydieresis
Encoding: 376 376 331
Width: 671
VWidth: 0
Flags: HMW
LayerCount: 2
Fore
SplineSet
213.5 884.5 m 0
 220.5 935.5 270.5 973 322.5 973 c 0
 375 973 414.5 934 407.5 881.5 c 0
 400.5 830 350.5 793 298.5 793 c 0
 246 793 206.5 832.5 213.5 884.5 c 0
512 884.5 m 0
 519 935.5 569 973 621 973 c 0
 673.5 973 713 934 706 881.5 c 0
 699 830 649 793 597 793 c 0
 544.5 793 505 832.5 512 884.5 c 0
543.5 699.5 m 1
 772 699.5 l 1
 454.5 275 l 1
 408 0 l 1
 210 0 l 1
 260 283.5 l 1
 90.5 700 l 1
 309 700 l 1
 385 460.5 l 1
 543.5 699.5 l 1
EndSplineSet
EndChar

StartChar: Scaron
Encoding: 352 352 332
Width: 630
VWidth: 0
Flags: HMW
LayerCount: 2
Fore
SplineSet
175 259 m 1
 209.5 190.5 245.5 143 315.5 143.5 c 0
 357 143.5 392.5 160.5 400 197 c 0
 411 248 343.5 265.5 286.5 290 c 0
 207.5 325.5 116.5 393.5 131.5 515 c 0
 151 641 273 718 415 718 c 0
 549.5 718 630 651 656.5 562 c 1
 502.5 481.5 l 1
 479.5 525.5 453 554 406 554 c 0
 370 554 333 536 326.5 507.5 c 0
 315 461.5 406.5 440 462.5 418.5 c 0
 560 380.5 618.5 305.5 604 197.5 c 0
 582.5 49.5 451.5 -27 292.5 -26.5 c 0
 166.5 -26 63.5 48 30 164 c 1
 175 259 l 1
451 918.5 m 1
 547.5 999.5 l 1
 658 915 l 1
 435.5 778 l 1
 252 921.5 l 1
 382.5 1000 l 1
 451 918.5 l 1
EndSplineSet
EndChar

StartChar: scaron
Encoding: 353 353 333
Width: 458
VWidth: 0
Flags: HMW
LayerCount: 2
Fore
SplineSet
77 178.5 m 1
 137 131.5 184 107 223 108 c 0
 240 108 262 114 264.5 131 c 0
 269 160.5 190 173 153.5 191 c 0
 96 219.5 55.5 263 64.5 333.5 c 0
 78.5 426.5 175.5 469 273.5 469.5 c 0
 349 469.5 413.5 443 470 407.5 c 1
 404 293 l 1
 367.5 326.5 316 348.5 274 348.5 c 0
 251.5 348.5 229.5 342.5 227 326 c 0
 222.5 299 291.5 284.5 330.5 269.5 c 0
 393 245 443.5 204.5 434.5 129.5 c 0
 421.5 27.5 343 -21.5 237.5 -22 c 0
 143.5 -23 65.5 11 -1.5 60.5 c 1
 77 178.5 l 1
306 654.5 m 1
 402 735.5 l 1
 513 651 l 1
 290.5 514 l 1
 106 657 l 1
 237 736.5 l 1
 306 654.5 l 1
EndSplineSet
EndChar

StartChar: Lslash
Encoding: 321 321 334
Width: 544
VWidth: 0
Flags: HMW
LayerCount: 2
Fore
SplineSet
32 299 m 1
 -0.5 382.5 l 1
 426 649 l 1
 458.5 566 l 1
 32 299 l 1
161 700 m 1
 355 700 l 1
 263.5 167 l 1
 539 167 l 1
 509.5 0 l 1
 41 0 l 1
 161 700 l 1
EndSplineSet
EndChar

StartChar: lslash
Encoding: 322 322 335
Width: 274
VWidth: 0
Flags: HMW
LayerCount: 2
Fore
SplineSet
16 299 m 1
 -16.5 382.5 l 1
 370.5 620.5 l 1
 402 538 l 1
 16 299 l 1
157.5 780 m 1
 331 780 l 1
 196.5 0 l 1
 24 0 l 1
 157.5 780 l 1
EndSplineSet
EndChar

StartChar: uni0218
Encoding: 536 536 336
Width: 630
VWidth: 0
Flags: HMW
LayerCount: 2
Fore
SplineSet
175 259 m 1
 209.5 190.5 245.5 143 315.5 143.5 c 0
 357 143.5 392.5 160.5 400 197 c 0
 411 248 343.5 265.5 286.5 290 c 0
 207.5 325.5 116.5 393.5 131.5 515 c 0
 151 641 273 718 415 718 c 0
 549.5 718 630 651 656.5 562 c 1
 502.5 481.5 l 1
 479.5 525.5 453 554 406 554 c 0
 370 554 333 536 326.5 507.5 c 0
 315 461.5 406.5 440 462.5 418.5 c 0
 560 380.5 618.5 305.5 604 197.5 c 0
 582.5 49.5 451.5 -27 292.5 -26.5 c 0
 166.5 -26 63.5 48 30 164 c 1
 175 259 l 1
201.5 -71 m 1
 372.5 -105 l 1
 203 -352 l 1
 72 -327 l 1
 201.5 -71 l 1
EndSplineSet
EndChar

StartChar: uni0219
Encoding: 537 537 337
Width: 458
VWidth: 0
Flags: HMW
LayerCount: 2
Fore
SplineSet
77 178.5 m 1
 137 131.5 184 107 223 108 c 0
 240 108 262 114 264.5 131 c 0
 269 160.5 190 173 153.5 191 c 0
 96 219.5 55.5 263 64.5 333.5 c 0
 78.5 426.5 175.5 469 273.5 469.5 c 0
 349 469.5 413.5 443 470 407.5 c 1
 404 293 l 1
 367.5 326.5 316 348.5 274 348.5 c 0
 251.5 348.5 229.5 342.5 227 326 c 0
 222.5 299 291.5 284.5 330.5 269.5 c 0
 393 245 443.5 204.5 434.5 129.5 c 0
 421.5 27.5 343 -21.5 237.5 -22 c 0
 143.5 -23 65.5 11 -1.5 60.5 c 1
 77 178.5 l 1
148 -67 m 1
 317.5 -101 l 1
 149.5 -348 l 1
 18.5 -323 l 1
 148 -67 l 1
EndSplineSet
EndChar

StartChar: pi
Encoding: 960 960 338
Width: 604
VWidth: 0
Flags: HMW
LayerCount: 2
Fore
SplineSet
132.5 430 m 1
 293.5 430 l 1
 219 0 l 1
 58.5 0 l 1
 132.5 430 l 1
79 460 m 1
 619 460 l 1
 593.5 318.5 l 1
 54 318.5 l 1
 79 460 l 1
375 430 m 1
 536 430 l 1
 493.5 190.5 l 1
 487.5 137.5 500 128.5 534 121 c 1
 513.5 -8.5 l 1
 397 -8 307.5 -2.5 323 121 c 1
 375 430 l 1
EndSplineSet
EndChar

StartChar: trademark
Encoding: 8482 8482 339
Width: 749
VWidth: 0
Flags: HMW
LayerCount: 2
Fore
SplineSet
103.5 612 m 1
 119 700 l 1
 408 700 l 1
 392.5 612 l 1
 297.5 612 l 1
 252 350 l 1
 154 350 l 1
 199 612 l 1
 103.5 612 l 1
670.5 594.5 m 1
 766 724.5 l 1
 759 350 l 1
 657.5 350 l 1
 670.5 594.5 l 1
466 718.5 m 1
 516 584.5 l 1
 447.5 350.5 l 1
 341.5 350.5 l 1
 466 718.5 l 1
768.5 725.5 m 1
 741.5 589 l 1
 560 380.5 l 1
 445.5 598.5 l 1
 466 717 l 1
 577.5 519 l 1
 768.5 725.5 l 1
EndSplineSet
EndChar

StartChar: uni2219
Encoding: 8729 8729 340
Width: 319
VWidth: 0
Flags: HMW
LayerCount: 2
Fore
SplineSet
104.5 453.5 m 0
 112 508.5 164.5 556.5 224 556.5 c 0
 284 556.5 322.5 506.5 315 451.5 c 0
 307.5 396.5 255.5 348 196 348 c 0
 136 348 97 398.5 104.5 453.5 c 0
EndSplineSet
EndChar

StartChar: agrave.alt
Encoding: 65537 -1 341
Width: 546
VWidth: 0
Flags: HMW
LayerCount: 2
Fore
SplineSet
188 137.5 m 0
 185 112 206.5 100 232 99 c 0
 284.5 96.5 326 132 339.5 187.5 c 1
 346.5 129 l 1
 327.5 44 256 -9 162.5 -9.5 c 0
 70 -10 2 41.5 14.5 129.5 c 0
 28.5 223.5 123.5 276 230 276.5 c 0
 289 277 348 258.5 380 231 c 1
 368 153 l 1
 339 175.5 310.5 188.5 267.5 187.5 c 0
 231.5 186.5 192.5 168.5 188 137.5 c 0
143.5 307 m 1
 105 423 l 1
 169 449 245.5 474 325 474 c 0
 436 474 538 426 525 322 c 1
 470.5 0 l 1
 305.5 0 l 1
 356.5 282.5 l 1
 360 319 339.5 341 296 343.5 c 0
 237 346.5 178.5 322 143.5 307 c 1
196 687 m 1
 326.5 741 l 1
 447.5 577.5 l 1
 348 534 l 1
 196 687 l 1
EndSplineSet
EndChar

StartChar: aacute.alt
Encoding: 65538 -1 342
Width: 546
VWidth: 0
Flags: HMW
LayerCount: 2
Fore
SplineSet
188 137.5 m 0
 185 112 206.5 100 232 99 c 0
 284.5 96.5 326 132 339.5 187.5 c 1
 346.5 129 l 1
 327.5 44 256 -9 162.5 -9.5 c 0
 70 -10 2 41.5 14.5 129.5 c 0
 28.5 223.5 123.5 276 230 276.5 c 0
 289 277 348 258.5 380 231 c 1
 368 153 l 1
 339 175.5 310.5 188.5 267.5 187.5 c 0
 231.5 186.5 192.5 168.5 188 137.5 c 0
143.5 307 m 1
 105 423 l 1
 169 449 245.5 474 325 474 c 0
 436 474 538 426 525 322 c 1
 470.5 0 l 1
 305.5 0 l 1
 356.5 282.5 l 1
 360 319 339.5 341 296 343.5 c 0
 237 346.5 178.5 322 143.5 307 c 1
538.5 681 m 1
 341.5 534.5 l 1
 248.5 584 l 1
 418.5 739.5 l 1
 538.5 681 l 1
EndSplineSet
EndChar

StartChar: acircumflex.alt
Encoding: 65539 -1 343
Width: 546
VWidth: 0
Flags: HMW
LayerCount: 2
Fore
SplineSet
188 137.5 m 0
 185 112 206.5 100 232 99 c 0
 284.5 96.5 326 132 339.5 187.5 c 1
 346.5 129 l 1
 327.5 44 256 -9 162.5 -9.5 c 0
 70 -10 2 41.5 14.5 129.5 c 0
 28.5 223.5 123.5 276 230 276.5 c 0
 289 277 348 258.5 380 231 c 1
 368 153 l 1
 339 175.5 310.5 188.5 267.5 187.5 c 0
 231.5 186.5 192.5 168.5 188 137.5 c 0
143.5 307 m 1
 105 423 l 1
 169 449 245.5 474 325 474 c 0
 436 474 538 426 525 322 c 1
 470.5 0 l 1
 305.5 0 l 1
 356.5 282.5 l 1
 360 319 339.5 341 296 343.5 c 0
 237 346.5 178.5 322 143.5 307 c 1
358.5 615.5 m 1
 262 534 l 1
 151.5 618.5 l 1
 374 755 l 1
 558.5 612 l 1
 427 533.5 l 1
 358.5 615.5 l 1
EndSplineSet
EndChar

StartChar: atilde.alt
Encoding: 65540 -1 344
Width: 546
VWidth: 0
Flags: HMW
LayerCount: 2
Fore
SplineSet
188 137.5 m 0
 185 112 206.5 100 232 99 c 0
 284.5 96.5 326 132 339.5 187.5 c 1
 346.5 129 l 1
 327.5 44 256 -9 162.5 -9.5 c 0
 70 -10 2 41.5 14.5 129.5 c 0
 28.5 223.5 123.5 276 230 276.5 c 0
 289 277 348 258.5 380 231 c 1
 368 153 l 1
 339 175.5 310.5 188.5 267.5 187.5 c 0
 231.5 186.5 192.5 168.5 188 137.5 c 0
143.5 307 m 1
 105 423 l 1
 169 449 245.5 474 325 474 c 0
 436 474 538 426 525 322 c 1
 470.5 0 l 1
 305.5 0 l 1
 356.5 282.5 l 1
 360 319 339.5 341 296 343.5 c 0
 237 346.5 178.5 322 143.5 307 c 1
152.5 611 m 1
 173.5 659 220 708.5 286 707 c 0
 341 706 363.5 653.5 414 655 c 0
 444.5 656 468.5 682.5 490.5 709 c 1
 557.5 622.5 l 1
 530.5 583.5 471.5 533 408 535.5 c 0
 358.5 537.5 323 592.5 275.5 589 c 0
 242.5 586.5 229 557 220.5 539 c 1
 152.5 611 l 1
EndSplineSet
EndChar

StartChar: adieresis.alt
Encoding: 65541 -1 345
Width: 546
VWidth: 0
Flags: HMW
LayerCount: 2
Fore
SplineSet
188 137.5 m 0
 185 112 206.5 100 232 99 c 0
 284.5 96.5 326 132 339.5 187.5 c 1
 346.5 129 l 1
 327.5 44 256 -9 162.5 -9.5 c 0
 70 -10 2 41.5 14.5 129.5 c 0
 28.5 223.5 123.5 276 230 276.5 c 0
 289 277 348 258.5 380 231 c 1
 368 153 l 1
 339 175.5 310.5 188.5 267.5 187.5 c 0
 231.5 186.5 192.5 168.5 188 137.5 c 0
143.5 307 m 1
 105 423 l 1
 169 449 245.5 474 325 474 c 0
 436 474 538 426 525 322 c 1
 470.5 0 l 1
 305.5 0 l 1
 356.5 282.5 l 1
 360 319 339.5 341 296 343.5 c 0
 237 346.5 178.5 322 143.5 307 c 1
385 626 m 0
 392 677.5 441.5 715 493.5 715 c 0
 546 715 585 676 578 623.5 c 0
 571 572 522 534.5 470 534.5 c 0
 417.5 534.5 378 573.5 385 626 c 0
134.5 626 m 0
 141.5 677.5 191 715 243 715 c 0
 295.5 715 335 676 328 623.5 c 0
 321 572 271.5 534.5 219.5 534.5 c 0
 167 534.5 127.5 573.5 134.5 626 c 0
EndSplineSet
EndChar

StartChar: aring.alt
Encoding: 65542 -1 346
Width: 546
VWidth: 0
Flags: HMW
LayerCount: 2
Fore
SplineSet
188 137.5 m 0
 185 112 206.5 100 232 99 c 0
 284.5 96.5 326 132 339.5 187.5 c 1
 346.5 129 l 1
 327.5 44 256 -9 162.5 -9.5 c 0
 70 -10 2 41.5 14.5 129.5 c 0
 28.5 223.5 123.5 276 230 276.5 c 0
 289 277 348 258.5 380 231 c 1
 368 153 l 1
 339 175.5 310.5 188.5 267.5 187.5 c 0
 231.5 186.5 192.5 168.5 188 137.5 c 0
143.5 307 m 1
 105 423 l 1
 169 449 245.5 474 325 474 c 0
 436 474 538 426 525 322 c 1
 470.5 0 l 1
 305.5 0 l 1
 356.5 282.5 l 1
 360 319 339.5 341 296 343.5 c 0
 237 346.5 178.5 322 143.5 307 c 1
231.5 655.5 m 0
 240.5 724.5 306 774.5 377 774.5 c 0
 448 774.5 500.5 723.5 491 653.5 c 0
 482 584 416 534.5 344.5 534.5 c 0
 273.5 534.5 222 586 231.5 655.5 c 0
317.5 654 m 0
 315 631.5 328 610.5 350.5 609.5 c 0
 374 608.5 401 631.5 404.5 655.5 c 0
 407 678 394 700 371.5 701 c 0
 348 702 321 678 317.5 654 c 0
EndSplineSet
EndChar

StartChar: amacron.alt
Encoding: 65543 -1 347
Width: 546
VWidth: 0
Flags: HMW
LayerCount: 2
Fore
SplineSet
188 137.5 m 0
 185 112 206.5 100 232 99 c 0
 284.5 96.5 326 132 339.5 187.5 c 1
 346.5 129 l 1
 327.5 44 256 -9 162.5 -9.5 c 0
 70 -10 2 41.5 14.5 129.5 c 0
 28.5 223.5 123.5 276 230 276.5 c 0
 289 277 348 258.5 380 231 c 1
 368 153 l 1
 339 175.5 310.5 188.5 267.5 187.5 c 0
 231.5 186.5 192.5 168.5 188 137.5 c 0
143.5 307 m 1
 105 423 l 1
 169 449 245.5 474 325 474 c 0
 436 474 538 426 525 322 c 1
 470.5 0 l 1
 305.5 0 l 1
 356.5 282.5 l 1
 360 319 339.5 341 296 343.5 c 0
 237 346.5 178.5 322 143.5 307 c 1
155.5 537.5 m 1
 182 687 l 1
 553.5 687 l 1
 527 537.5 l 1
 155.5 537.5 l 1
EndSplineSet
EndChar

StartChar: abreve.alt
Encoding: 65544 -1 348
Width: 546
VWidth: 0
Flags: HMW
LayerCount: 2
Fore
SplineSet
188 137.5 m 0
 185 112 206.5 100 232 99 c 0
 284.5 96.5 326 132 339.5 187.5 c 1
 346.5 129 l 1
 327.5 44 256 -9 162.5 -9.5 c 0
 70 -10 2 41.5 14.5 129.5 c 0
 28.5 223.5 123.5 276 230 276.5 c 0
 289 277 348 258.5 380 231 c 1
 368 153 l 1
 339 175.5 310.5 188.5 267.5 187.5 c 0
 231.5 186.5 192.5 168.5 188 137.5 c 0
143.5 307 m 1
 105 423 l 1
 169 449 245.5 474 325 474 c 0
 436 474 538 426 525 322 c 1
 470.5 0 l 1
 305.5 0 l 1
 356.5 282.5 l 1
 360 319 339.5 341 296 343.5 c 0
 237 346.5 178.5 322 143.5 307 c 1
202.5 682.5 m 1
 307 682.5 l 1
 307.5 651.5 321.5 631 351.5 629 c 0
 382.5 627 409.5 652 418.5 682 c 1
 527 681 l 1
 509.5 597 445 535 345.5 534.5 c 0
 246 534 197 597 202.5 682.5 c 1
EndSplineSet
EndChar

StartChar: aogonek.alt
Encoding: 65545 -1 349
Width: 546
VWidth: 0
Flags: HMW
LayerCount: 2
Fore
SplineSet
188 137.5 m 0
 185 112.5 207.5 100 232 99 c 0
 284 96.5 326 132 339.5 187.5 c 1
 346.5 129 l 1
 327.5 44 256 -9 162.5 -9.5 c 0
 70 -10 2.5 41.5 15 130.5 c 0
 29 223.5 122.5 276 230 276.5 c 0
 289 277 348 258.5 380 231 c 1
 368 153 l 1
 339 175.5 310.5 188.5 267.5 187.5 c 0
 231.5 186.5 192.5 168.5 188 137.5 c 0
143.5 307 m 1
 105 423 l 1
 169 449 245.5 474 325 474 c 0
 436 474 538 426 525 322 c 1
 470.5 0 l 1
 305.5 0 l 1
 356.5 282.5 l 1
 360 319 339.5 341 296 343.5 c 0
 237 346.5 178.5 322 143.5 307 c 1
415 -105 m 1
 436.5 -181.5 l 1
 413 -202.5 380.5 -220.5 331.5 -220 c 0
 273 -219.5 224 -182 231.5 -119 c 0
 241.5 -47.5 322.5 -8 389.5 25 c 1
 430.5 0 l 1
 387.5 -27.5 346.5 -55.5 339.5 -92 c 0
 338 -109.5 343 -123.5 362 -125 c 0
 379.5 -126.5 400.5 -115 415 -105 c 1
EndSplineSet
EndChar

StartChar: dagger
Encoding: 8224 8224 350
Width: 633
VWidth: 0
Flags: HMW
LayerCount: 2
Fore
SplineSet
152 540 m 1
 614 540 l 1
 591 398.5 l 1
 129.5 398.5 l 1
 152 540 l 1
327 700 m 1
 488 700 l 1
 356.5 -150 l 1
 196 -150 l 1
 327 700 l 1
EndSplineSet
EndChar

StartChar: daggerdbl
Encoding: 8225 8225 351
Width: 633
VWidth: 0
Flags: HMW
LayerCount: 2
Fore
SplineSet
95 169.5 m 1
 557 169.5 l 1
 534.5 28.5 l 1
 72.5 28.5 l 1
 95 169.5 l 1
152 540 m 1
 614 540 l 1
 591 398.5 l 1
 129.5 398.5 l 1
 152 540 l 1
327 700 m 1
 488 700 l 1
 356.5 -150 l 1
 196 -150 l 1
 327 700 l 1
EndSplineSet
EndChar

StartChar: ellipsis
Encoding: 8230 8230 352
Width: 905
VWidth: 0
Flags: HMW
LayerCount: 2
Fore
SplineSet
40.5 78 m 0
 48 133 100.5 181.5 160 181.5 c 0
 220 181.5 258.5 131 251 76 c 0
 243.5 21 191.5 -27 132 -27 c 0
 72 -27 33 23 40.5 78 c 0
331.5 78 m 0
 339 133 391.5 181.5 451 181.5 c 0
 511 181.5 550 131 542.5 76 c 0
 535 21 482.5 -27 423 -27 c 0
 363 -27 324 23 331.5 78 c 0
623 78 m 0
 630.5 133 682.5 181.5 742 181.5 c 0
 802 181.5 841 131 833.5 76 c 0
 826 21 773.5 -27 714 -27 c 0
 654 -27 615.5 23 623 78 c 0
EndSplineSet
EndChar

StartChar: uniFF10
Encoding: 65296 65296 353
Width: 626
VWidth: 0
Flags: HMW
LayerCount: 2
Fore
SplineSet
237 350 m 0
 228 264.5 228.5 156 307 153.5 c 0
 387 151 441 253.5 454 350 c 0
 463 435.5 462.5 544 384 546.5 c 0
 304 549 250 446.5 237 350 c 0
51.5 350 m 0
 79.5 555 212 714 402 714 c 0
 598.5 714 664 545 639.5 350 c 0
 611.5 144 484 -14.5 289 -14 c 0
 98 -13.5 27 155.5 51.5 350 c 0
EndSplineSet
EndChar

StartChar: uniFF11
Encoding: 65297 65297 354
Width: 626
VWidth: 0
Flags: HMW
LayerCount: 2
Fore
SplineSet
155 475 m 1
 185.5 644.5 l 1
 557.5 715.5 l 1
 434.5 0 l 1
 249 0 l 1
 337 516.5 l 1
 155 475 l 1
EndSplineSet
EndChar

StartChar: uniFF12
Encoding: 65298 65298 355
Width: 626
VWidth: 0
Flags: HMW
LayerCount: 2
Fore
SplineSet
-23 0 m 1
 327.5 313 l 2
 383.5 366 440.5 410.5 451.5 472.5 c 0
 457.5 510 439.5 546.5 389.5 548 c 0
 329 550 288.5 492.5 276.5 435.5 c 1
 87 436.5 l 1
 114.5 588.5 231.5 715.5 414.5 715 c 0
 569 715 672.5 608.5 652.5 483.5 c 0
 641 406 587.5 347 523.5 299 c 2
 365 179.5 l 1
 621.5 179 l 1
 590.5 0 l 1
 -23 0 l 1
EndSplineSet
EndChar

StartChar: uniFF13
Encoding: 65299 65299 356
Width: 626
VWidth: 0
Flags: HMW
LayerCount: 2
Fore
SplineSet
297 337.5 m 1
 309 419.5 l 1
 371 423.5 440 452.5 447.5 505 c 0
 451 537 431 559 392 560 c 0
 343.5 561.5 309.5 525.5 297.5 485 c 1
 119.5 486 l 1
 145 617 256.5 713.5 409 714 c 0
 550 714.5 657.5 637.5 638 517 c 0
 615.5 376.5 452 339 297 337.5 c 1
286.5 -18 m 0
 121.5 -17 32 99.5 45 235 c 1
 233.5 234.5 l 1
 230.5 175.5 255.5 139 310.5 137 c 0
 360.5 135.5 407 162 415.5 212.5 c 0
 429 273.5 368 297.5 289.5 300 c 1
 303.5 395.5 l 1
 464.5 393.5 626 346.5 602 192.5 c 0
 581.5 60 448.5 -19 286.5 -18 c 0
EndSplineSet
EndChar

StartChar: uniFF14
Encoding: 65300 65300 357
Width: 626
VWidth: 0
Flags: HMW
LayerCount: 2
Fore
SplineSet
-2.5 120 m 1
 177.5 256 l 1
 439 257 l 1
 460.5 285.5 l 1
 635 285.5 l 1
 605.5 119.5 l 1
 -2.5 120 l 1
193 185 m 1
 -7 115.5 l 1
 458.5 699.5 l 1
 614.5 700 l 1
 494.5 0 l 1
 292.5 0 l 1
 318.5 155 l 1
 344 166 l 1
 388.5 427 l 1
 193 185 l 1
EndSplineSet
EndChar

StartChar: uniFF15
Encoding: 65301 65301 358
Width: 626
VWidth: 0
Flags: HMW
LayerCount: 2
Fore
SplineSet
604 221.5 m 0
 581.5 64 423 -13 281.5 -14 c 0
 168.5 -14.5 81 17 6.5 59.5 c 1
 93 226.5 l 1
 146 188 203.5 165.5 254 165 c 0
 322 164.5 387 186.5 396.5 247 c 0
 405.5 305 343.5 322 290.5 323 c 0
 229 324 153 312.5 83 287 c 1
 228.5 376.5 l 1
 287.5 425 351 449.5 427.5 448.5 c 0
 543.5 446.5 620.5 349 604 221.5 c 0
362.5 529.5 m 1
 275.5 366 l 1
 76.5 282 l 1
 246.5 699.5 l 1
 668 700 l 1
 638 530 l 1
 362.5 529.5 l 1
EndSplineSet
EndChar

StartChar: uniFF16
Encoding: 65302 65302 359
Width: 626
VWidth: 0
Flags: HMW
LayerCount: 2
Fore
SplineSet
227.5 250 m 0
 218.5 194.5 249.5 149.5 307 148.5 c 0
 366 147.5 420 192.5 430 251 c 0
 439 306 408.5 353.5 350.5 354.5 c 0
 291 356 237.5 308.5 227.5 250 c 0
385 695.5 m 1
 636 695.5 l 1
 371.5 456 l 1
 321.5 435.5 l 1
 360 465.5 392 478 440 478 c 0
 553 478 636.5 376 621 250 c 0
 598 80.5 452 -18 288.5 -18 c 0
 128.5 -18 12.5 84.5 36 250.5 c 0
 49 334 102.5 401.5 160.5 462 c 2
 385 695.5 l 1
EndSplineSet
EndChar

StartChar: uniFF17
Encoding: 65303 65303 360
Width: 626
VWidth: 0
Flags: HMW
LayerCount: 2
Fore
SplineSet
90 516 m 1
 122.5 700 l 1
 707.5 699.5 l 1
 258 0 l 1
 44 0 l 1
 389.5 515.5 l 1
 90 516 l 1
EndSplineSet
EndChar

StartChar: uniFF18
Encoding: 65304 65304 361
Width: 626
VWidth: 0
Flags: HMW
LayerCount: 2
Fore
SplineSet
148.5 531.5 m 0
 166.5 655 292.5 718 419.5 718 c 0
 541 718 656 654.5 638 530.5 c 0
 620.5 402 483 338.5 365.5 338.5 c 0
 253 338.5 131 403.5 148.5 531.5 c 0
325.5 512 m 0
 320.5 477.5 337.5 445.5 374.5 443.5 c 0
 412.5 441 449 477 454.5 513.5 c 0
 459.5 548.5 441.5 578.5 404.5 580.5 c 0
 366.5 582.5 331 549 325.5 512 c 0
66 190.5 m 0
 85.5 335 241 398 364.5 398 c 0
 481.5 398 624 334 604.5 189.5 c 0
 585 55.5 440.5 -18 304.5 -18 c 0
 175 -18 46.5 56.5 66 190.5 c 0
263.5 219.5 m 0
 257 175.5 279 141.5 323 140 c 0
 368 138.5 410 174.5 417 221.5 c 0
 422.5 260 399 295.5 356.5 297 c 0
 312.5 298.5 271 260 263.5 219.5 c 0
EndSplineSet
EndChar

StartChar: uniFF19
Encoding: 65305 65305 362
Width: 626
VWidth: 0
Flags: HMW
LayerCount: 2
Fore
SplineSet
464 450 m 0
 473 505.5 441.5 550.5 384 551.5 c 0
 325 552.5 271 507.5 261 449 c 0
 252 394 282.5 346.5 340.5 345.5 c 0
 400 344 454 391.5 464 450 c 0
306 4.5 m 1
 55 4.5 l 1
 318.5 244 l 1
 369 264.5 l 1
 330.5 234.5 298.5 222 250.5 222 c 0
 137.5 222 54.5 324 70 450 c 0
 93 619.5 239.5 718 403 718 c 0
 563 718 678.5 615.5 655 449.5 c 0
 642 366 589 298.5 531 238 c 2
 306 4.5 l 1
EndSplineSet
EndChar

StartChar: caron
Encoding: 711 711 363
Width: 465
VWidth: 0
Flags: HMW
LayerCount: 2
Fore
SplineSet
319 684 m 1
 415 766 l 1
 525.5 681 l 1
 303 544.5 l 1
 119.5 687.5 l 1
 250 767 l 1
 319 684 l 1
EndSplineSet
EndChar

StartChar: napostrophe
Encoding: 329 329 364
Width: 759
VWidth: 0
Flags: HMW
LayerCount: 2
Fore
SplineSet
463 460 m 1
 384 0 l 1
 210.5 0 l 1
 290 460 l 1
 463 460 l 1
551 280 m 1
 554.5 317 553.5 350.5 512.5 354 c 0
 471 357.5 441 319.5 432 280.5 c 1
 402 273 l 1
 420 376 477 470 594.5 471 c 0
 708.5 472 745.5 399.5 732.5 298 c 1
 682 0 l 1
 501 0 l 1
 551 280 l 1
192.5 700 m 1
 371 699.5 l 1
 224 437.5 l 1
 96.5 437.5 l 1
 192.5 700 l 1
EndSplineSet
EndChar

StartChar: IJ
Encoding: 306 306 365
Width: 647
VWidth: 0
Flags: HMW
LayerCount: 2
Fore
SplineSet
187 -51 m 1
 207.5 -66.5 233 -83.5 260 -83 c 0
 296.5 -82.5 330 -51.5 338 -4.5 c 1
 459.5 700 l 1
 672.5 700 l 1
 544.5 -52.5 l 1
 521 -187.5 399 -244.5 266 -244.5 c 0
 187 -244.5 117 -217 63 -184.5 c 1
 187 -51 l 1
160.5 700 m 1
 358.5 700 l 1
 238.5 0 l 1
 41 0 l 1
 160.5 700 l 1
EndSplineSet
EndChar

StartChar: ij
Encoding: 307 307 366
Width: 539
VWidth: 0
Flags: HMW
LayerCount: 2
Fore
SplineSet
386 628.5 m 0
 393 680 443 717 495 717 c 0
 547.5 717 587 678 580 625.5 c 0
 573 574 523.5 537 471.5 537 c 0
 419 537 379 576 386 628.5 c 0
188.5 -65.5 m 1
 199 -73 214.5 -90.5 228.5 -91 c 0
 259 -93 282 -61.5 287.5 -29 c 1
 372.5 460 l 1
 537 460 l 1
 446 -77 l 2
 428 -176 354.5 -244.5 239 -244 c 0
 175 -244 136 -216 106 -189 c 1
 188.5 -65.5 l 1
119 628.5 m 0
 126 680 175.5 717 227.5 717 c 0
 280 717 320.5 678 313.5 625.5 c 0
 306.5 574 256.5 537 204.5 537 c 0
 152 537 112 576 119 628.5 c 0
104.5 460 m 1
 271.5 460 l 1
 192.5 0 l 1
 26 0 l 1
 104.5 460 l 1
EndSplineSet
EndChar

StartChar: uni0237
Encoding: 567 567 367
Width: 270
VWidth: 0
Flags: HMW
LayerCount: 2
Fore
SplineSet
-79.5 -65.5 m 1
 -69 -79 -57 -90.5 -40 -91 c 0
 -9 -91.5 13.5 -62.5 19.5 -29 c 1
 104 460 l 1
 268.5 460 l 1
 177.5 -77 l 2
 159.5 -176 86 -244.5 -29.5 -244 c 0
 -93.5 -244 -132 -216 -162 -189 c 1
 -79.5 -65.5 l 1
EndSplineSet
EndChar

StartChar: Sacute
Encoding: 346 346 368
Width: 630
VWidth: 0
Flags: HMW
LayerCount: 2
Fore
SplineSet
175 259 m 1
 209.5 190.5 245.5 143 315.5 143.5 c 0
 357 143.5 392.5 160.5 400 197 c 0
 411 248 343.5 265.5 286.5 290 c 0
 207.5 325.5 116.5 393.5 131.5 515 c 0
 151 641 273 718 415 718 c 0
 549.5 718 630 651 656.5 562 c 1
 502.5 481.5 l 1
 479.5 525.5 453 554 406 554 c 0
 370 554 333 536 326.5 507.5 c 0
 315 461.5 406.5 440 462.5 418.5 c 0
 560 380.5 618.5 305.5 604 197.5 c 0
 582.5 49.5 451.5 -27 292.5 -26.5 c 0
 166.5 -26 63.5 48 30 164 c 1
 175 259 l 1
632.5 925 m 1
 435.5 779 l 1
 341.5 828 l 1
 511.5 984 l 1
 632.5 925 l 1
EndSplineSet
EndChar

StartChar: sacute
Encoding: 347 347 369
Width: 458
VWidth: 0
Flags: HMW
LayerCount: 2
Fore
SplineSet
77 178.5 m 1
 137 131.5 184 107 223 108 c 0
 240 108 262 114 264.5 131 c 0
 269 160.5 190 173 153.5 191 c 0
 96 219.5 55.5 263 64.5 333.5 c 0
 78.5 426.5 175.5 469 273.5 469.5 c 0
 349 469.5 413.5 443 470 407.5 c 1
 404 293 l 1
 367.5 326.5 316 348.5 274 348.5 c 0
 251.5 348.5 229.5 342.5 227 326 c 0
 222.5 299 291.5 284.5 330.5 269.5 c 0
 393 245 443.5 204.5 434.5 129.5 c 0
 421.5 27.5 343 -21.5 237.5 -22 c 0
 143.5 -23 65.5 11 -1.5 60.5 c 1
 77 178.5 l 1
490.5 677.5 m 1
 293.5 531.5 l 1
 199.5 580.5 l 1
 369 736.5 l 1
 490.5 677.5 l 1
EndSplineSet
EndChar

StartChar: Scircumflex
Encoding: 348 348 370
Width: 630
VWidth: 0
Flags: HMW
LayerCount: 2
Fore
SplineSet
175 259 m 1
 209.5 190.5 245.5 143 315.5 143.5 c 0
 357 143.5 392.5 160.5 400 197 c 0
 411 248 343.5 265.5 286.5 290 c 0
 207.5 325.5 116.5 393.5 131.5 515 c 0
 151 641 273 718 415 718 c 0
 549.5 718 630 651 656.5 562 c 1
 502.5 481.5 l 1
 479.5 525.5 453 554 406 554 c 0
 370 554 333 536 326.5 507.5 c 0
 315 461.5 406.5 440 462.5 418.5 c 0
 560 380.5 618.5 305.5 604 197.5 c 0
 582.5 49.5 451.5 -27 292.5 -26.5 c 0
 166.5 -26 63.5 48 30 164 c 1
 175 259 l 1
449 859.5 m 1
 352 778.5 l 1
 241.5 862.5 l 1
 464.5 999.5 l 1
 648 856 l 1
 517.5 777.5 l 1
 449 859.5 l 1
EndSplineSet
EndChar

StartChar: scircumflex
Encoding: 349 349 371
Width: 458
VWidth: 0
Flags: HMW
LayerCount: 2
Fore
SplineSet
77 178.5 m 1
 137 131.5 184 107 223 108 c 0
 240 108 262 114 264.5 131 c 0
 269 160.5 190 173 153.5 191 c 0
 96 219.5 55.5 263 64.5 333.5 c 0
 78.5 426.5 175.5 469 273.5 469.5 c 0
 349 469.5 413.5 443 470 407.5 c 1
 404 293 l 1
 367.5 326.5 316 348.5 274 348.5 c 0
 251.5 348.5 229.5 342.5 227 326 c 0
 222.5 299 291.5 284.5 330.5 269.5 c 0
 393 245 443.5 204.5 434.5 129.5 c 0
 421.5 27.5 343 -21.5 237.5 -22 c 0
 143.5 -23 65.5 11 -1.5 60.5 c 1
 77 178.5 l 1
322.5 612 m 1
 226.5 531 l 1
 115.5 615.5 l 1
 338 752.5 l 1
 522 609.5 l 1
 391 530 l 1
 322.5 612 l 1
EndSplineSet
EndChar

StartChar: uni1E9E
Encoding: 7838 7838 372
Width: 919
VWidth: 0
Flags: HMW
LayerCount: 2
Fore
SplineSet
551 -18 m 0
 375 -17 312 111.5 326 235 c 1
 490 234.5 l 1
 487 182 507.5 139 567.5 137 c 0
 623.5 135 663 163.5 671.5 212.5 c 0
 684.5 279.5 617 297.5 546 300 c 1
 557.5 379.5 l 1
 712 378 880.5 334.5 857.5 184.5 c 0
 838 57.5 699.5 -19 551 -18 c 0
554.5 345.5 m 1
 565.5 420 l 1
 628 423 684 442.5 693 496 c 0
 702.5 546 642.5 562.5 572.5 562 c 0
 437 561 323 472 297.5 319.5 c 1
 242.5 0 l 1
 48.5 0 l 1
 108.5 353 l 2
 146.5 568 336 709 578 710 c 0
 749 710.5 918.5 655 895 517 c 0
 873.5 388.5 714.5 347 554.5 345.5 c 1
EndSplineSet
EndChar

StartChar: Zacute
Encoding: 377 377 373
Width: 624
VWidth: 0
Flags: HW
LayerCount: 2
Fore
SplineSet
122.5 525 m 1
 153.5 700 l 1
 710 699.5 l 1
 310.5 167.5 l 1
 578 167 l 1
 548 0 l 1
 -25 0 l 1
 368 524.5 l 1
 122.5 525 l 1
641 925 m 1
 444.5 779 l 1
 350.5 828 l 1
 520.5 984 l 1
 641 925 l 1
EndSplineSet
EndChar

StartChar: zacute
Encoding: 378 378 374
Width: 526
VWidth: 0
Flags: HW
LayerCount: 2
Fore
SplineSet
255 302 m 1
 82 302.5 l 1
 109.5 460 l 1
 568 459.5 l 1
 311 158 l 1
 479 157.5 l 1
 451 0 l 1
 -17 0 l 1
 255 302 l 1
548 680.5 m 1
 351 534.5 l 1
 257 584 l 1
 427 740 l 1
 548 680.5 l 1
EndSplineSet
EndChar

StartChar: Zdotaccent
Encoding: 379 379 375
Width: 624
VWidth: 0
Flags: HW
LayerCount: 2
Fore
SplineSet
122.5 525 m 1
 153.5 700 l 1
 710 699.5 l 1
 310.5 167.5 l 1
 578 167 l 1
 548 0 l 1
 -25 0 l 1
 368 524.5 l 1
 122.5 525 l 1
361.5 870.5 m 0
 368.5 922 418.5 959 470.5 959 c 0
 523 959 562.5 920 555.5 867.5 c 0
 548.5 816 499 778.5 447 778.5 c 0
 394.5 778.5 354.5 818 361.5 870.5 c 0
EndSplineSet
EndChar

StartChar: zdotaccent
Encoding: 380 380 376
Width: 526
VWidth: 0
Flags: HW
LayerCount: 2
Fore
SplineSet
255 302 m 1
 82 302.5 l 1
 109.5 460 l 1
 568 459.5 l 1
 311 158 l 1
 479 157.5 l 1
 451 0 l 1
 -17 0 l 1
 255 302 l 1
268.5 628 m 0
 275.5 679.5 325.5 716.5 377.5 716.5 c 0
 430 716.5 470 677.5 463 625 c 0
 456 573.5 406.5 536 354.5 536 c 0
 302 536 261.5 575.5 268.5 628 c 0
EndSplineSet
EndChar

StartChar: Tcaron
Encoding: 356 356 377
Width: 575
VWidth: 0
Flags: HW
LayerCount: 2
Fore
SplineSet
62 524.5 m 1
 93 700 l 1
 668.5 700 l 1
 637.5 524.5 l 1
 447.5 524.5 l 1
 357.5 0 l 1
 163.5 0 l 1
 253 524.5 l 1
 62 524.5 l 1
413.75 918 m 1
 510.25 1000 l 1
 620.75 915 l 1
 398.25 778 l 1
 214.75 921.5 l 1
 345.25 1000.5 l 1
 413.75 918 l 1
EndSplineSet
EndChar

StartChar: tcaron
Encoding: 357 357 378
Width: 520
VWidth: 0
Flags: HW
LayerCount: 2
Fore
SplineSet
55 460 m 1
 381.5 460 l 1
 356.5 318.5 l 1
 29.5 318.5 l 1
 55 460 l 1
163 620 m 1
 328.5 620 l 1
 222 0 l 1
 56.5 0 l 1
 163 620 l 1
497.5 789.5 m 1
 668 755.5 l 1
 498.5 508.5 l 1
 368.5 533.5 l 1
 497.5 789.5 l 1
EndSplineSet
EndChar

StartChar: Uring
Encoding: 366 366 379
Width: 703
VWidth: 0
Flags: HW
LayerCount: 2
Fore
SplineSet
155.5 700 m 1
 350.5 700 l 1
 271 246.5 l 2
 264 191.5 280.5 142.5 344.5 141 c 0
 409.5 139.5 450 188.5 461 247 c 1
 539.5 700 l 1
 733 700 l 1
 653.5 230 l 2
 625.5 58 490 -34.5 324.5 -34.5 c 0
 164 -34.5 53.5 59 76 230 c 1
 155.5 700 l 1
348 900.5 m 0
 357 969.5 421.5 1019.5 492.5 1019.5 c 0
 563.5 1019.5 617.5 968.5 608 898.5 c 0
 599 829 532 778.5 460.5 778.5 c 0
 389.5 778.5 338.5 831 348 900.5 c 0
433.5 898.5 m 0
 431 876 443.5 855 466 854 c 0
 489.5 853 517.5 876 521 900 c 0
 523.5 922.5 510 944.5 487.5 945.5 c 0
 464 946.5 437 922.5 433.5 898.5 c 0
EndSplineSet
EndChar

StartChar: uring
Encoding: 367 367 380
Width: 573
VWidth: 0
Flags: HW
LayerCount: 2
Fore
SplineSet
322 0 m 1
 401.5 460 l 1
 575 460 l 1
 495.5 0 l 1
 322 0 l 1
234 180 m 1
 230.5 143 232 110 273 106.5 c 0
 314.5 103 344.5 140.5 353.5 179.5 c 1
 381.5 187 l 1
 364 84.5 307.5 -9.5 190 -10.5 c 0
 76 -11.5 39.5 61 52.5 162 c 1
 103 460 l 1
 284 460 l 1
 234 180 l 1
241.25 652.5 m 0
 250.25 721.5 315.25 771.5 386.25 771.5 c 0
 457.25 771.5 510.75 720.5 501.25 650.5 c 0
 492.25 581 425.25 531 353.75 531 c 0
 282.75 531 231.75 583 241.25 652.5 c 0
327.25 650.5 m 0
 324.75 628 336.75 607.5 359.25 606.5 c 0
 382.75 605.5 410.75 628.5 414.25 652.5 c 0
 416.75 675 403.25 696.5 380.75 697.5 c 0
 357.25 698.5 330.75 674.5 327.25 650.5 c 0
EndSplineSet
EndChar
